Cascade-SemiBold.ufo
<glyph name="dollar" format="2">
  <advance width="522"/>
  <unicode hex="0024"/>
  <outline>
    <contour>
      <point x="318.333" y="-70" type="line"/>
      <point x="318.333" y="-1.66667" type="line"/>
      <point x="429.667" y="21.3333"/>
      <point x="488.333" y="91.3333"/>
      <point x="488.333" y="190" type="curve" smooth="yes"/>
      <point x="488.333" y="413.333"/>
      <point x="166.667" y="384"/>
      <point x="166.667" y="530" type="curve" smooth="yes"/>
      <point x="166.667" y="579.667"/>
      <point x="213.333" y="626.667"/>
      <point x="278.333" y="626.667" type="curve" smooth="yes"/>
      <point x="324.667" y="626.667"/>
      <point x="360.333" y="614.667"/>
      <point x="383.667" y="603.667" type="curve"/>
      <point x="397" y="596.667"/>
      <point x="409" y="589.667"/>
      <point x="418.333" y="581.667" type="curve"/>
      <point x="428.333" y="581.667" type="line"/>
      <point x="470" y="655" type="line"/>
      <point x="459" y="662.333"/>
      <point x="446.667" y="669.667"/>
      <point x="431.667" y="676.667" type="curve" smooth="yes"/>
      <point x="406" y="688"/>
      <point x="369.333" y="701"/>
      <point x="318.333" y="706" type="curve"/>
      <point x="318.333" y="770" type="line"/>
      <point x="193.333" y="770" type="line"/>
      <point x="193.333" y="701" type="line"/>
      <point x="94.6667" y="676.667"/>
      <point x="40" y="606.667"/>
      <point x="40" y="520" type="curve" smooth="yes"/>
      <point x="40" y="296.667"/>
      <point x="361.667" y="326"/>
      <point x="361.667" y="180" type="curve" smooth="yes"/>
      <point x="361.667" y="116.333"/>
      <point x="318.667" y="73.3333"/>
      <point x="235" y="73.3333" type="curve" smooth="yes"/>
      <point x="184.667" y="73.3333"/>
      <point x="147.667" y="84.3333"/>
      <point x="122.667" y="95.3333" type="curve"/>
      <point x="108.333" y="102.333"/>
      <point x="95.6667" y="109.333"/>
      <point x="85" y="118.333" type="curve"/>
      <point x="75" y="118.333" type="line"/>
      <point x="33.3333" y="45" type="line"/>
      <point x="44.6667" y="38"/>
      <point x="58" y="30.6667"/>
      <point x="73.3333" y="23.6667" type="curve"/>
      <point x="100.333" y="12.3333"/>
      <point x="139" y="-0.666667"/>
      <point x="193.333" y="-5.66667" type="curve"/>
      <point x="193.333" y="-70" type="line"/>
    </contour>
  </outline>
</glyph>
<glyph name="percent" format="2">
  <advance width="833"/>
  <unicode hex="0025"/>
  <outline>
    <contour>
      <point x="250" y="0" type="line"/>
      <point x="720" y="700" type="line"/>
      <point x="583.333" y="700" type="line"/>
      <point x="113.333" y="0" type="line"/>
    </contour>
    <contour>
      <point x="193.333" y="350" type="curve" smooth="yes"/>
      <point x="292" y="350"/>
      <point x="363.333" y="422"/>
      <point x="363.333" y="530" type="curve" smooth="yes"/>
      <point x="363.333" y="638"/>
      <point x="292" y="710"/>
      <point x="193.333" y="710" type="curve" smooth="yes"/>
      <point x="94.6667" y="710"/>
      <point x="23.3333" y="638"/>
      <point x="23.3333" y="530" type="curve" smooth="yes"/>
      <point x="23.3333" y="422"/>
      <point x="94.6667" y="350"/>
    </contour>
    <contour>
      <point x="193.333" y="423.333" type="curve" smooth="yes"/>
      <point x="159.333" y="423.333"/>
      <point x="133.333" y="449.667"/>
      <point x="133.333" y="530" type="curve" smooth="yes"/>
      <point x="133.333" y="609.667"/>
      <point x="159.333" y="636.667"/>
      <point x="193.333" y="636.667" type="curve" smooth="yes"/>
      <point x="226" y="636.667"/>
      <point x="253.333" y="609.667"/>
      <point x="253.333" y="530" type="curve" smooth="yes"/>
      <point x="253.333" y="449.667"/>
      <point x="226" y="423.333"/>
    </contour>
    <contour>
      <point x="640" y="-10" type="curve" smooth="yes"/>
      <point x="738.667" y="-10"/>
      <point x="810" y="62"/>
      <point x="810" y="170" type="curve" smooth="yes"/>
      <point x="810" y="278"/>
      <point x="738.667" y="350"/>
      <point x="640" y="350" type="curve" smooth="yes"/>
      <point x="541.333" y="350"/>
      <point x="470" y="278"/>
      <point x="470" y="170" type="curve" smooth="yes"/>
      <point x="470" y="62"/>
      <point x="541.333" y="-10"/>
    </contour>
    <contour>
      <point x="640" y="63.3333" type="curve" smooth="yes"/>
      <point x="606" y="63.3333"/>
      <point x="580" y="89.6667"/>
      <point x="580" y="170" type="curve" smooth="yes"/>
      <point x="580" y="249.667"/>
      <point x="606" y="276.667"/>
      <point x="640" y="276.667" type="curve" smooth="yes"/>
      <point x="672.667" y="276.667"/>
      <point x="700" y="249.667"/>
      <point x="700" y="170" type="curve" smooth="yes"/>
      <point x="700" y="89.6667"/>
      <point x="672.667" y="63.3333"/>
    </contour>
  </outline>
</glyph>
<glyph name="quotesingle" format="2">
  <advance width="198"/>
  <unicode hex="0027"/>
  <outline>
    <contour>
      <point x="138.333" y="456.667" type="line"/>
      <point x="161.667" y="700" type="line"/>
      <point x="36.6667" y="700" type="line"/>
      <point x="60" y="456.667" type="line"/>
    </contour>
  </outline>
</glyph>
<glyph name="parenleft" format="2">
  <advance width="308"/>
  <unicode hex="0028"/>
  <outline>
    <contour>
      <point x="308.333" y="-131.667" type="line"/>
      <point x="228.333" y="-23"/>
      <point x="181.667" y="103"/>
      <point x="181.667" y="280" type="curve" smooth="yes"/>
      <point x="181.667" y="457"/>
      <point x="228.333" y="583"/>
      <point x="308.333" y="691.667" type="curve"/>
      <point x="258.333" y="741.667" type="line"/>
      <point x="133.333" y="634"/>
      <point x="55" y="463"/>
      <point x="55" y="280" type="curve" smooth="yes"/>
      <point x="55" y="97"/>
      <point x="133.333" y="-74"/>
      <point x="258.333" y="-181.667" type="curve"/>
    </contour>
  </outline>
</glyph>
<glyph name="parenright" format="2">
  <advance width="308"/>
  <unicode hex="0029"/>
  <outline>
    <contour>
      <point x="50" y="-181.667" type="line"/>
      <point x="175" y="-74"/>
      <point x="253.333" y="97"/>
      <point x="253.333" y="280" type="curve" smooth="yes"/>
      <point x="253.333" y="463"/>
      <point x="175" y="634"/>
      <point x="50" y="741.667" type="curve"/>
      <point x="0" y="691.667" type="line"/>
      <point x="80" y="583"/>
      <point x="126.667" y="457"/>
      <point x="126.667" y="280" type="curve" smooth="yes"/>
      <point x="126.667" y="103"/>
      <point x="80" y="-23"/>
      <point x="0" y="-131.667" type="curve"/>
    </contour>
  </outline>
</glyph>
<glyph name="asterisk" format="2">
  <advance width="430"/>
  <unicode hex="002A"/>
  <outline>
    <contour>
      <point x="256.667" y="333.333" type="line"/>
      <point x="256.667" y="444.667" type="line"/>
      <point x="358.333" y="386.667" type="line"/>
      <point x="400" y="460" type="line"/>
      <point x="301" y="516.667" type="line"/>
      <point x="400" y="573.333" type="line"/>
      <point x="358.333" y="646.667" type="line"/>
      <point x="256.667" y="588" type="line"/>
      <point x="256.667" y="700" type="line"/>
      <point x="173.333" y="700" type="line"/>
      <point x="173.333" y="588" type="line"/>
      <point x="71.6667" y="646.667" type="line"/>
      <point x="30" y="573.333" type="line"/>
      <point x="129" y="516.667" type="line"/>
      <point x="30" y="460" type="line"/>
      <point x="71.6667" y="386.667" type="line"/>
      <point x="173.333" y="444.667" type="line"/>
      <point x="173.333" y="333.333" type="line"/>
    </contour>
  </outline>
</glyph>
<glyph name="plus" format="2">
  <advance width="483"/>
  <unicode hex="002B"/>
  <outline>
    <contour>
      <point x="288.333" y="118.333" type="line"/>
      <point x="288.333" y="283.333" type="line"/>
      <point x="453.333" y="283.333" type="line"/>
      <point x="453.333" y="376.667" type="line"/>
      <point x="288.333" y="376.667" type="line"/>
      <point x="288.333" y="541.667" type="line"/>
      <point x="195" y="541.667" type="line"/>
      <point x="195" y="376.667" type="line"/>
      <point x="30" y="376.667" type="line"/>
      <point x="30" y="283.333" type="line"/>
      <point x="195" y="283.333" type="line"/>
      <point x="195" y="118.333" type="line"/>
    </contour>
  </outline>
</glyph>
<glyph name="eight" format="2">
  <advance width="560"/>
  <unicode hex="0038"/>
  <outline>
    <contour>
      <point x="280" y="-10" type="curve" smooth="yes"/>
      <point x="443" y="-10"/>
      <point x="530" y="76.6667"/>
      <point x="530" y="180" type="curve" smooth="yes"/>
      <point x="530" y="257.333"/>
      <point x="490.667" y="304.667"/>
      <point x="450.667" y="333" type="curve" smooth="yes"/>
      <point x="427.667" y="350"/>
      <point x="401.333" y="362"/>
      <point x="371.667" y="370" type="curve"/>
      <point x="396" y="377.333"/>
      <point x="417.667" y="388.333"/>
      <point x="437" y="402.667" type="curve" smooth="yes"/>
      <point x="470.667" y="427"/>
      <point x="503.333" y="468"/>
      <point x="503.333" y="535" type="curve" smooth="yes"/>
      <point x="503.333" y="627.333"/>
      <point x="420.333" y="710"/>
      <point x="280" y="710" type="curve" smooth="yes"/>
      <point x="139.667" y="710"/>
      <point x="56.6667" y="627.333"/>
      <point x="56.6667" y="535" type="curve" smooth="yes"/>
      <point x="56.6667" y="468"/>
      <point x="88.3333" y="427"/>
      <point x="122" y="402.667" type="curve" smooth="yes"/>
      <point x="141.333" y="388.333"/>
      <point x="163.667" y="377.333"/>
      <point x="188.333" y="370" type="curve"/>
      <point x="158.667" y="362"/>
      <point x="132" y="350"/>
      <point x="109" y="333" type="curve" smooth="yes"/>
      <point x="69.3333" y="305"/>
      <point x="30" y="257"/>
      <point x="30" y="180" type="curve" smooth="yes"/>
      <point x="30" y="76.6667"/>
      <point x="117" y="-10"/>
    </contour>
    <contour>
      <point x="280" y="73.3333" type="curve" smooth="yes"/>
      <point x="199" y="73.3333"/>
      <point x="156.667" y="116.333"/>
      <point x="156.667" y="180" type="curve" smooth="yes"/>
      <point x="156.667" y="260"/>
      <point x="212.333" y="294.333"/>
      <point x="280" y="320" type="curve"/>
      <point x="347.667" y="294.333"/>
      <point x="403.333" y="260"/>
      <point x="403.333" y="180" type="curve" smooth="yes"/>
      <point x="403.333" y="116.333"/>
      <point x="361" y="73.3333"/>
    </contour>
    <contour>
      <point x="280" y="420" type="curve"/>
      <point x="223" y="439.667"/>
      <point x="183.333" y="469"/>
      <point x="183.333" y="535" type="curve" smooth="yes"/>
      <point x="183.333" y="583.667"/>
      <point x="225.667" y="626.667"/>
      <point x="280" y="626.667" type="curve" smooth="yes"/>
      <point x="333.667" y="626.667"/>
      <point x="376.667" y="583.667"/>
      <point x="376.667" y="535" type="curve" smooth="yes"/>
      <point x="376.667" y="469"/>
      <point x="336.333" y="439.667"/>
    </contour>
  </outline>
</glyph>
<glyph name="colon" format="2">
  <advance width="213"/>
  <unicode hex="003A"/>
  <outline>
    <contour>
      <point x="106.667" y="370" type="curve" smooth="yes"/>
      <point x="145" y="370"/>
      <point x="176.667" y="401.667"/>
      <point x="176.667" y="440" type="curve" smooth="yes"/>
      <point x="176.667" y="478.333"/>
      <point x="145" y="510"/>
      <point x="106.667" y="510" type="curve" smooth="yes"/>
      <point x="68.3333" y="510"/>
      <point x="36.6667" y="478.333"/>
      <point x="36.6667" y="440" type="curve" smooth="yes"/>
      <point x="36.6667" y="401.667"/>
      <point x="68.3333" y="370"/>
    </contour>
    <contour>
      <point x="106.667" y="-10" type="curve" smooth="yes"/>
      <point x="145" y="-10"/>
      <point x="176.667" y="21.6667"/>
      <point x="176.667" y="60" type="curve" smooth="yes"/>
      <point x="176.667" y="98.3333"/>
      <point x="145" y="130"/>
      <point x="106.667" y="130" type="curve" smooth="yes"/>
      <point x="68.3333" y="130"/>
      <point x="36.6667" y="98.3333"/>
      <point x="36.6667" y="60" type="curve" smooth="yes"/>
      <point x="36.6667" y="21.6667"/>
      <point x="68.3333" y="-10"/>
    </contour>
  </outline>
</glyph>
<glyph name="equal" format="2">
  <advance width="497"/>
  <unicode hex="003D"/>
  <outline>
    <contour>
      <point x="461.667" y="377.333" type="line"/>
      <point x="461.667" y="470.667" type="line"/>
      <point x="35" y="470.667" type="line"/>
      <point x="35" y="377.333" type="line"/>
    </contour>
    <contour>
      <point x="461.667" y="190" type="line"/>
      <point x="461.667" y="283.333" type="line"/>
      <point x="35" y="283.333" type="line"/>
      <point x="35" y="190" type="line"/>
    </contour>
  </outline>
</glyph>
<glyph name="greater" format="2">
  <advance width="452"/>
  <unicode hex="003E"/>
  <outline>
    <contour>
      <point x="431.667" y="211.667" type="line"/>
      <point x="431.667" y="288.333" type="line"/>
      <point x="35" y="500" type="line"/>
      <point x="35" y="388.333" type="line"/>
      <point x="295" y="250" type="line"/>
      <point x="35" y="111.667" type="line"/>
      <point x="35" y="0" type="line"/>
    </contour>
  </outline>
</glyph>
<glyph name="at" format="2">
  <advance width="950"/>
  <unicode hex="0040"/>
  <outline>
    <contour>
      <point x="465" y="-120" type="curve" smooth="yes"/>
      <point x="539.333" y="-120"/>
      <point x="593" y="-108"/>
      <point x="631" y="-93" type="curve" smooth="yes"/>
      <point x="652.667" y="-85"/>
      <point x="671.667" y="-76"/>
      <point x="686.667" y="-65" type="curve"/>
      <point x="645" y="8.33333" type="line"/>
      <point x="635" y="8.33333" type="line"/>
      <point x="623.333" y="-0.666667"/>
      <point x="610" y="-7.66667"/>
      <point x="594.667" y="-14.6667" type="curve"/>
      <point x="567.333" y="-25.6667"/>
      <point x="529.333" y="-36.6667"/>
      <point x="475" y="-36.6667" type="curve" smooth="yes"/>
      <point x="292" y="-36.6667"/>
      <point x="151.667" y="103.667"/>
      <point x="151.667" y="300" type="curve" smooth="yes"/>
      <point x="151.667" y="496.333"/>
      <point x="292" y="636.667"/>
      <point x="475" y="636.667" type="curve" smooth="yes"/>
      <point x="658" y="636.667"/>
      <point x="798.333" y="496.333"/>
      <point x="798.333" y="300" type="curve" smooth="yes"/>
      <point x="798.333" y="174.667"/>
      <point x="753" y="133.333"/>
      <point x="708.333" y="133.333" type="curve" smooth="yes"/>
      <point x="696.667" y="133.333"/>
      <point x="686.333" y="136.333"/>
      <point x="678.333" y="141.333" type="curve"/>
      <point x="674" y="144.333"/>
      <point x="670" y="146.667"/>
      <point x="666.667" y="150" type="curve"/>
      <point x="666.667" y="525" type="line"/>
      <point x="583.333" y="525" type="line"/>
      <point x="573.333" y="476.667" type="line"/>
      <point x="568.333" y="476.667" type="line"/>
      <point x="559.333" y="487.333"/>
      <point x="548.333" y="497"/>
      <point x="536" y="505.333" type="curve" smooth="yes"/>
      <point x="514.333" y="520.667"/>
      <point x="484" y="535"/>
      <point x="445" y="535" type="curve" smooth="yes"/>
      <point x="341.667" y="535"/>
      <point x="263.333" y="456.333"/>
      <point x="263.333" y="295" type="curve" smooth="yes"/>
      <point x="263.333" y="133.667"/>
      <point x="341.667" y="55"/>
      <point x="445" y="55" type="curve" smooth="yes"/>
      <point x="487" y="55"/>
      <point x="517.667" y="67"/>
      <point x="538" y="82" type="curve"/>
      <point x="549.667" y="90"/>
      <point x="560" y="99"/>
      <point x="568.333" y="110" type="curve"/>
      <point x="573.333" y="110" type="line"/>
      <point x="582" y="99"/>
      <point x="592" y="90"/>
      <point x="604" y="82" type="curve"/>
      <point x="625" y="67"/>
      <point x="658" y="55"/>
      <point x="705" y="55" type="curve" smooth="yes"/>
      <point x="821.667" y="55"/>
      <point x="908.333" y="141.667"/>
      <point x="908.333" y="300" type="curve" smooth="yes"/>
      <point x="908.333" y="540"/>
      <point x="728.333" y="720"/>
      <point x="475" y="720" type="curve" smooth="yes"/>
      <point x="221.667" y="720"/>
      <point x="41.6667" y="540"/>
      <point x="41.6667" y="300" type="curve" smooth="yes"/>
      <point x="41.6667" y="60"/>
      <point x="221" y="-120"/>
    </contour>
    <contour>
      <point x="470" y="140" type="curve" smooth="yes"/>
      <point x="425" y="140"/>
      <point x="383.333" y="178.333"/>
      <point x="383.333" y="295" type="curve" smooth="yes"/>
      <point x="383.333" y="411.667"/>
      <point x="421.667" y="450"/>
      <point x="470" y="450" type="curve" smooth="yes"/>
      <point x="491.667" y="450"/>
      <point x="510.667" y="437.667"/>
      <point x="524.667" y="425.333" type="curve"/>
      <point x="532.333" y="418"/>
      <point x="540" y="410.333"/>
      <point x="546.667" y="401.667" type="curve"/>
      <point x="546.667" y="171.667" type="line"/>
      <point x="540.667" y="165.333"/>
      <point x="533.667" y="159.667"/>
      <point x="526" y="155.333" type="curve"/>
      <point x="512.667" y="147"/>
      <point x="493.667" y="140"/>
    </contour>
  </outline>
</glyph>
<glyph name="B" format="2">
  <advance width="598"/>
  <unicode hex="0042"/>
  <outline>
    <contour>
      <point x="290" y="0" type="line" smooth="yes"/>
      <point x="473.333" y="0"/>
      <point x="548.333" y="75"/>
      <point x="548.333" y="193.333" type="curve" smooth="yes"/>
      <point x="548.333" y="270.333"/>
      <point x="511.333" y="315"/>
      <point x="475" y="340" type="curve" smooth="yes"/>
      <point x="453.333" y="354.333"/>
      <point x="429" y="364.667"/>
      <point x="401.667" y="370" type="curve"/>
      <point x="424" y="375.333"/>
      <point x="444.333" y="384.667"/>
      <point x="462" y="397" type="curve" smooth="yes"/>
      <point x="492.333" y="418.667"/>
      <point x="523.333" y="456.667"/>
      <point x="523.333" y="521.667" type="curve" smooth="yes"/>
      <point x="523.333" y="624.333"/>
      <point x="447.667" y="700"/>
      <point x="290" y="700" type="curve" smooth="yes"/>
      <point x="86.6667" y="700" type="line"/>
      <point x="86.6667" y="0" type="line"/>
    </contour>
    <contour>
      <point x="213.333" y="323.333" type="line"/>
      <point x="290" y="323.333" type="line" smooth="yes"/>
      <point x="378.667" y="323.333"/>
      <point x="421.667" y="283"/>
      <point x="421.667" y="203.333" type="curve" smooth="yes"/>
      <point x="421.667" y="123.667"/>
      <point x="378.667" y="83.3333"/>
      <point x="290" y="83.3333" type="curve" smooth="yes"/>
      <point x="213.333" y="83.3333" type="line"/>
    </contour>
    <contour>
      <point x="213.333" y="616.667" type="line"/>
      <point x="290" y="616.667" type="line" smooth="yes"/>
      <point x="355.333" y="616.667"/>
      <point x="396.667" y="575.333"/>
      <point x="396.667" y="511.667" type="curve" smooth="yes"/>
      <point x="396.667" y="448"/>
      <point x="355.333" y="406.667"/>
      <point x="290" y="406.667" type="curve" smooth="yes"/>
      <point x="213.333" y="406.667" type="line"/>
    </contour>
  </outline>
</glyph>
<glyph name="C" format="2">
  <advance width="528"/>
  <unicode hex="0043"/>
  <outline>
    <contour>
      <point x="325" y="-10" type="curve" smooth="yes"/>
      <point x="381.667" y="-10"/>
      <point x="427" y="2"/>
      <point x="458.667" y="17" type="curve"/>
      <point x="477" y="25"/>
      <point x="493" y="34"/>
      <point x="506.667" y="45" type="curve"/>
      <point x="465" y="118.333" type="line"/>
      <point x="455" y="118.333" type="line"/>
      <point x="445.333" y="109.333"/>
      <point x="434.333" y="102.333"/>
      <point x="422.333" y="95.3333" type="curve"/>
      <point x="401.333" y="84.3333"/>
      <point x="371.333" y="73.3333"/>
      <point x="335" y="73.3333" type="curve" smooth="yes"/>
      <point x="241.667" y="73.3333"/>
      <point x="178.333" y="136"/>
      <point x="178.333" y="350" type="curve" smooth="yes"/>
      <point x="178.333" y="564"/>
      <point x="241.667" y="626.667"/>
      <point x="325" y="626.667" type="curve" smooth="yes"/>
      <point x="361.333" y="626.667"/>
      <point x="391.333" y="614.667"/>
      <point x="412.333" y="603.667" type="curve"/>
      <point x="424.333" y="596.667"/>
      <point x="435.333" y="589.667"/>
      <point x="445" y="581.667" type="curve"/>
      <point x="455" y="581.667" type="line"/>
      <point x="496.667" y="655" type="line"/>
      <point x="483" y="665"/>
      <point x="467" y="674"/>
      <point x="448.667" y="682" type="curve"/>
      <point x="417" y="697"/>
      <point x="371.667" y="710"/>
      <point x="315" y="710" type="curve" smooth="yes"/>
      <point x="155.333" y="710"/>
      <point x="51.6667" y="606.667"/>
      <point x="51.6667" y="350" type="curve" smooth="yes"/>
      <point x="51.6667" y="93.3333"/>
      <point x="154.333" y="-10"/>
    </contour>
  </outline>
</glyph>
<glyph name="F" format="2">
  <advance width="517"/>
  <unicode hex="0046"/>
  <outline>
    <contour>
      <point x="213.333" y="0" type="line"/>
      <point x="213.333" y="313.333" type="line"/>
      <point x="436.667" y="313.333" type="line"/>
      <point x="436.667" y="396.667" type="line"/>
      <point x="213.333" y="396.667" type="line"/>
      <point x="213.333" y="616.667" type="line"/>
      <point x="496.667" y="616.667" type="line"/>
      <point x="496.667" y="700" type="line"/>
      <point x="86.6667" y="700" type="line"/>
      <point x="86.6667" y="0" type="line"/>
    </contour>
  </outline>
</glyph>
<glyph name="H" format="2">
  <advance width="650"/>
  <unicode hex="0048"/>
  <outline>
    <contour>
      <point x="213.333" y="0" type="line"/>
      <point x="213.333" y="313.333" type="line"/>
      <point x="436.667" y="313.333" type="line"/>
      <point x="436.667" y="0" type="line"/>
      <point x="563.333" y="0" type="line"/>
      <point x="563.333" y="700" type="line"/>
      <point x="436.667" y="700" type="line"/>
      <point x="436.667" y="396.667" type="line"/>
      <point x="213.333" y="396.667" type="line"/>
      <point x="213.333" y="700" type="line"/>
      <point x="86.6667" y="700" type="line"/>
      <point x="86.6667" y="0" type="line"/>
    </contour>
  </outline>
</glyph>
<glyph name="I" format="2">
  <advance width="300"/>
  <unicode hex="0049"/>
  <anchor x="150" y="0" name="bottom"/>
  <anchor x="213.333" y="0" name="ogonek"/>
  <anchor x="150" y="700" name="top"/>
  <anchor x="20" y="700" name="topleft"/>
  <outline>
    <contour>
      <point x="213.333" y="0" type="line"/>
      <point x="213.333" y="700" type="line"/>
      <point x="86.6667" y="700" type="line"/>
      <point x="86.6667" y="0" type="line"/>
    </contour>
  </outline>
</glyph>
<glyph name="K" format="2">
  <advance width="575"/>
  <unicode hex="004B"/>
  <outline>
    <contour>
      <point x="213.333" y="0" type="line"/>
      <point x="213.333" y="336.667" type="line"/>
      <point x="421.667" y="0" type="line"/>
      <point x="566.667" y="0" type="line"/>
      <point x="336.667" y="363.333" type="line"/>
      <point x="553.333" y="700" type="line"/>
      <point x="411.667" y="700" type="line"/>
      <point x="213.333" y="383.333" type="line"/>
      <point x="213.333" y="700" type="line"/>
      <point x="86.6667" y="700" type="line"/>
      <point x="86.6667" y="0" type="line"/>
    </contour>
  </outline>
</glyph>
<glyph name="M" format="2">
  <advance width="860"/>
  <unicode hex="004D"/>
  <outline>
    <contour>
      <point x="213.333" y="0" type="line"/>
      <point x="213.333" y="416.667" type="line" smooth="yes"/>
      <point x="213.333" y="431.667"/>
      <point x="211.667" y="449"/>
      <point x="210.667" y="464" type="curve" smooth="yes"/>
      <point x="208.667" y="489" type="line"/>
      <point x="212.667" y="489" type="line"/>
      <point x="214.472" y="482.706"/>
      <point x="217.839" y="470.369"/>
      <point x="220.333" y="464" type="curve" smooth="yes"/>
      <point x="226" y="449"/>
      <point x="232.667" y="431.667"/>
      <point x="240" y="416.667" type="curve" smooth="yes"/>
      <point x="390" y="118.333" type="line"/>
      <point x="463.333" y="118.333" type="line"/>
      <point x="620" y="423.333" type="line" smooth="yes"/>
      <point x="628" y="438.333"/>
      <point x="634" y="455.667"/>
      <point x="639.667" y="470.667" type="curve" smooth="yes"/>
      <point x="642.161" y="477.036"/>
      <point x="645.528" y="489.373"/>
      <point x="647.333" y="495.667" type="curve"/>
      <point x="651.333" y="495.667" type="line"/>
      <point x="648.667" y="470.667" type="line" smooth="yes"/>
      <point x="647" y="455.667"/>
      <point x="646.667" y="438.333"/>
      <point x="646.667" y="423.333" type="curve" smooth="yes"/>
      <point x="646.667" y="0" type="line"/>
      <point x="773.333" y="0" type="line"/>
      <point x="773.333" y="700" type="line"/>
      <point x="650" y="700" type="line"/>
      <point x="450" y="295" type="line" smooth="yes"/>
      <point x="445" y="285"/>
      <point x="440" y="273.667"/>
      <point x="437" y="262.667" type="curve" smooth="yes"/>
      <point x="435.716" y="258.236"/>
      <point x="432.849" y="248.753"/>
      <point x="432" y="245" type="curve"/>
      <point x="428" y="245" type="line"/>
      <point x="427.151" y="248.753"/>
      <point x="424.284" y="258.236"/>
      <point x="423" y="262.667" type="curve" smooth="yes"/>
      <point x="420" y="273.667"/>
      <point x="415" y="285"/>
      <point x="410" y="295" type="curve" smooth="yes"/>
      <point x="210" y="700" type="line"/>
      <point x="86.6667" y="700" type="line"/>
      <point x="86.6667" y="0" type="line"/>
    </contour>
  </outline>
</glyph>
<glyph name="P" format="2">
  <advance width="585"/>
  <unicode hex="0050"/>
  <outline>
    <contour>
      <point x="213.333" y="0" type="line"/>
      <point x="213.333" y="233.333" type="line"/>
      <point x="280" y="233.333" type="line" smooth="yes"/>
      <point x="464.333" y="233.333"/>
      <point x="543.333" y="312.333"/>
      <point x="543.333" y="466.667" type="curve" smooth="yes"/>
      <point x="543.333" y="621"/>
      <point x="464.333" y="700"/>
      <point x="280" y="700" type="curve" smooth="yes"/>
      <point x="86.6667" y="700" type="line"/>
      <point x="86.6667" y="0" type="line"/>
    </contour>
    <contour>
      <point x="213.333" y="616.667" type="line"/>
      <point x="280" y="616.667" type="line" smooth="yes"/>
      <point x="374" y="616.667"/>
      <point x="416.667" y="573.667"/>
      <point x="416.667" y="466.667" type="curve" smooth="yes"/>
      <point x="416.667" y="359.667"/>
      <point x="374" y="316.667"/>
      <point x="280" y="316.667" type="curve" smooth="yes"/>
      <point x="213.333" y="316.667" type="line"/>
    </contour>
  </outline>
</glyph>
<glyph name="Q" format="2">
  <advance width="620"/>
  <unicode hex="0051"/>
  <outline>
    <contour>
      <point x="418.333" y="-161.667" type="curve" smooth="yes"/>
      <point x="441.667" y="-161.667"/>
      <point x="460" y="-157.333"/>
      <point x="475" y="-152.667" type="curve"/>
      <point x="483" y="-149.667"/>
      <point x="490.333" y="-147"/>
      <point x="496.667" y="-143.333" type="curve"/>
      <point x="472.667" y="-68.3333" type="line"/>
      <point x="462.667" y="-68.3333" type="line"/>
      <point x="460.035" y="-69.9824"/>
      <point x="456.554" y="-72.3897"/>
      <point x="454" y="-73.3333" type="curve"/>
      <point x="448.333" y="-76.3333"/>
      <point x="439.667" y="-78.3333"/>
      <point x="428.333" y="-78.3333" type="curve" smooth="yes"/>
      <point x="398.333" y="-78.3333"/>
      <point x="373.333" y="-54.3333"/>
      <point x="373.333" y="-1.66667" type="curve"/>
      <point x="491.667" y="24"/>
      <point x="568.333" y="130.333"/>
      <point x="568.333" y="350" type="curve" smooth="yes"/>
      <point x="568.333" y="606.667"/>
      <point x="465" y="710"/>
      <point x="310" y="710" type="curve" smooth="yes"/>
      <point x="155" y="710"/>
      <point x="51.6667" y="606.667"/>
      <point x="51.6667" y="350" type="curve" smooth="yes"/>
      <point x="51.6667" y="130.333"/>
      <point x="128.333" y="24"/>
      <point x="246.667" y="-1.66667" type="curve"/>
      <point x="246.667" y="-95.3333"/>
      <point x="314.333" y="-161.667"/>
    </contour>
    <contour>
      <point x="310" y="73.3333" type="curve" smooth="yes"/>
      <point x="241.667" y="73.3333"/>
      <point x="178.333" y="136"/>
      <point x="178.333" y="350" type="curve" smooth="yes"/>
      <point x="178.333" y="564"/>
      <point x="241.667" y="626.667"/>
      <point x="310" y="626.667" type="curve" smooth="yes"/>
      <point x="378.333" y="626.667"/>
      <point x="441.667" y="564"/>
      <point x="441.667" y="350" type="curve" smooth="yes"/>
      <point x="441.667" y="136"/>
      <point x="378.333" y="73.3333"/>
    </contour>
  </outline>
</glyph>
<glyph name="S" format="2">
  <advance width="525"/>
  <unicode hex="0053"/>
  <outline>
    <contour>
      <point x="246.667" y="-10" type="curve" smooth="yes"/>
      <point x="405.667" y="-10"/>
      <point x="490" y="73.3333"/>
      <point x="490" y="190" type="curve" smooth="yes"/>
      <point x="490" y="413.333"/>
      <point x="168.333" y="384"/>
      <point x="168.333" y="530" type="curve" smooth="yes"/>
      <point x="168.333" y="579.667"/>
      <point x="215.333" y="626.667"/>
      <point x="278.333" y="626.667" type="curve" smooth="yes"/>
      <point x="324.667" y="626.667"/>
      <point x="360.333" y="614.667"/>
      <point x="383.667" y="603.667" type="curve"/>
      <point x="397" y="596.667"/>
      <point x="409" y="589.667"/>
      <point x="418.333" y="581.667" type="curve"/>
      <point x="428.333" y="581.667" type="line"/>
      <point x="470" y="655" type="line"/>
      <point x="455.333" y="665"/>
      <point x="438.667" y="674"/>
      <point x="419" y="682" type="curve" smooth="yes"/>
      <point x="384.667" y="697"/>
      <point x="335.333" y="710"/>
      <point x="268.333" y="710" type="curve" smooth="yes"/>
      <point x="124.667" y="710"/>
      <point x="41.6667" y="626.667"/>
      <point x="41.6667" y="520" type="curve" smooth="yes"/>
      <point x="41.6667" y="296.667"/>
      <point x="363.333" y="326"/>
      <point x="363.333" y="180" type="curve" smooth="yes"/>
      <point x="363.333" y="116.333"/>
      <point x="320.333" y="73.3333"/>
      <point x="236.667" y="73.3333" type="curve" smooth="yes"/>
      <point x="186.333" y="73.3333"/>
      <point x="149.333" y="84.3333"/>
      <point x="124.333" y="95.3333" type="curve"/>
      <point x="110" y="102.333"/>
      <point x="97.3333" y="109.333"/>
      <point x="86.6667" y="118.333" type="curve"/>
      <point x="76.6667" y="118.333" type="line"/>
      <point x="35" y="45" type="line"/>
      <point x="49.3333" y="34"/>
      <point x="67.3333" y="25"/>
      <point x="88.3333" y="17" type="curve"/>
      <point x="124" y="2"/>
      <point x="176.333" y="-10"/>
    </contour>
  </outline>
</glyph>
<glyph name="U" format="2">
  <advance width="633"/>
  <unicode hex="0055"/>
  <outline>
    <contour>
      <point x="316.667" y="-10" type="curve" smooth="yes"/>
      <point x="469" y="-10"/>
      <point x="555" y="75.6667"/>
      <point x="555" y="226.667" type="curve" smooth="yes"/>
      <point x="555" y="700" type="line"/>
      <point x="428.333" y="700" type="line"/>
      <point x="428.333" y="226.667" type="line" smooth="yes"/>
      <point x="428.333" y="119.667"/>
      <point x="382" y="73.3333"/>
      <point x="316.667" y="73.3333" type="curve" smooth="yes"/>
      <point x="251.333" y="73.3333"/>
      <point x="205" y="119.667"/>
      <point x="205" y="226.667" type="curve" smooth="yes"/>
      <point x="205" y="700" type="line"/>
      <point x="78.3333" y="700" type="line"/>
      <point x="78.3333" y="226.667" type="line" smooth="yes"/>
      <point x="78.3333" y="75.6667"/>
      <point x="164.333" y="-10"/>
    </contour>
  </outline>
</glyph>
<glyph name="V" format="2">
  <advance width="568"/>
  <unicode hex="0056"/>
  <outline>
    <contour>
      <point x="342.333" y="0" type="line"/>
      <point x="540.667" y="700" type="line"/>
      <point x="431.667" y="700" type="line"/>
      <point x="300" y="218.333" type="line" smooth="yes"/>
      <point x="295.333" y="202.667"/>
      <point x="293" y="184.667"/>
      <point x="290" y="169.667" type="curve"/>
      <point x="287" y="145" type="line"/>
      <point x="283" y="145" type="line"/>
      <point x="279" y="170.333" type="line"/>
      <point x="276" y="185.333"/>
      <point x="274" y="202.667"/>
      <point x="270" y="218.333" type="curve" smooth="yes"/>
      <point x="138.333" y="700" type="line"/>
      <point x="23" y="700" type="line"/>
      <point x="221.333" y="0" type="line"/>
    </contour>
  </outline>
</glyph>
<glyph name="W" format="2">
  <advance width="863"/>
  <unicode hex="0057"/>
  <outline>
    <contour>
      <point x="310" y="0" type="line"/>
      <point x="418.333" y="453.333" type="line" smooth="yes"/>
      <point x="420.77" y="463.809"/>
      <point x="424.206" y="487.057"/>
      <point x="425.333" y="498.333" type="curve" smooth="yes"/>
      <point x="428" y="523.333" type="line"/>
      <point x="432" y="523.333" type="line"/>
      <point x="434.667" y="498.333" type="line" smooth="yes"/>
      <point x="436.333" y="484.333"/>
      <point x="438.333" y="466.333"/>
      <point x="441.667" y="453.333" type="curve" smooth="yes"/>
      <point x="550" y="0" type="line"/>
      <point x="667.667" y="0" type="line"/>
      <point x="836" y="700" type="line"/>
      <point x="722" y="700" type="line"/>
      <point x="617" y="243.333" type="line" smooth="yes"/>
      <point x="613.667" y="229.667"/>
      <point x="612.333" y="214.333"/>
      <point x="610.333" y="200.333" type="curve" smooth="yes"/>
      <point x="609.456" y="195.119"/>
      <point x="608.562" y="182.402"/>
      <point x="608.333" y="176.667" type="curve"/>
      <point x="604.333" y="176.667" type="line"/>
      <point x="602" y="200.333" type="line" smooth="yes"/>
      <point x="600.333" y="214.333"/>
      <point x="598.333" y="229.667"/>
      <point x="595.333" y="243.333" type="curve" smooth="yes"/>
      <point x="483" y="700" type="line"/>
      <point x="385.333" y="700" type="line"/>
      <point x="273" y="243.333" type="line" smooth="yes"/>
      <point x="269.667" y="229.667"/>
      <point x="268" y="214.333"/>
      <point x="266.333" y="200.333" type="curve" smooth="yes"/>
      <point x="264" y="176.667" type="line"/>
      <point x="260" y="176.667" type="line"/>
      <point x="259.771" y="182.407"/>
      <point x="258.541" y="195.154"/>
      <point x="258" y="200.333" type="curve" smooth="yes"/>
      <point x="256.667" y="214.333"/>
      <point x="254.333" y="229.667"/>
      <point x="251.333" y="243.333" type="curve" smooth="yes"/>
      <point x="146.333" y="700" type="line"/>
      <point x="23" y="700" type="line"/>
      <point x="191.333" y="0" type="line"/>
    </contour>
  </outline>
</glyph>
<glyph name="Y" format="2">
  <advance width="557"/>
  <unicode hex="0059"/>
  <outline>
    <contour>
      <point x="341.667" y="0" type="line"/>
      <point x="341.667" y="230" type="line"/>
      <point x="556.667" y="700" type="line"/>
      <point x="435.333" y="700" type="line"/>
      <point x="300.667" y="378.333" type="line" smooth="yes"/>
      <point x="295.667" y="366.667"/>
      <point x="292.667" y="355.333"/>
      <point x="289.667" y="345.333" type="curve"/>
      <point x="288.663" y="341.316"/>
      <point x="286.661" y="332.303"/>
      <point x="286" y="328.333" type="curve"/>
      <point x="282" y="328.333" type="line"/>
      <point x="281.339" y="332.303"/>
      <point x="279.337" y="341.316"/>
      <point x="278.333" y="345.333" type="curve"/>
      <point x="276.331" y="352.34"/>
      <point x="270.129" y="370.614"/>
      <point x="267.333" y="378.333" type="curve"/>
      <point x="131.667" y="700" type="line"/>
      <point x="0" y="700" type="line"/>
      <point x="215" y="230" type="line"/>
      <point x="215" y="0" type="line"/>
    </contour>
  </outline>
</glyph>
<glyph name="underscore" format="2">
  <advance width="387"/>
  <unicode hex="005F"/>
  <outline>
    <contour>
      <point x="386.667" y="-136.667" type="line"/>
      <point x="386.667" y="-43.3333" type="line"/>
      <point x="0" y="-43.3333" type="line"/>
      <point x="0" y="-136.667" type="line"/>
    </contour>
  </outline>
</glyph>
<glyph name="grave" format="2">
  <advance width="192"/>
  <unicode hex="0060"/>
  <outline>
    <contour>
      <point x="181.667" y="550" type="line"/>
      <point x="136.667" y="700" type="line"/>
      <point x="10" y="700" type="line"/>
      <point x="106.667" y="550" type="line"/>
    </contour>
  </outline>
</glyph>
<glyph name="b" format="2">
  <advance width="552"/>
  <unicode hex="0062"/>
  <outline>
    <contour>
      <point x="315" y="-10" type="curve" smooth="yes"/>
      <point x="423.333" y="-10"/>
      <point x="508.333" y="75"/>
      <point x="508.333" y="250" type="curve" smooth="yes"/>
      <point x="508.333" y="425"/>
      <point x="423.333" y="510"/>
      <point x="301.667" y="510" type="curve" smooth="yes"/>
      <point x="270.667" y="510"/>
      <point x="245" y="502"/>
      <point x="227" y="495" type="curve"/>
      <point x="215.667" y="490"/>
      <point x="206" y="485"/>
      <point x="198.333" y="480" type="curve"/>
      <point x="198.333" y="700" type="line"/>
      <point x="108.333" y="700" type="line"/>
      <point x="71.6667" y="663.333" type="line"/>
      <point x="71.6667" y="0" type="line"/>
      <point x="161.667" y="0" type="line"/>
      <point x="171.667" y="60" type="line"/>
      <point x="176.667" y="60" type="line"/>
      <point x="185.667" y="47"/>
      <point x="197.667" y="35"/>
      <point x="211" y="25" type="curve"/>
      <point x="234.333" y="6"/>
      <point x="268" y="-10"/>
    </contour>
    <contour>
      <point x="290" y="78.3333" type="curve" smooth="yes"/>
      <point x="261" y="78.3333"/>
      <point x="239.333" y="93.3333"/>
      <point x="223" y="108.333" type="curve"/>
      <point x="214" y="117.333"/>
      <point x="206" y="127.333"/>
      <point x="198.333" y="138.333" type="curve"/>
      <point x="198.333" y="400" type="line"/>
      <point x="203.172" y="402.884"/>
      <point x="215.465" y="410.523"/>
      <point x="221.333" y="413.333" type="curve"/>
      <point x="235.667" y="419.667"/>
      <point x="255.333" y="426.667"/>
      <point x="280" y="426.667" type="curve" smooth="yes"/>
      <point x="338" y="426.667"/>
      <point x="381.667" y="383.333"/>
      <point x="381.667" y="250" type="curve" smooth="yes"/>
      <point x="381.667" y="121.667"/>
      <point x="338.667" y="78.3333"/>
    </contour>
  </outline>
</glyph>
<glyph name="g" format="2">
  <advance width="552"/>
  <unicode hex="0067"/>
  <outline>
    <contour>
      <point x="251.667" y="-210" type="curve" smooth="yes"/>
      <point x="396.667" y="-210"/>
      <point x="480" y="-126.667"/>
      <point x="480" y="-10" type="curve" smooth="yes"/>
      <point x="480" y="500" type="line"/>
      <point x="390" y="500" type="line"/>
      <point x="380" y="440" type="line"/>
      <point x="375" y="440" type="line"/>
      <point x="365.333" y="453"/>
      <point x="354" y="464"/>
      <point x="340.667" y="475" type="curve"/>
      <point x="317.333" y="492"/>
      <point x="283.667" y="510"/>
      <point x="236.667" y="510" type="curve" smooth="yes"/>
      <point x="128.333" y="510"/>
      <point x="43.3333" y="425"/>
      <point x="43.3333" y="250" type="curve" smooth="yes"/>
      <point x="43.3333" y="75"/>
      <point x="128.333" y="-10"/>
      <point x="250" y="-10" type="curve" smooth="yes"/>
      <point x="281" y="-10"/>
      <point x="304.333" y="-3"/>
      <point x="323.667" y="5" type="curve"/>
      <point x="334.333" y="9"/>
      <point x="344" y="14"/>
      <point x="353.333" y="20" type="curve"/>
      <point x="353.333" y="-10" type="line" smooth="yes"/>
      <point x="353.333" y="-87.6667"/>
      <point x="313.333" y="-126.667"/>
      <point x="241.667" y="-126.667" type="curve" smooth="yes"/>
      <point x="208" y="-126.667"/>
      <point x="181" y="-117"/>
      <point x="161.667" y="-106" type="curve" smooth="yes"/>
      <point x="150.333" y="-99.6667"/>
      <point x="140" y="-92.6667"/>
      <point x="131.667" y="-85" type="curve"/>
      <point x="121.667" y="-85" type="line"/>
      <point x="80" y="-158.333" type="line"/>
      <point x="93.6667" y="-168"/>
      <point x="109.333" y="-177"/>
      <point x="127" y="-184.333" type="curve"/>
      <point x="157.333" y="-198"/>
      <point x="199.333" y="-210"/>
    </contour>
    <contour>
      <point x="271.667" y="73.3333" type="curve" smooth="yes"/>
      <point x="213.667" y="73.3333"/>
      <point x="170" y="116.667"/>
      <point x="170" y="250" type="curve" smooth="yes"/>
      <point x="170" y="378.333"/>
      <point x="213" y="421.667"/>
      <point x="261.667" y="421.667" type="curve" smooth="yes"/>
      <point x="290" y="421.667"/>
      <point x="312.333" y="406.667"/>
      <point x="328.667" y="391.667" type="curve"/>
      <point x="337.667" y="382.667"/>
      <point x="345.667" y="372.667"/>
      <point x="353.333" y="361.667" type="curve"/>
      <point x="353.333" y="100" type="line"/>
      <point x="346" y="94.6667"/>
      <point x="338.333" y="90.3333"/>
      <point x="330.333" y="86.6667" type="curve" smooth="yes"/>
      <point x="316" y="79.6667"/>
      <point x="296" y="73.3333"/>
    </contour>
  </outline>
</glyph>
<glyph name="j" format="2">
  <advance width="283"/>
  <unicode hex="006A"/>
  <outline>
    <contour>
      <point x="26.6667" y="-200" type="curve" smooth="yes"/>
      <point x="143.333" y="-200"/>
      <point x="211.667" y="-132"/>
      <point x="211.667" y="-33.3333" type="curve" smooth="yes"/>
      <point x="211.667" y="500" type="line"/>
      <point x="85" y="500" type="line"/>
      <point x="85" y="-33.3333" type="line" smooth="yes"/>
      <point x="85" y="-90.6667"/>
      <point x="58.3333" y="-116.667"/>
      <point x="16.6667" y="-116.667" type="curve" smooth="yes"/>
      <point x="1.66667" y="-116.667"/>
      <point x="-11.3333" y="-111.667"/>
      <point x="-22.3333" y="-104.667" type="curve"/>
      <point x="-28.3333" y="-101.667"/>
      <point x="-33.3333" y="-96.6667"/>
      <point x="-38.3333" y="-91.6667" type="curve"/>
      <point x="-48.3333" y="-91.6667" type="line"/>
      <point x="-80" y="-170" type="line"/>
      <point x="-71.6667" y="-176"/>
      <point x="-61.3333" y="-181"/>
      <point x="-49.6667" y="-185" type="curve"/>
      <point x="-30.6667" y="-193"/>
      <point x="-4.33333" y="-200"/>
    </contour>
    <contour>
      <point x="148.333" y="570" type="curve" smooth="yes"/>
      <point x="186.667" y="570"/>
      <point x="218.333" y="601.667"/>
      <point x="218.333" y="640" type="curve" smooth="yes"/>
      <point x="218.333" y="678.333"/>
      <point x="186.667" y="710"/>
      <point x="148.333" y="710" type="curve" smooth="yes"/>
      <point x="110" y="710"/>
      <point x="78.3333" y="678.333"/>
      <point x="78.3333" y="640" type="curve" smooth="yes"/>
      <point x="78.3333" y="601.667"/>
      <point x="110" y="570"/>
    </contour>
  </outline>
</glyph>
<glyph name="o" format="2">
  <advance width="537"/>
  <unicode hex="006F"/>
  <outline>
    <contour>
      <point x="268.333" y="-10" type="curve" smooth="yes"/>
      <point x="408.333" y="-10"/>
      <point x="493.333" y="74.3333"/>
      <point x="493.333" y="250" type="curve" smooth="yes"/>
      <point x="493.333" y="425.667"/>
      <point x="408.333" y="510"/>
      <point x="268.333" y="510" type="curve" smooth="yes"/>
      <point x="128" y="510"/>
      <point x="43.3333" y="425.667"/>
      <point x="43.3333" y="250" type="curve" smooth="yes"/>
      <point x="43.3333" y="74.3333"/>
      <point x="128" y="-10"/>
    </contour>
    <contour>
      <point x="268.333" y="73.3333" type="curve" smooth="yes"/>
      <point x="213" y="73.3333"/>
      <point x="170" y="116.667"/>
      <point x="170" y="250" type="curve" smooth="yes"/>
      <point x="170" y="383.333"/>
      <point x="213" y="426.667"/>
      <point x="268.333" y="426.667" type="curve" smooth="yes"/>
      <point x="323.667" y="426.667"/>
      <point x="366.667" y="383.333"/>
      <point x="366.667" y="250" type="curve" smooth="yes"/>
      <point x="366.667" y="116.667"/>
      <point x="323.667" y="73.3333"/>
    </contour>
  </outline>
</glyph>
<glyph name="p" format="2">
  <advance width="552"/>
  <unicode hex="0070"/>
  <outline>
    <contour>
      <point x="161.667" y="-200" type="line"/>
      <point x="198.333" y="-163.333" type="line"/>
      <point x="198.333" y="20" type="line"/>
      <point x="206" y="14"/>
      <point x="215.667" y="9"/>
      <point x="227" y="5" type="curve"/>
      <point x="245" y="-3"/>
      <point x="270.667" y="-10"/>
      <point x="301.667" y="-10" type="curve" smooth="yes"/>
      <point x="423.333" y="-10"/>
      <point x="508.333" y="75"/>
      <point x="508.333" y="250" type="curve" smooth="yes"/>
      <point x="508.333" y="425"/>
      <point x="423.333" y="510"/>
      <point x="315" y="510" type="curve" smooth="yes"/>
      <point x="268" y="510"/>
      <point x="234.333" y="492"/>
      <point x="211" y="475" type="curve"/>
      <point x="197.667" y="464"/>
      <point x="185.667" y="453"/>
      <point x="176.667" y="440" type="curve"/>
      <point x="171.667" y="440" type="line"/>
      <point x="161.667" y="500" type="line"/>
      <point x="71.6667" y="500" type="line"/>
      <point x="71.6667" y="-200" type="line"/>
    </contour>
    <contour>
      <point x="280" y="73.3333" type="curve" smooth="yes"/>
      <point x="255.333" y="73.3333"/>
      <point x="235.667" y="79.6667"/>
      <point x="221.333" y="86.6667" type="curve" smooth="yes"/>
      <point x="213.333" y="90.3333"/>
      <point x="205.667" y="94.6667"/>
      <point x="198.333" y="100" type="curve"/>
      <point x="198.333" y="361.667" type="line"/>
      <point x="206" y="372.667"/>
      <point x="214" y="382.667"/>
      <point x="223" y="391.667" type="curve"/>
      <point x="239.333" y="406.667"/>
      <point x="261" y="421.667"/>
      <point x="290" y="421.667" type="curve" smooth="yes"/>
      <point x="338.667" y="421.667"/>
      <point x="381.667" y="378.333"/>
      <point x="381.667" y="250" type="curve" smooth="yes"/>
      <point x="381.667" y="116.667"/>
      <point x="338" y="73.3333"/>
    </contour>
  </outline>
</glyph>
<glyph name="q" format="2">
  <advance width="552"/>
  <unicode hex="0071"/>
  <outline>
    <contour>
      <point x="480" y="-200" type="line"/>
      <point x="480" y="500" type="line"/>
      <point x="390" y="500" type="line"/>
      <point x="380" y="440" type="line"/>
      <point x="375" y="440" type="line"/>
      <point x="365.333" y="453"/>
      <point x="354" y="464"/>
      <point x="340.667" y="475" type="curve"/>
      <point x="317.333" y="492"/>
      <point x="283.667" y="510"/>
      <point x="236.667" y="510" type="curve" smooth="yes"/>
      <point x="128.333" y="510"/>
      <point x="43.3333" y="425"/>
      <point x="43.3333" y="250" type="curve" smooth="yes"/>
      <point x="43.3333" y="75"/>
      <point x="128.333" y="-10"/>
      <point x="250" y="-10" type="curve" smooth="yes"/>
      <point x="281" y="-10"/>
      <point x="304.333" y="-3"/>
      <point x="323.667" y="5" type="curve"/>
      <point x="334.333" y="9"/>
      <point x="344" y="14"/>
      <point x="353.333" y="20" type="curve"/>
      <point x="353.333" y="-163.333" type="line"/>
      <point x="390" y="-200" type="line"/>
    </contour>
    <contour>
      <point x="271.667" y="73.3333" type="curve" smooth="yes"/>
      <point x="213.667" y="73.3333"/>
      <point x="170" y="116.667"/>
      <point x="170" y="250" type="curve" smooth="yes"/>
      <point x="170" y="378.333"/>
      <point x="213" y="421.667"/>
      <point x="261.667" y="421.667" type="curve" smooth="yes"/>
      <point x="290" y="421.667"/>
      <point x="312.333" y="406.667"/>
      <point x="328.667" y="391.667" type="curve"/>
      <point x="337.667" y="382.667"/>
      <point x="345.667" y="372.667"/>
      <point x="353.333" y="361.667" type="curve"/>
      <point x="353.333" y="100" type="line"/>
      <point x="346" y="94.6667"/>
      <point x="338.333" y="90.3333"/>
      <point x="330.333" y="86.6667" type="curve" smooth="yes"/>
      <point x="316" y="79.6667"/>
      <point x="296" y="73.3333"/>
    </contour>
  </outline>
</glyph>
<glyph name="w" format="2">
  <advance width="717"/>
  <unicode hex="0077"/>
  <outline>
    <contour>
      <point x="259.667" y="0" type="line"/>
      <point x="341.333" y="301.667" type="line" smooth="yes"/>
      <point x="344.333" y="313"/>
      <point x="347" y="327.333"/>
      <point x="348.333" y="339.667" type="curve" smooth="yes"/>
      <point x="351" y="361.667" type="line"/>
      <point x="355" y="361.667" type="line"/>
      <point x="357.667" y="339.667" type="line" smooth="yes"/>
      <point x="359" y="327.333"/>
      <point x="361.333" y="313"/>
      <point x="364.667" y="301.667" type="curve" smooth="yes"/>
      <point x="446.333" y="0" type="line"/>
      <point x="562.333" y="0" type="line"/>
      <point x="695.667" y="500" type="line"/>
      <point x="577.333" y="500" type="line"/>
      <point x="504" y="215" type="line" smooth="yes"/>
      <point x="500.667" y="202.333"/>
      <point x="498.667" y="188.667"/>
      <point x="497.333" y="177" type="curve" smooth="yes"/>
      <point x="496.777" y="172.434"/>
      <point x="495.554" y="161.21"/>
      <point x="495.333" y="156.667" type="curve"/>
      <point x="491.333" y="156.667" type="line"/>
      <point x="489" y="177" type="line"/>
      <point x="487.333" y="188.333"/>
      <point x="485.667" y="202.667"/>
      <point x="482.333" y="215" type="curve" smooth="yes"/>
      <point x="405" y="500" type="line"/>
      <point x="307.667" y="500" type="line"/>
      <point x="228.333" y="215" type="line" smooth="yes"/>
      <point x="225" y="202.667"/>
      <point x="223" y="188.333"/>
      <point x="221.333" y="177" type="curve" smooth="yes"/>
      <point x="220.777" y="172.434"/>
      <point x="219.554" y="161.21"/>
      <point x="219.333" y="156.667" type="curve"/>
      <point x="215.333" y="156.667" type="line"/>
      <point x="213.333" y="177" type="line"/>
      <point x="211.667" y="188.333"/>
      <point x="210" y="202.667"/>
      <point x="206.667" y="215" type="curve" smooth="yes"/>
      <point x="133.333" y="500" type="line"/>
      <point x="15" y="500" type="line"/>
      <point x="148.333" y="0" type="line"/>
    </contour>
  </outline>
</glyph>
<glyph name="x" format="2">
  <advance width="480"/>
  <unicode hex="0078"/>
  <outline>
    <contour>
      <point x="145" y="0" type="line"/>
      <point x="223.333" y="138.333" type="line"/>
      <point x="228.333" y="148.667"/>
      <point x="232.667" y="157.333"/>
      <point x="235" y="165" type="curve" smooth="yes"/>
      <point x="236.333" y="169.333"/>
      <point x="237.667" y="173.333"/>
      <point x="238" y="178.333" type="curve"/>
      <point x="242" y="178.333" type="line"/>
      <point x="242.333" y="173.333"/>
      <point x="243.667" y="169.333"/>
      <point x="245" y="165" type="curve"/>
      <point x="248" y="156.667"/>
      <point x="250.333" y="148.667"/>
      <point x="256.667" y="138.333" type="curve"/>
      <point x="335" y="0" type="line"/>
      <point x="468.333" y="0" type="line"/>
      <point x="316.667" y="255" type="line"/>
      <point x="463.333" y="500" type="line"/>
      <point x="330" y="500" type="line"/>
      <point x="256.667" y="366.667" type="line"/>
      <point x="250.333" y="356.667"/>
      <point x="248.333" y="346.667"/>
      <point x="245.333" y="339.333" type="curve"/>
      <point x="244.249" y="335.024"/>
      <point x="242.246" y="329.241"/>
      <point x="242" y="326.667" type="curve"/>
      <point x="238" y="326.667" type="line"/>
      <point x="237.754" y="329.241"/>
      <point x="235.751" y="335.024"/>
      <point x="234.667" y="339.333" type="curve"/>
      <point x="231.667" y="346.667"/>
      <point x="228" y="356.667"/>
      <point x="223.333" y="366.667" type="curve"/>
      <point x="150" y="500" type="line"/>
      <point x="16.6667" y="500" type="line"/>
      <point x="163.333" y="255" type="line"/>
      <point x="11.6667" y="0" type="line"/>
    </contour>
  </outline>
</glyph>
<glyph name="z" format="2">
  <advance width="460"/>
  <unicode hex="007A"/>
  <outline>
    <contour>
      <point x="425" y="0" type="line"/>
      <point x="425" y="83.3333" type="line"/>
      <point x="165" y="83.3333" type="line"/>
      <point x="420" y="411.667" type="line"/>
      <point x="420" y="500" type="line"/>
      <point x="35" y="500" type="line"/>
      <point x="35" y="416.667" type="line"/>
      <point x="283.333" y="416.667" type="line"/>
      <point x="35" y="88.3333" type="line"/>
      <point x="35" y="0" type="line"/>
    </contour>
  </outline>
</glyph>
<glyph name="bar" format="2">
  <advance width="300"/>
  <unicode hex="007C"/>
  <outline>
    <contour>
      <point x="213.333" y="-200" type="line"/>
      <point x="213.333" y="700" type="line"/>
      <point x="86.6667" y="700" type="line"/>
      <point x="86.6667" y="-200" type="line"/>
    </contour>
  </outline>
</glyph>
<glyph name="asciitilde" format="2">
  <advance width="495"/>
  <unicode hex="007E"/>
  <outline>
    <contour>
      <point x="339.333" y="231.667" type="curve" smooth="yes"/>
      <point x="402.667" y="231.667"/>
      <point x="454.333" y="287.667"/>
      <point x="473.667" y="340" type="curve"/>
      <point x="404.667" y="400" type="line"/>
      <point x="395.667" y="400" type="line"/>
      <point x="395.667" y="400"/>
      <point x="368.667" y="341.667"/>
      <point x="326" y="341.667" type="curve" smooth="yes"/>
      <point x="268.333" y="341.667"/>
      <point x="243.667" y="410"/>
      <point x="156" y="410" type="curve" smooth="yes"/>
      <point x="93.3333" y="410"/>
      <point x="39.6667" y="354"/>
      <point x="21.6667" y="301.667" type="curve"/>
      <point x="90.6667" y="241.667" type="line"/>
      <point x="99.6667" y="241.667" type="line"/>
      <point x="99.6667" y="241.667"/>
      <point x="126.667" y="300"/>
      <point x="169.333" y="300" type="curve" smooth="yes"/>
      <point x="226.667" y="300"/>
      <point x="252" y="231.667"/>
    </contour>
  </outline>
</glyph>
<glyph name="cent" format="2">
  <advance width="468"/>
  <unicode hex="00A2"/>
  <outline>
    <contour>
      <point x="326.667" y="-70" type="line"/>
      <point x="326.667" y="-6.33333" type="line"/>
      <point x="363" y="-1.33333"/>
      <point x="392.667" y="10.3333"/>
      <point x="414.333" y="21.6667" type="curve" smooth="yes"/>
      <point x="426.667" y="28"/>
      <point x="437.667" y="34.6667"/>
      <point x="448.333" y="41.6667" type="curve"/>
      <point x="406.667" y="115" type="line"/>
      <point x="396.667" y="115" type="line"/>
      <point x="388" y="107.333"/>
      <point x="378.333" y="100.333"/>
      <point x="367" y="94" type="curve" smooth="yes"/>
      <point x="347.667" y="83"/>
      <point x="321.667" y="73.3333"/>
      <point x="290" y="73.3333" type="curve" smooth="yes"/>
      <point x="213.333" y="73.3333"/>
      <point x="170" y="116.667"/>
      <point x="170" y="250" type="curve" smooth="yes"/>
      <point x="170" y="383.333"/>
      <point x="214.333" y="426.667"/>
      <point x="280" y="426.667" type="curve" smooth="yes"/>
      <point x="311.667" y="426.667"/>
      <point x="337.667" y="416.667"/>
      <point x="357" y="405.667" type="curve" smooth="yes"/>
      <point x="368.333" y="399.333"/>
      <point x="378" y="392.333"/>
      <point x="386.667" y="385" type="curve"/>
      <point x="396.667" y="385" type="line"/>
      <point x="438.333" y="458.333" type="line"/>
      <point x="429.333" y="464.667"/>
      <point x="418.667" y="470.667"/>
      <point x="407.333" y="476.333" type="curve" smooth="yes"/>
      <point x="388" y="486"/>
      <point x="359.667" y="497.333"/>
      <point x="326.667" y="505" type="curve"/>
      <point x="326.667" y="560" type="line"/>
      <point x="206.667" y="560" type="line"/>
      <point x="206.667" y="501.667" type="line"/>
      <point x="104.333" y="478"/>
      <point x="43.3333" y="397"/>
      <point x="43.3333" y="250" type="curve" smooth="yes"/>
      <point x="43.3333" y="103.667"/>
      <point x="99.3333" y="23.3333"/>
      <point x="206.667" y="-1" type="curve"/>
      <point x="206.667" y="-70" type="line"/>
    </contour>
  </outline>
</glyph>
<glyph name="sterling" format="2">
  <advance width="495"/>
  <unicode hex="00A3"/>
  <outline>
    <contour>
      <point x="485" y="0" type="line"/>
      <point x="485" y="83.3333" type="line"/>
      <point x="160" y="83.3333" type="line"/>
      <point x="173" y="91.6667"/>
      <point x="185.333" y="103"/>
      <point x="196.333" y="117.333" type="curve" smooth="yes"/>
      <point x="214.667" y="142.333"/>
      <point x="233.333" y="180.667"/>
      <point x="233.333" y="243.333" type="curve" smooth="yes"/>
      <point x="233.333" y="323.333" type="line"/>
      <point x="361.667" y="323.333" type="line"/>
      <point x="361.667" y="406.667" type="line"/>
      <point x="233.333" y="406.667" type="line"/>
      <point x="233.333" y="540" type="line" smooth="yes"/>
      <point x="233.333" y="594"/>
      <point x="263.333" y="626.667"/>
      <point x="305" y="626.667" type="curve" smooth="yes"/>
      <point x="338" y="626.667"/>
      <point x="365.667" y="614.667"/>
      <point x="384.667" y="603.667" type="curve"/>
      <point x="395.667" y="596.667"/>
      <point x="406.333" y="589.667"/>
      <point x="415" y="581.667" type="curve"/>
      <point x="425" y="581.667" type="line"/>
      <point x="466.667" y="655" type="line"/>
      <point x="453.667" y="665"/>
      <point x="438.333" y="674"/>
      <point x="421" y="682" type="curve"/>
      <point x="391" y="697"/>
      <point x="348.333" y="710"/>
      <point x="295" y="710" type="curve" smooth="yes"/>
      <point x="181.667" y="710"/>
      <point x="106.667" y="636"/>
      <point x="106.667" y="540" type="curve" smooth="yes"/>
      <point x="106.667" y="406.667" type="line"/>
      <point x="48.3333" y="406.667" type="line"/>
      <point x="48.3333" y="323.333" type="line"/>
      <point x="106.667" y="323.333" type="line"/>
      <point x="106.667" y="243.333" type="line" smooth="yes"/>
      <point x="106.667" y="179.333"/>
      <point x="87.6667" y="140.333"/>
      <point x="68.6667" y="116" type="curve" smooth="yes"/>
      <point x="57.6667" y="101.667"/>
      <point x="44.6667" y="91"/>
      <point x="31.6667" y="83.3333" type="curve"/>
      <point x="31.6667" y="0" type="line"/>
    </contour>
  </outline>
</glyph>
<glyph name="currency" format="2">
  <advance width="592"/>
  <unicode hex="00A4"/>
  <outline>
    <contour>
      <point x="220" y="0" type="line"/>
      <point x="220" y="160" type="line"/>
      <point x="463.333" y="160" type="line"/>
      <point x="463.333" y="230" type="line"/>
      <point x="220" y="230" type="line"/>
      <point x="220" y="273.333" type="line"/>
      <point x="286.667" y="273.333" type="line" smooth="yes"/>
      <point x="469.667" y="273.333"/>
      <point x="550" y="353"/>
      <point x="550" y="480" type="curve" smooth="yes"/>
      <point x="550" y="614.333"/>
      <point x="463.667" y="700"/>
      <point x="286.667" y="700" type="curve" smooth="yes"/>
      <point x="93.3333" y="700" type="line"/>
      <point x="93.3333" y="343.333" type="line"/>
      <point x="20" y="343.333" type="line"/>
      <point x="20" y="273.333" type="line"/>
      <point x="93.3333" y="273.333" type="line"/>
      <point x="93.3333" y="230" type="line"/>
      <point x="20" y="230" type="line"/>
      <point x="20" y="160" type="line"/>
      <point x="93.3333" y="160" type="line"/>
      <point x="93.3333" y="0" type="line"/>
    </contour>
    <contour>
      <point x="220" y="616.667" type="line"/>
      <point x="286.667" y="616.667" type="line" smooth="yes"/>
      <point x="378" y="616.667"/>
      <point x="423.333" y="571.333"/>
      <point x="423.333" y="480" type="curve" smooth="yes"/>
      <point x="423.333" y="388.667"/>
      <point x="378" y="343.333"/>
      <point x="286.667" y="343.333" type="curve" smooth="yes"/>
      <point x="220" y="343.333" type="line"/>
    </contour>
  </outline>
</glyph>
<glyph name="yen" format="2">
  <advance width="557"/>
  <unicode hex="00A5"/>
  <outline>
    <contour>
      <point x="341.667" y="0" type="line"/>
      <point x="341.667" y="173.333" type="line"/>
      <point x="485" y="173.333" type="line"/>
      <point x="485" y="253.333" type="line"/>
      <point x="354.667" y="253.333" type="line"/>
      <point x="376.333" y="301.667" type="line"/>
      <point x="485" y="301.667" type="line"/>
      <point x="485" y="381.667" type="line"/>
      <point x="410.333" y="381.667" type="line"/>
      <point x="556.667" y="700" type="line"/>
      <point x="425" y="700" type="line"/>
      <point x="295" y="401.667" type="line"/>
      <point x="289.333" y="390"/>
      <point x="287" y="378.667"/>
      <point x="284" y="368.667" type="curve"/>
      <point x="282.996" y="364.649"/>
      <point x="280.994" y="355.636"/>
      <point x="280.333" y="351.667" type="curve"/>
      <point x="276.333" y="351.667" type="line"/>
      <point x="275.673" y="355.636"/>
      <point x="273.67" y="364.649"/>
      <point x="272.667" y="368.667" type="curve"/>
      <point x="270.664" y="375.674"/>
      <point x="264.462" y="393.947"/>
      <point x="261.667" y="401.667" type="curve"/>
      <point x="131.667" y="700" type="line"/>
      <point x="0" y="700" type="line"/>
      <point x="146.333" y="381.667" type="line"/>
      <point x="71.6667" y="381.667" type="line"/>
      <point x="71.6667" y="301.667" type="line"/>
      <point x="180.333" y="301.667" type="line"/>
      <point x="202" y="253.333" type="line"/>
      <point x="71.6667" y="253.333" type="line"/>
      <point x="71.6667" y="173.333" type="line"/>
      <point x="215" y="173.333" type="line"/>
      <point x="215" y="0" type="line"/>
    </contour>
  </outline>
</glyph>
<glyph name="brokenbar" format="2">
  <advance width="300"/>
  <unicode hex="00A6"/>
  <outline>
    <contour>
      <point x="213.333" y="313.333" type="line"/>
      <point x="213.333" y="700" type="line"/>
      <point x="86.6667" y="700" type="line"/>
      <point x="86.6667" y="313.333" type="line"/>
    </contour>
    <contour>
      <point x="213.333" y="-200" type="line"/>
      <point x="213.333" y="186.667" type="line"/>
      <point x="86.6667" y="186.667" type="line"/>
      <point x="86.6667" y="-200" type="line"/>
    </contour>
  </outline>
</glyph>
<glyph name="section" format="2">
  <advance width="530"/>
  <unicode hex="00A7"/>
  <outline>
    <contour>
      <point x="246.667" y="-210" type="curve" smooth="yes"/>
      <point x="404.333" y="-210"/>
      <point x="478.333" y="-136.333"/>
      <point x="478.333" y="-30" type="curve" smooth="yes"/>
      <point x="478.333" y="24.3333"/>
      <point x="450.333" y="68.3333"/>
      <point x="407.333" y="94" type="curve"/>
      <point x="460.333" y="120.333"/>
      <point x="488.333" y="179"/>
      <point x="488.333" y="240" type="curve" smooth="yes"/>
      <point x="488.333" y="450"/>
      <point x="178.333" y="415.333"/>
      <point x="178.333" y="541.667" type="curve" smooth="yes"/>
      <point x="178.333" y="590.333"/>
      <point x="214.333" y="626.667"/>
      <point x="278.333" y="626.667" type="curve" smooth="yes"/>
      <point x="325.333" y="626.667"/>
      <point x="367.667" y="609"/>
      <point x="405" y="581.667" type="curve"/>
      <point x="415" y="581.667" type="line"/>
      <point x="456.667" y="655" type="line"/>
      <point x="401.667" y="691.333"/>
      <point x="333.667" y="710"/>
      <point x="268.333" y="710" type="curve" smooth="yes"/>
      <point x="124.667" y="710"/>
      <point x="51.6667" y="636"/>
      <point x="51.6667" y="531.667" type="curve" smooth="yes"/>
      <point x="51.6667" y="477"/>
      <point x="79" y="432"/>
      <point x="123.333" y="407" type="curve"/>
      <point x="69" y="378.667"/>
      <point x="41.6667" y="324.333"/>
      <point x="41.6667" y="261.667" type="curve" smooth="yes"/>
      <point x="41.6667" y="51"/>
      <point x="351.667" y="86.6667"/>
      <point x="351.667" y="-40" type="curve" smooth="yes"/>
      <point x="351.667" y="-90"/>
      <point x="315.667" y="-126.667"/>
      <point x="236.667" y="-126.667" type="curve" smooth="yes"/>
      <point x="193.667" y="-126.667"/>
      <point x="143" y="-110.333"/>
      <point x="110" y="-81" type="curve"/>
      <point x="100" y="-81" type="line"/>
      <point x="58.3333" y="-154.333" type="line"/>
      <point x="109.667" y="-192"/>
      <point x="184.667" y="-210"/>
    </contour>
    <contour>
      <point x="308.333" y="150" type="curve"/>
      <point x="246" y="168"/>
      <point x="165" y="203.667"/>
      <point x="165" y="271.667" type="curve" smooth="yes"/>
      <point x="165" y="311.667"/>
      <point x="184" y="342.667"/>
      <point x="223.333" y="355" type="curve"/>
      <point x="283.667" y="337.667"/>
      <point x="366.667" y="298.667"/>
      <point x="366.667" y="233.333" type="curve" smooth="yes"/>
      <point x="366.667" y="194"/>
      <point x="347" y="162.333"/>
    </contour>
  </outline>
</glyph>
<glyph name="logicalnot" format="2">
  <advance width="487"/>
  <unicode hex="00AC"/>
  <outline>
    <contour>
      <point x="453.333" y="233.333" type="line"/>
      <point x="453.333" y="416.667" type="line"/>
      <point x="33.3333" y="416.667" type="line"/>
      <point x="33.3333" y="323.333" type="line"/>
      <point x="350" y="323.333" type="line"/>
      <point x="350" y="233.333" type="line"/>
    </contour>
  </outline>
</glyph>
<glyph name="softhyphen" format="2">
  <advance width="453"/>
  <unicode hex="00AD"/>
  <outline>
    <contour>
      <point x="420" y="283.333" type="line"/>
      <point x="420" y="376.667" type="line"/>
      <point x="33.3333" y="376.667" type="line"/>
      <point x="33.3333" y="283.333" type="line"/>
    </contour>
  </outline>
</glyph>
<glyph name="registered" format="2">
  <advance width="893"/>
  <unicode hex="00AE"/>
  <outline>
    <contour>
      <point x="446.667" y="-36.6667" type="curve" smooth="yes"/>
      <point x="683.333" y="-36.6667"/>
      <point x="853.333" y="132.667"/>
      <point x="853.333" y="350" type="curve" smooth="yes"/>
      <point x="853.333" y="567.333"/>
      <point x="683.333" y="736.667"/>
      <point x="446.667" y="736.667" type="curve" smooth="yes"/>
      <point x="210" y="736.667"/>
      <point x="40" y="567.333"/>
      <point x="40" y="350" type="curve" smooth="yes"/>
      <point x="40" y="132.667"/>
      <point x="210" y="-36.6667"/>
    </contour>
    <contour>
      <point x="446.667" y="46.6667" type="curve" smooth="yes"/>
      <point x="276" y="46.6667"/>
      <point x="150" y="173.333"/>
      <point x="150" y="350" type="curve" smooth="yes"/>
      <point x="150" y="526.667"/>
      <point x="276" y="653.333"/>
      <point x="446.667" y="653.333" type="curve" smooth="yes"/>
      <point x="617.333" y="653.333"/>
      <point x="743.333" y="526.667"/>
      <point x="743.333" y="350" type="curve" smooth="yes"/>
      <point x="743.333" y="173.333"/>
      <point x="617.333" y="46.6667"/>
    </contour>
    <contour>
      <point x="396.667" y="135" type="line"/>
      <point x="396.667" y="278.333" type="line"/>
      <point x="443" y="278.333" type="line"/>
      <point x="523.667" y="135" type="line"/>
      <point x="642" y="135" type="line"/>
      <point x="545.333" y="296.667" type="line"/>
      <point x="589" y="311.667"/>
      <point x="628.667" y="352.667"/>
      <point x="628.667" y="421.667" type="curve" smooth="yes"/>
      <point x="628.667" y="506.667"/>
      <point x="571" y="565"/>
      <point x="442" y="565" type="curve" smooth="yes"/>
      <point x="286.667" y="565" type="line"/>
      <point x="286.667" y="135" type="line"/>
    </contour>
    <contour>
      <point x="396.667" y="490" type="line"/>
      <point x="442" y="490" type="line" smooth="yes"/>
      <point x="497.667" y="490"/>
      <point x="520" y="465.333"/>
      <point x="520" y="421.667" type="curve" smooth="yes"/>
      <point x="520" y="378"/>
      <point x="497.667" y="353.333"/>
      <point x="442" y="353.333" type="curve" smooth="yes"/>
      <point x="396.667" y="353.333" type="line"/>
    </contour>
  </outline>
</glyph>
<glyph name="twosuperior" format="2">
  <advance width="347"/>
  <unicode hex="00B2"/>
  <outline>
    <contour>
      <point x="311.667" y="360" type="line"/>
      <point x="311.667" y="433.333" type="line"/>
      <point x="145" y="433.333" type="line"/>
      <point x="145" y="487.667"/>
      <point x="311.667" y="486.333"/>
      <point x="311.667" y="595" type="curve" smooth="yes"/>
      <point x="311.667" y="660"/>
      <point x="262.333" y="710"/>
      <point x="171.667" y="710" type="curve" smooth="yes"/>
      <point x="131.667" y="710"/>
      <point x="97.6667" y="698"/>
      <point x="74.6667" y="687" type="curve"/>
      <point x="61" y="680"/>
      <point x="48.6667" y="673"/>
      <point x="38.3333" y="665" type="curve"/>
      <point x="71" y="606.667" type="line"/>
      <point x="81" y="606.667" type="line"/>
      <point x="84.8773" y="609.841"/>
      <point x="96.644" y="618.166"/>
      <point x="101.667" y="621.667" type="curve"/>
      <point x="114.333" y="628.667"/>
      <point x="132" y="636.667"/>
      <point x="152.667" y="636.667" type="curve" smooth="yes"/>
      <point x="186" y="636.667"/>
      <point x="201.667" y="620.667"/>
      <point x="201.667" y="595" type="curve" smooth="yes"/>
      <point x="201.667" y="537.333"/>
      <point x="35" y="540.667"/>
      <point x="35" y="413.333" type="curve" smooth="yes"/>
      <point x="35" y="360" type="line"/>
    </contour>
  </outline>
</glyph>
<glyph name="threesuperior" format="2">
  <advance width="348"/>
  <unicode hex="00B3"/>
  <outline>
    <contour>
      <point x="163.333" y="350" type="curve" smooth="yes"/>
      <point x="260.333" y="350"/>
      <point x="312.667" y="403.333"/>
      <point x="312.667" y="460" type="curve" smooth="yes"/>
      <point x="312.667" y="519"/>
      <point x="268" y="563.333"/>
      <point x="190.667" y="566.667" type="curve"/>
      <point x="290.667" y="621.667" type="line"/>
      <point x="290.667" y="700" type="line"/>
      <point x="46" y="700" type="line"/>
      <point x="46" y="626.667" type="line"/>
      <point x="184" y="626.667" type="line"/>
      <point x="74" y="560" type="line"/>
      <point x="74" y="503.333" type="line"/>
      <point x="140" y="503.333" type="line" smooth="yes"/>
      <point x="180.333" y="503.333"/>
      <point x="196" y="487"/>
      <point x="196" y="463.333" type="curve" smooth="yes"/>
      <point x="196" y="439.667"/>
      <point x="179.333" y="423.333"/>
      <point x="145" y="423.333" type="curve" smooth="yes"/>
      <point x="124" y="423.333"/>
      <point x="106.333" y="430.333"/>
      <point x="93.6667" y="438.333" type="curve"/>
      <point x="86.6667" y="442.333"/>
      <point x="79" y="447.333"/>
      <point x="72.6667" y="453.333" type="curve"/>
      <point x="62.6667" y="453.333" type="line"/>
      <point x="30" y="395" type="line"/>
      <point x="40.3333" y="386"/>
      <point x="52.6667" y="379"/>
      <point x="66.3333" y="372" type="curve"/>
      <point x="89.3333" y="361"/>
      <point x="123.333" y="350"/>
    </contour>
  </outline>
</glyph>
<glyph name="acute" format="2">
  <advance width="192"/>
  <unicode hex="00B4"/>
  <outline>
    <contour>
      <point x="85" y="550" type="line"/>
      <point x="181.667" y="700" type="line"/>
      <point x="55" y="700" type="line"/>
      <point x="10" y="550" type="line"/>
    </contour>
  </outline>
</glyph>
<glyph name="ordmasculine" format="2">
  <advance width="410"/>
  <unicode hex="00BA"/>
  <outline>
    <contour>
      <point x="205" y="350" type="curve" smooth="yes"/>
      <point x="303.667" y="350"/>
      <point x="375" y="422"/>
      <point x="375" y="530" type="curve" smooth="yes"/>
      <point x="375" y="638"/>
      <point x="303.667" y="710"/>
      <point x="205" y="710" type="curve" smooth="yes"/>
      <point x="106.333" y="710"/>
      <point x="35" y="638"/>
      <point x="35" y="530" type="curve" smooth="yes"/>
      <point x="35" y="422"/>
      <point x="106.333" y="350"/>
    </contour>
    <contour>
      <point x="205" y="423.333" type="curve" smooth="yes"/>
      <point x="171" y="423.333"/>
      <point x="145" y="449.667"/>
      <point x="145" y="530" type="curve" smooth="yes"/>
      <point x="145" y="609.667"/>
      <point x="171" y="636.667"/>
      <point x="205" y="636.667" type="curve" smooth="yes"/>
      <point x="237.667" y="636.667"/>
      <point x="265" y="609.667"/>
      <point x="265" y="530" type="curve" smooth="yes"/>
      <point x="265" y="449.667"/>
      <point x="237.667" y="423.333"/>
    </contour>
  </outline>
</glyph>
<glyph name="onequarter" format="2">
  <advance width="780"/>
  <unicode hex="00BC"/>
  <outline>
    <contour>
      <point x="241.667" y="0" type="line"/>
      <point x="711.667" y="700" type="line"/>
      <point x="575" y="700" type="line"/>
      <point x="105" y="0" type="line"/>
    </contour>
    <contour>
      <point x="296.667" y="360" type="line"/>
      <point x="296.667" y="433.333" type="line"/>
      <point x="225" y="433.333" type="line"/>
      <point x="225" y="700" type="line"/>
      <point x="130" y="700" type="line"/>
      <point x="28.3333" y="620" type="line"/>
      <point x="61.6667" y="571.667" type="line"/>
      <point x="115" y="600" type="line"/>
      <point x="115" y="433.333" type="line"/>
      <point x="43.3333" y="433.333" type="line"/>
      <point x="43.3333" y="360" type="line"/>
    </contour>
    <contour>
      <point x="572.667" y="209.333" type="line"/>
      <point x="577.333" y="214.333"/>
      <point x="581.667" y="223.667"/>
      <point x="585" y="231.333" type="curve"/>
      <point x="587.333" y="235"/>
      <point x="588.667" y="239.667"/>
      <point x="589.667" y="244.333" type="curve"/>
      <point x="593.667" y="244.333" type="line"/>
      <point x="590.667" y="231.667" type="line"/>
      <point x="589.333" y="224"/>
      <point x="588.333" y="216.333"/>
      <point x="588.333" y="210" type="curve" smooth="yes"/>
      <point x="588.333" y="136.667" type="line"/>
      <point x="511.667" y="136.667" type="line"/>
    </contour>
    <contour>
      <point x="698.333" y="0" type="line"/>
      <point x="698.333" y="63.3333" type="line"/>
      <point x="745" y="63.3333" type="line"/>
      <point x="745" y="136.667" type="line"/>
      <point x="698.333" y="136.667" type="line"/>
      <point x="698.333" y="340" type="line"/>
      <point x="591.667" y="340" type="line"/>
      <point x="421.667" y="136.667" type="line"/>
      <point x="421.667" y="63.3333" type="line"/>
      <point x="588.333" y="63.3333" type="line"/>
      <point x="588.333" y="0" type="line"/>
    </contour>
  </outline>
</glyph>
<glyph name="onehalf" format="2">
  <advance width="787"/>
  <unicode hex="00BD"/>
  <outline>
    <contour>
      <point x="241.667" y="0" type="line"/>
      <point x="711.667" y="700" type="line"/>
      <point x="575" y="700" type="line"/>
      <point x="105" y="0" type="line"/>
    </contour>
    <contour>
      <point x="296.667" y="360" type="line"/>
      <point x="296.667" y="433.333" type="line"/>
      <point x="225" y="433.333" type="line"/>
      <point x="225" y="700" type="line"/>
      <point x="130" y="700" type="line"/>
      <point x="28.3333" y="620" type="line"/>
      <point x="61.6667" y="571.667" type="line"/>
      <point x="115" y="600" type="line"/>
      <point x="115" y="433.333" type="line"/>
      <point x="43.3333" y="433.333" type="line"/>
      <point x="43.3333" y="360" type="line"/>
    </contour>
    <contour>
      <point x="745" y="0" type="line"/>
      <point x="745" y="73.3333" type="line"/>
      <point x="578.333" y="73.3333" type="line"/>
      <point x="578.333" y="127.667"/>
      <point x="745" y="126.333"/>
      <point x="745" y="235" type="curve" smooth="yes"/>
      <point x="745" y="300"/>
      <point x="695.667" y="350"/>
      <point x="605" y="350" type="curve" smooth="yes"/>
      <point x="565" y="350"/>
      <point x="531" y="338"/>
      <point x="508" y="327" type="curve"/>
      <point x="494.333" y="320"/>
      <point x="482" y="313"/>
      <point x="471.667" y="305" type="curve"/>
      <point x="504.333" y="246.667" type="line"/>
      <point x="514.333" y="246.667" type="line"/>
      <point x="518.211" y="249.841"/>
      <point x="529.977" y="258.166"/>
      <point x="535" y="261.667" type="curve"/>
      <point x="547.667" y="268.667"/>
      <point x="565.333" y="276.667"/>
      <point x="586" y="276.667" type="curve" smooth="yes"/>
      <point x="619.333" y="276.667"/>
      <point x="635" y="260.667"/>
      <point x="635" y="235" type="curve" smooth="yes"/>
      <point x="635" y="177.333"/>
      <point x="468.333" y="180.667"/>
      <point x="468.333" y="53.3333" type="curve" smooth="yes"/>
      <point x="468.333" y="0" type="line"/>
    </contour>
  </outline>
</glyph>
<glyph name="threequarters" format="2">
  <advance width="767"/>
  <unicode hex="00BE"/>
  <outline>
    <contour>
      <point x="229" y="0" type="line"/>
      <point x="699" y="700" type="line"/>
      <point x="562.333" y="700" type="line"/>
      <point x="92.3333" y="0" type="line"/>
    </contour>
    <contour>
      <point x="161.667" y="350" type="curve" smooth="yes"/>
      <point x="258.667" y="350"/>
      <point x="311" y="403.333"/>
      <point x="311" y="460" type="curve" smooth="yes"/>
      <point x="311" y="519"/>
      <point x="266.333" y="563.333"/>
      <point x="189" y="566.667" type="curve"/>
      <point x="289" y="621.667" type="line"/>
      <point x="289" y="700" type="line"/>
      <point x="44.3333" y="700" type="line"/>
      <point x="44.3333" y="626.667" type="line"/>
      <point x="182.333" y="626.667" type="line"/>
      <point x="72.3333" y="560" type="line"/>
      <point x="72.3333" y="503.333" type="line"/>
      <point x="138.333" y="503.333" type="line" smooth="yes"/>
      <point x="178.667" y="503.333"/>
      <point x="194.333" y="487"/>
      <point x="194.333" y="463.333" type="curve" smooth="yes"/>
      <point x="194.333" y="439.667"/>
      <point x="177.667" y="423.333"/>
      <point x="143.333" y="423.333" type="curve" smooth="yes"/>
      <point x="122.333" y="423.333"/>
      <point x="104.667" y="430.333"/>
      <point x="92" y="438.333" type="curve"/>
      <point x="85" y="442.333"/>
      <point x="77.3333" y="447.333"/>
      <point x="71" y="453.333" type="curve"/>
      <point x="61" y="453.333" type="line"/>
      <point x="28.3333" y="395" type="line"/>
      <point x="38.6667" y="386"/>
      <point x="51" y="379"/>
      <point x="64.6667" y="372" type="curve"/>
      <point x="87.6667" y="361"/>
      <point x="121.667" y="350"/>
    </contour>
    <contour>
      <point x="560" y="209.333" type="line"/>
      <point x="564.667" y="214.333"/>
      <point x="569" y="223.667"/>
      <point x="572.333" y="231.333" type="curve"/>
      <point x="574.667" y="235"/>
      <point x="576" y="239.667"/>
      <point x="577" y="244.333" type="curve"/>
      <point x="581" y="244.333" type="line"/>
      <point x="578" y="231.667" type="line"/>
      <point x="576.667" y="224"/>
      <point x="575.667" y="216.333"/>
      <point x="575.667" y="210" type="curve" smooth="yes"/>
      <point x="575.667" y="136.667" type="line"/>
      <point x="499" y="136.667" type="line"/>
    </contour>
    <contour>
      <point x="685.667" y="0" type="line"/>
      <point x="685.667" y="63.3333" type="line"/>
      <point x="732.333" y="63.3333" type="line"/>
      <point x="732.333" y="136.667" type="line"/>
      <point x="685.667" y="136.667" type="line"/>
      <point x="685.667" y="340" type="line"/>
      <point x="579" y="340" type="line"/>
      <point x="409" y="136.667" type="line"/>
      <point x="409" y="63.3333" type="line"/>
      <point x="575.667" y="63.3333" type="line"/>
      <point x="575.667" y="0" type="line"/>
    </contour>
  </outline>
</glyph>
<glyph name="questiondown" format="2">
  <advance width="480"/>
  <unicode hex="00BF"/>
  <outline>
    <contour>
      <point x="278.333" y="-210" type="curve" smooth="yes"/>
      <point x="345.333" y="-210"/>
      <point x="394.667" y="-198"/>
      <point x="429" y="-183" type="curve" smooth="yes"/>
      <point x="448.667" y="-175"/>
      <point x="465.333" y="-166"/>
      <point x="480" y="-155" type="curve"/>
      <point x="438.333" y="-81.6667" type="line"/>
      <point x="428.333" y="-81.6667" type="line"/>
      <point x="419" y="-90.6667"/>
      <point x="407" y="-97.6667"/>
      <point x="393.667" y="-104.667" type="curve"/>
      <point x="370.333" y="-115.667"/>
      <point x="334.667" y="-126.667"/>
      <point x="288.333" y="-126.667" type="curve" smooth="yes"/>
      <point x="206.667" y="-126.667"/>
      <point x="163.333" y="-84"/>
      <point x="163.333" y="-30" type="curve" smooth="yes"/>
      <point x="163.333" y="103.333"/>
      <point x="348" y="102.667"/>
      <point x="348" y="273.333" type="curve" smooth="yes"/>
      <point x="348" y="306.667" type="line"/>
      <point x="231.333" y="306.667" type="line"/>
      <point x="231.333" y="273.333" type="line" smooth="yes"/>
      <point x="231.333" y="155.667"/>
      <point x="36.6667" y="157.333"/>
      <point x="36.6667" y="-20" type="curve" smooth="yes"/>
      <point x="36.6667" y="-130"/>
      <point x="116.333" y="-210"/>
    </contour>
    <contour>
      <point x="289.667" y="370" type="curve" smooth="yes"/>
      <point x="328" y="370"/>
      <point x="359.667" y="401.667"/>
      <point x="359.667" y="440" type="curve" smooth="yes"/>
      <point x="359.667" y="478.333"/>
      <point x="328" y="510"/>
      <point x="289.667" y="510" type="curve" smooth="yes"/>
      <point x="251.333" y="510"/>
      <point x="219.667" y="478.333"/>
      <point x="219.667" y="440" type="curve" smooth="yes"/>
      <point x="219.667" y="401.667"/>
      <point x="251.333" y="370"/>
    </contour>
  </outline>
</glyph>
<glyph name="multiply" format="2">
  <advance width="439"/>
  <unicode hex="00D7"/>
  <outline>
    <contour>
      <point x="219.667" y="264.333" type="line"/>
      <point x="335" y="149" type="line"/>
      <point x="400.667" y="214.333" type="line"/>
      <point x="285" y="330" type="line"/>
      <point x="400.667" y="445.667" type="line"/>
      <point x="335" y="511" type="line"/>
      <point x="219.667" y="395.667" type="line"/>
      <point x="104" y="511" type="line"/>
      <point x="38.3333" y="445.667" type="line"/>
      <point x="154" y="330" type="line"/>
      <point x="38.3333" y="214.333" type="line"/>
      <point x="104" y="149" type="line"/>
    </contour>
  </outline>
</glyph>
<glyph name="ae" format="2">
  <advance width="805"/>
  <unicode hex="00E6"/>
  <outline>
    <contour>
      <point x="220" y="-10" type="curve" smooth="yes"/>
      <point x="302.667" y="-10"/>
      <point x="360.333" y="26.3333"/>
      <point x="395.667" y="64.6667" type="curve"/>
      <point x="428.667" y="24.3333"/>
      <point x="487.667" y="-10"/>
      <point x="573.333" y="-10" type="curve" smooth="yes"/>
      <point x="634.333" y="-10"/>
      <point x="691.667" y="7.66667"/>
      <point x="741.667" y="41.6667" type="curve"/>
      <point x="700" y="115" type="line"/>
      <point x="690" y="115" type="line"/>
      <point x="660.667" y="89"/>
      <point x="622.667" y="73.3333"/>
      <point x="583.333" y="73.3333" type="curve" smooth="yes"/>
      <point x="506.333" y="73.3333"/>
      <point x="463.333" y="118"/>
      <point x="463.333" y="208.333" type="curve"/>
      <point x="736.667" y="208.333" type="line"/>
      <point x="763.333" y="235" type="line"/>
      <point x="763.333" y="256.667" type="line" smooth="yes"/>
      <point x="763.333" y="425"/>
      <point x="678.333" y="510"/>
      <point x="550" y="510" type="curve" smooth="yes"/>
      <point x="482.667" y="510"/>
      <point x="437.333" y="480.667"/>
      <point x="405" y="445" type="curve"/>
      <point x="376" y="480.667"/>
      <point x="330.333" y="510"/>
      <point x="248.333" y="510" type="curve" smooth="yes"/>
      <point x="189" y="510"/>
      <point x="128.667" y="491.667"/>
      <point x="80" y="458.333" type="curve"/>
      <point x="121.667" y="385" type="line"/>
      <point x="131.667" y="385" type="line"/>
      <point x="161" y="410.667"/>
      <point x="199.333" y="426.667"/>
      <point x="238.333" y="426.667" type="curve" smooth="yes"/>
      <point x="303.333" y="426.667"/>
      <point x="336.667" y="394"/>
      <point x="336.667" y="320" type="curve" smooth="yes"/>
      <point x="336.667" y="301.667" type="line"/>
      <point x="263.333" y="301.667" type="line" smooth="yes"/>
      <point x="105" y="301.667"/>
      <point x="41.6667" y="239"/>
      <point x="41.6667" y="145" type="curve" smooth="yes"/>
      <point x="41.6667" y="52.3333"/>
      <point x="105" y="-10"/>
    </contour>
    <contour>
      <point x="245" y="78.3333" type="curve" smooth="yes"/>
      <point x="195" y="78.3333"/>
      <point x="168.333" y="104.667"/>
      <point x="168.333" y="145" type="curve" smooth="yes"/>
      <point x="168.333" y="190"/>
      <point x="196.667" y="218.333"/>
      <point x="263.333" y="218.333" type="curve" smooth="yes"/>
      <point x="336.667" y="218.333" type="line"/>
      <point x="336.667" y="138.333" type="line"/>
      <point x="316.333" y="109.333"/>
      <point x="283" y="78.3333"/>
    </contour>
    <contour>
      <point x="463.333" y="291.667" type="line"/>
      <point x="463.333" y="384.667"/>
      <point x="505" y="426.667"/>
      <point x="550" y="426.667" type="curve" smooth="yes"/>
      <point x="595" y="426.667"/>
      <point x="636.667" y="384.667"/>
      <point x="636.667" y="291.667" type="curve"/>
    </contour>
  </outline>
</glyph>
<glyph name="igrave" format="2">
  <advance width="275"/>
  <unicode hex="00EC"/>
  <outline>
    <contour>
      <point x="203" y="0" type="line"/>
      <point x="203" y="500" type="line"/>
      <point x="76.3333" y="500" type="line"/>
      <point x="76.3333" y="0" type="line"/>
    </contour>
    <contour>
      <point x="186.667" y="550" type="line"/>
      <point x="141.667" y="700" type="line"/>
      <point x="15" y="700" type="line"/>
      <point x="111.667" y="550" type="line"/>
    </contour>
  </outline>
</glyph>
<glyph name="icircumflex" format="2">
  <advance width="280"/>
  <unicode hex="00EE"/>
  <outline>
    <contour>
      <point x="203.333" y="0" type="line"/>
      <point x="203.333" y="500" type="line"/>
      <point x="76.6667" y="500" type="line"/>
      <point x="76.6667" y="0" type="line"/>
    </contour>
    <contour>
      <point x="71.6667" y="560" type="line"/>
      <point x="140" y="628.333" type="line"/>
      <point x="208.333" y="560" type="line"/>
      <point x="293.333" y="560" type="line"/>
      <point x="185" y="692.667" type="line"/>
      <point x="95" y="692.667" type="line"/>
      <point x="-13.3333" y="560" type="line"/>
    </contour>
  </outline>
</glyph>
<glyph name="eth" format="2">
  <advance width="535"/>
  <unicode hex="00F0"/>
  <outline>
    <contour>
      <point x="260" y="-10" type="curve" smooth="yes"/>
      <point x="398.333" y="-10"/>
      <point x="483.333" y="74.3333"/>
      <point x="483.333" y="225" type="curve" smooth="yes"/>
      <point x="483.333" y="325" type="line" smooth="yes"/>
      <point x="483.333" y="482"/>
      <point x="438" y="574.667"/>
      <point x="342.667" y="629" type="curve"/>
      <point x="370" y="691.333" type="line"/>
      <point x="292" y="724.333" type="line"/>
      <point x="265.333" y="662.667" type="line"/>
      <point x="247.667" y="668.333"/>
      <point x="229.333" y="672.667"/>
      <point x="210" y="676.667" type="curve" smooth="yes"/>
      <point x="146.667" y="690" type="line"/>
      <point x="130" y="610" type="line"/>
      <point x="195" y="597.333" type="line"/>
      <point x="205.075" y="595.034"/>
      <point x="224.436" y="590.167"/>
      <point x="233" y="587.667" type="curve"/>
      <point x="205.667" y="524.667" type="line"/>
      <point x="283.333" y="491.333" type="line"/>
      <point x="309.333" y="551.667" type="line"/>
      <point x="356" y="517.333"/>
      <point x="378.333" y="465.667"/>
      <point x="378.333" y="396.667" type="curve"/>
      <point x="347.333" y="437"/>
      <point x="298.667" y="460"/>
      <point x="235" y="460" type="curve" smooth="yes"/>
      <point x="121.667" y="460"/>
      <point x="36.6667" y="375"/>
      <point x="36.6667" y="225" type="curve" smooth="yes"/>
      <point x="36.6667" y="74.3333"/>
      <point x="121.667" y="-10"/>
    </contour>
    <contour>
      <point x="260" y="73.3333" type="curve" smooth="yes"/>
      <point x="206" y="73.3333"/>
      <point x="163.333" y="116.667"/>
      <point x="163.333" y="225" type="curve" smooth="yes"/>
      <point x="163.333" y="328"/>
      <point x="206" y="371.667"/>
      <point x="260" y="371.667" type="curve" smooth="yes"/>
      <point x="314" y="371.667"/>
      <point x="356.667" y="328"/>
      <point x="356.667" y="225" type="curve" smooth="yes"/>
      <point x="356.667" y="116.667"/>
      <point x="314" y="73.3333"/>
    </contour>
  </outline>
</glyph>
<glyph name="oslash" format="2">
  <advance width="537"/>
  <unicode hex="00F8"/>
  <outline>
    <contour>
      <point x="268.333" y="-10" type="curve" smooth="yes"/>
      <point x="408.333" y="-10"/>
      <point x="493.333" y="74.3333"/>
      <point x="493.333" y="250" type="curve" smooth="yes"/>
      <point x="493.333" y="331"/>
      <point x="475" y="390.667"/>
      <point x="442.667" y="433.667" type="curve"/>
      <point x="489.333" y="500" type="line"/>
      <point x="400" y="500" type="line"/>
      <point x="387.333" y="482" type="line"/>
      <point x="355" y="501"/>
      <point x="315" y="510"/>
      <point x="268.333" y="510" type="curve" smooth="yes"/>
      <point x="128" y="510"/>
      <point x="43.3333" y="425.667"/>
      <point x="43.3333" y="250" type="curve" smooth="yes"/>
      <point x="43.3333" y="171.667"/>
      <point x="59.6667" y="110.333"/>
      <point x="93" y="66.3333" type="curve"/>
      <point x="46.6667" y="0" type="line"/>
      <point x="136.667" y="0" type="line"/>
      <point x="148.667" y="17.3333" type="line"/>
      <point x="182.333" y="-1"/>
      <point x="222.333" y="-10"/>
    </contour>
    <contour>
      <point x="268.333" y="73.3333" type="curve" smooth="yes"/>
      <point x="244" y="73.3333"/>
      <point x="223.667" y="80.3333"/>
      <point x="207.333" y="100" type="curve"/>
      <point x="361" y="319" type="line"/>
      <point x="364.667" y="298.667"/>
      <point x="366.667" y="275"/>
      <point x="366.667" y="250" type="curve" smooth="yes"/>
      <point x="366.667" y="116.667"/>
      <point x="323.667" y="73.3333"/>
    </contour>
    <contour>
      <point x="175" y="181" type="line"/>
      <point x="170.667" y="200.667"/>
      <point x="170" y="223.667"/>
      <point x="170" y="250" type="curve" smooth="yes"/>
      <point x="170" y="383.333"/>
      <point x="213" y="426.667"/>
      <point x="268.333" y="426.667" type="curve" smooth="yes"/>
      <point x="292.667" y="426.667"/>
      <point x="313" y="417.667"/>
      <point x="329" y="400" type="curve"/>
    </contour>
  </outline>
</glyph>
<glyph name="Dcroat" format="2">
  <advance width="608"/>
  <unicode hex="0110"/>
  <outline>
    <contour>
      <point x="253.333" y="0" type="line" smooth="yes"/>
      <point x="450" y="0"/>
      <point x="556.667" y="106.333"/>
      <point x="556.667" y="350" type="curve" smooth="yes"/>
      <point x="556.667" y="593.667"/>
      <point x="450" y="700"/>
      <point x="253.333" y="700" type="curve" smooth="yes"/>
      <point x="90" y="700" type="line"/>
      <point x="90" y="406.667" type="line"/>
      <point x="35" y="406.667" type="line"/>
      <point x="35" y="313.333" type="line"/>
      <point x="90" y="313.333" type="line"/>
      <point x="90" y="0" type="line"/>
    </contour>
    <contour>
      <point x="216.667" y="313.333" type="line"/>
      <point x="318.333" y="313.333" type="line"/>
      <point x="318.333" y="406.667" type="line"/>
      <point x="216.667" y="406.667" type="line"/>
      <point x="216.667" y="616.667" type="line"/>
      <point x="253.333" y="616.667" type="line" smooth="yes"/>
      <point x="366.667" y="616.667"/>
      <point x="430" y="553.667"/>
      <point x="430" y="350" type="curve" smooth="yes"/>
      <point x="430" y="146.333"/>
      <point x="366.667" y="83.3333"/>
      <point x="253.333" y="83.3333" type="curve" smooth="yes"/>
      <point x="216.667" y="83.3333" type="line"/>
    </contour>
  </outline>
</glyph>
<glyph name="dcroat" format="2">
  <advance width="555"/>
  <unicode hex="0111"/>
  <outline>
    <contour>
      <point x="236.667" y="-10" type="curve" smooth="yes"/>
      <point x="283.667" y="-10"/>
      <point x="317.333" y="6"/>
      <point x="340.667" y="25" type="curve"/>
      <point x="354" y="35"/>
      <point x="365.333" y="47"/>
      <point x="375" y="60" type="curve"/>
      <point x="380" y="60" type="line"/>
      <point x="390" y="0" type="line"/>
      <point x="480" y="0" type="line"/>
      <point x="480" y="523.333" type="line"/>
      <point x="538.333" y="523.333" type="line"/>
      <point x="538.333" y="606.667" type="line"/>
      <point x="480" y="606.667" type="line"/>
      <point x="480" y="700" type="line"/>
      <point x="390" y="700" type="line"/>
      <point x="353.333" y="663.333" type="line"/>
      <point x="353.333" y="606.667" type="line"/>
      <point x="255" y="606.667" type="line"/>
      <point x="255" y="523.333" type="line"/>
      <point x="353.333" y="523.333" type="line"/>
      <point x="353.333" y="446.667" type="line"/>
      <point x="323.667" y="461.667" type="line"/>
      <point x="304.333" y="468.667"/>
      <point x="281" y="476.667"/>
      <point x="250" y="476.667" type="curve" smooth="yes"/>
      <point x="128.333" y="476.667"/>
      <point x="43.3333" y="392"/>
      <point x="43.3333" y="233.333" type="curve" smooth="yes"/>
      <point x="43.3333" y="74.6667"/>
      <point x="128.333" y="-10"/>
    </contour>
    <contour>
      <point x="261.667" y="78.3333" type="curve" smooth="yes"/>
      <point x="213" y="78.3333"/>
      <point x="170" y="122.333"/>
      <point x="170" y="233.333" type="curve" smooth="yes"/>
      <point x="170" y="350"/>
      <point x="213.333" y="393.333"/>
      <point x="271.667" y="393.333" type="curve" smooth="yes"/>
      <point x="296" y="393.333"/>
      <point x="316" y="386.333"/>
      <point x="330.333" y="380" type="curve"/>
      <point x="336.201" y="377.189"/>
      <point x="348.495" y="369.551"/>
      <point x="353.333" y="366.667" type="curve"/>
      <point x="353.333" y="138.333" type="line"/>
      <point x="345.667" y="127.333"/>
      <point x="337.667" y="117.333"/>
      <point x="328.667" y="108.333" type="curve"/>
      <point x="312.333" y="93.3333"/>
      <point x="290" y="78.3333"/>
    </contour>
  </outline>
</glyph>
<glyph name="hbar" format="2">
  <advance width="570"/>
  <unicode hex="0127"/>
  <outline>
    <contour>
      <point x="206.667" y="0" type="line"/>
      <point x="206.667" y="301.667" type="line"/>
      <point x="214.333" y="312.667"/>
      <point x="222.333" y="322.667"/>
      <point x="231.333" y="331.667" type="curve"/>
      <point x="247.667" y="346.667"/>
      <point x="269.333" y="361.667"/>
      <point x="298.333" y="361.667" type="curve" smooth="yes"/>
      <point x="347" y="361.667"/>
      <point x="380" y="328.667"/>
      <point x="380" y="266.667" type="curve" smooth="yes"/>
      <point x="380" y="0" type="line"/>
      <point x="506.667" y="0" type="line"/>
      <point x="506.667" y="266.667" type="line" smooth="yes"/>
      <point x="506.667" y="380.667"/>
      <point x="437.333" y="450"/>
      <point x="323.333" y="450" type="curve" smooth="yes"/>
      <point x="285.667" y="450"/>
      <point x="257.333" y="437.667"/>
      <point x="237" y="426.333" type="curve"/>
      <point x="225.333" y="419.333"/>
      <point x="215" y="411.667"/>
      <point x="206.667" y="403.333" type="curve"/>
      <point x="206.667" y="506.667" type="line"/>
      <point x="335" y="506.667" type="line"/>
      <point x="335" y="590" type="line"/>
      <point x="206.667" y="590" type="line"/>
      <point x="206.667" y="700" type="line"/>
      <point x="116.667" y="700" type="line"/>
      <point x="80" y="663.333" type="line"/>
      <point x="80" y="590" type="line"/>
      <point x="21.6667" y="590" type="line"/>
      <point x="21.6667" y="506.667" type="line"/>
      <point x="80" y="506.667" type="line"/>
      <point x="80" y="0" type="line"/>
    </contour>
  </outline>
</glyph>
<glyph name="jcircumflex" format="2">
  <advance width="288"/>
  <unicode hex="0135"/>
  <outline>
    <contour>
      <point x="33.3333" y="-200" type="curve" smooth="yes"/>
      <point x="150" y="-200"/>
      <point x="218.333" y="-132"/>
      <point x="218.333" y="-33.3333" type="curve" smooth="yes"/>
      <point x="218.333" y="500" type="line"/>
      <point x="91.6667" y="500" type="line"/>
      <point x="91.6667" y="-33.3333" type="line" smooth="yes"/>
      <point x="91.6667" y="-90.6667"/>
      <point x="65" y="-116.667"/>
      <point x="23.3333" y="-116.667" type="curve" smooth="yes"/>
      <point x="8.33333" y="-116.667"/>
      <point x="-4.66667" y="-111.667"/>
      <point x="-15.6667" y="-104.667" type="curve"/>
      <point x="-21.6667" y="-101.667"/>
      <point x="-26.6667" y="-96.6667"/>
      <point x="-31.6667" y="-91.6667" type="curve"/>
      <point x="-41.6667" y="-91.6667" type="line"/>
      <point x="-73.3333" y="-170" type="line"/>
      <point x="-65" y="-176"/>
      <point x="-54.6667" y="-181"/>
      <point x="-43" y="-185" type="curve"/>
      <point x="-24" y="-193"/>
      <point x="2.33333" y="-200"/>
    </contour>
    <contour>
      <point x="79.6667" y="550" type="line"/>
      <point x="148" y="618.333" type="line"/>
      <point x="216.333" y="550" type="line"/>
      <point x="301.333" y="550" type="line"/>
      <point x="193" y="682.667" type="line"/>
      <point x="103" y="682.667" type="line"/>
      <point x="-5.33333" y="550" type="line"/>
    </contour>
  </outline>
</glyph>
<glyph name="kgreenlandic" format="2">
  <advance width="500"/>
  <unicode hex="0138"/>
  <outline>
    <contour>
      <point x="198.333" y="0" type="line"/>
      <point x="198.333" y="240" type="line"/>
      <point x="351.667" y="0" type="line"/>
      <point x="493.333" y="0" type="line"/>
      <point x="316.667" y="260" type="line"/>
      <point x="483.333" y="500" type="line"/>
      <point x="341.667" y="500" type="line"/>
      <point x="198.333" y="280" type="line"/>
      <point x="198.333" y="500" type="line"/>
      <point x="108.333" y="500" type="line"/>
      <point x="71.6667" y="463.333" type="line"/>
      <point x="71.6667" y="0" type="line"/>
    </contour>
  </outline>
</glyph>
<glyph name="Lcaron" format="2">
  <advance width="500"/>
  <unicode hex="013D"/>
  <outline>
    <contour>
      <point x="490" y="0" type="line"/>
      <point x="490" y="83.3333" type="line"/>
      <point x="213.333" y="83.3333" type="line"/>
      <point x="213.333" y="700" type="line"/>
      <point x="86.6667" y="700" type="line"/>
      <point x="86.6667" y="0" type="line"/>
    </contour>
    <contour>
      <point x="315" y="468" type="line"/>
      <point x="330.667" y="477.667"/>
      <point x="344.333" y="490.333"/>
      <point x="356.333" y="506" type="curve" smooth="yes"/>
      <point x="377" y="532.333"/>
      <point x="398.333" y="571.667"/>
      <point x="398.333" y="628.667" type="curve" smooth="yes"/>
      <point x="398.333" y="673"/>
      <point x="372" y="700"/>
      <point x="331.667" y="700" type="curve" smooth="yes"/>
      <point x="302" y="700"/>
      <point x="275" y="673.333"/>
      <point x="275" y="638.333" type="curve" smooth="yes"/>
      <point x="275" y="606.667"/>
      <point x="301.333" y="580"/>
      <point x="338.333" y="580" type="curve"/>
      <point x="338.333" y="558"/>
      <point x="325.333" y="539.333"/>
      <point x="311.333" y="524.333" type="curve"/>
      <point x="303.667" y="515.667"/>
      <point x="294.667" y="508"/>
      <point x="285" y="501" type="curve"/>
    </contour>
  </outline>
</glyph>
<glyph name="lslash" format="2">
  <advance width="313"/>
  <unicode hex="0142"/>
  <outline>
    <contour>
      <point x="218.333" y="0" type="line"/>
      <point x="218.333" y="358.333" type="line"/>
      <point x="291.667" y="420" type="line"/>
      <point x="291.667" y="543.333" type="line"/>
      <point x="218.333" y="481.667" type="line"/>
      <point x="218.333" y="700" type="line"/>
      <point x="128.333" y="700" type="line"/>
      <point x="91.6667" y="663.333" type="line"/>
      <point x="91.6667" y="379.667" type="line"/>
      <point x="38.3333" y="336.667" type="line"/>
      <point x="38.3333" y="213.333" type="line"/>
      <point x="91.6667" y="256.333" type="line"/>
      <point x="91.6667" y="0" type="line"/>
    </contour>
  </outline>
</glyph>
<glyph name="oe" format="2">
  <advance width="837"/>
  <unicode hex="0153"/>
  <outline>
    <contour>
      <point x="266.667" y="-10" type="curve" smooth="yes"/>
      <point x="339.333" y="-10"/>
      <point x="388.333" y="15"/>
      <point x="427" y="63.3333" type="curve"/>
      <point x="466.667" y="15"/>
      <point x="530" y="-10"/>
      <point x="605" y="-10" type="curve" smooth="yes"/>
      <point x="666" y="-10"/>
      <point x="723.333" y="7.66667"/>
      <point x="773.333" y="41.6667" type="curve"/>
      <point x="731.667" y="115" type="line"/>
      <point x="721.667" y="115" type="line"/>
      <point x="692.333" y="89"/>
      <point x="654.333" y="73.3333"/>
      <point x="615" y="73.3333" type="curve" smooth="yes"/>
      <point x="538" y="73.3333"/>
      <point x="495" y="118"/>
      <point x="495" y="208.333" type="curve"/>
      <point x="768.333" y="208.333" type="line"/>
      <point x="795" y="235" type="line"/>
      <point x="795" y="256.667" type="line" smooth="yes"/>
      <point x="795" y="425"/>
      <point x="710" y="510"/>
      <point x="581.667" y="510" type="curve" smooth="yes"/>
      <point x="518.667" y="510"/>
      <point x="465" y="481.667"/>
      <point x="426.667" y="436.667" type="curve"/>
      <point x="388.333" y="481.667"/>
      <point x="332" y="510"/>
      <point x="266.667" y="510" type="curve" smooth="yes"/>
      <point x="128.333" y="510"/>
      <point x="43.3333" y="425.667"/>
      <point x="43.3333" y="250" type="curve" smooth="yes"/>
      <point x="43.3333" y="74.3333"/>
      <point x="128.333" y="-10"/>
    </contour>
    <contour>
      <point x="266.667" y="73.3333" type="curve" smooth="yes"/>
      <point x="212.333" y="73.3333"/>
      <point x="170" y="116.667"/>
      <point x="170" y="250" type="curve" smooth="yes"/>
      <point x="170" y="383.333"/>
      <point x="212.333" y="426.667"/>
      <point x="266.667" y="426.667" type="curve" smooth="yes"/>
      <point x="320.333" y="426.667"/>
      <point x="363.333" y="380.667"/>
      <point x="363.333" y="250" type="curve" smooth="yes"/>
      <point x="363.333" y="119.333"/>
      <point x="320.333" y="73.3333"/>
    </contour>
    <contour>
      <point x="495" y="291.667" type="line"/>
      <point x="495" y="384.667"/>
      <point x="536.667" y="426.667"/>
      <point x="581.667" y="426.667" type="curve" smooth="yes"/>
      <point x="626.667" y="426.667"/>
      <point x="668.333" y="384.667"/>
      <point x="668.333" y="291.667" type="curve"/>
    </contour>
  </outline>
</glyph>
<glyph name="tcaron" format="2">
  <advance width="500"/>
  <unicode hex="0165"/>
  <outline>
    <contour>
      <point x="263.333" y="-10" type="curve" smooth="yes"/>
      <point x="303.333" y="-10"/>
      <point x="339.667" y="2"/>
      <point x="366.667" y="15" type="curve"/>
      <point x="382.333" y="22"/>
      <point x="396.667" y="31"/>
      <point x="410" y="40" type="curve"/>
      <point x="368.333" y="113.333" type="line"/>
      <point x="358.333" y="113.333" type="line"/>
      <point x="350.333" y="106.333"/>
      <point x="341.333" y="99.3333"/>
      <point x="332.333" y="93.3333" type="curve" smooth="yes"/>
      <point x="316.333" y="82.3333"/>
      <point x="296.333" y="73.3333"/>
      <point x="273.333" y="73.3333" type="curve" smooth="yes"/>
      <point x="237.667" y="73.3333"/>
      <point x="211.667" y="99.3333"/>
      <point x="211.667" y="156.667" type="curve" smooth="yes"/>
      <point x="211.667" y="416.667" type="line"/>
      <point x="330" y="416.667" type="line"/>
      <point x="330" y="500" type="line"/>
      <point x="211.667" y="500" type="line"/>
      <point x="211.667" y="620" type="line"/>
      <point x="160" y="620" type="line"/>
      <point x="16.6667" y="476.667" type="line"/>
      <point x="16.6667" y="416.667" type="line"/>
      <point x="85" y="416.667" type="line"/>
      <point x="85" y="156.667" type="line" smooth="yes"/>
      <point x="85" y="58"/>
      <point x="152.667" y="-10"/>
    </contour>
    <contour>
      <point x="406.667" y="388" type="line"/>
      <point x="422.333" y="397.667"/>
      <point x="436" y="410.333"/>
      <point x="448" y="426" type="curve" smooth="yes"/>
      <point x="468.667" y="452.333"/>
      <point x="490" y="491.667"/>
      <point x="490" y="548.667" type="curve" smooth="yes"/>
      <point x="490" y="593"/>
      <point x="463.667" y="620"/>
      <point x="423.333" y="620" type="curve" smooth="yes"/>
      <point x="393.667" y="620"/>
      <point x="366.667" y="593.333"/>
      <point x="366.667" y="558.333" type="curve" smooth="yes"/>
      <point x="366.667" y="526.667"/>
      <point x="393" y="500"/>
      <point x="430" y="500" type="curve"/>
      <point x="430" y="478"/>
      <point x="417" y="459.333"/>
      <point x="403" y="444.333" type="curve"/>
      <point x="395.333" y="435.667"/>
      <point x="386.333" y="428"/>
      <point x="376.667" y="421" type="curve"/>
    </contour>
  </outline>
</glyph>
<glyph name="florin" format="2">
  <advance width="415"/>
  <unicode hex="0192"/>
  <outline>
    <contour>
      <point x="6.66667" y="-200" type="curve" smooth="yes"/>
      <point x="124.667" y="-200"/>
      <point x="197" y="-132"/>
      <point x="206" y="-33.3333" type="curve" smooth="yes"/>
      <point x="245.667" y="416.667" type="line"/>
      <point x="374" y="416.667" type="line"/>
      <point x="381.333" y="500" type="line"/>
      <point x="253" y="500" type="line"/>
      <point x="257" y="543.333" type="line" smooth="yes"/>
      <point x="261" y="597.333"/>
      <point x="294.333" y="626.667"/>
      <point x="332.667" y="626.667" type="curve" smooth="yes"/>
      <point x="355.667" y="626.667"/>
      <point x="375" y="616.667"/>
      <point x="390.333" y="605.667" type="curve" smooth="yes"/>
      <point x="399.333" y="599.333"/>
      <point x="407.667" y="592.333"/>
      <point x="415" y="585" type="curve"/>
      <point x="425" y="585" type="line"/>
      <point x="473.333" y="658.333" type="line"/>
      <point x="461" y="667.667"/>
      <point x="446.667" y="676.667"/>
      <point x="432" y="684" type="curve" smooth="yes"/>
      <point x="406" y="697"/>
      <point x="371" y="710"/>
      <point x="330" y="710" type="curve" smooth="yes"/>
      <point x="210.667" y="710"/>
      <point x="140.333" y="642"/>
      <point x="130.333" y="543.333" type="curve" smooth="yes"/>
      <point x="126.333" y="500" type="line"/>
      <point x="68" y="500" type="line"/>
      <point x="60.6667" y="416.667" type="line"/>
      <point x="119" y="416.667" type="line"/>
      <point x="79.3333" y="-33.3333" type="line" smooth="yes"/>
      <point x="74.3333" y="-90.6667"/>
      <point x="46.3333" y="-116.667"/>
      <point x="4" y="-116.667" type="curve" smooth="yes"/>
      <point x="-11" y="-116.667"/>
      <point x="-24.3333" y="-111.667"/>
      <point x="-33.3333" y="-104.667" type="curve"/>
      <point x="-39" y="-101.667"/>
      <point x="-44" y="-96.6667"/>
      <point x="-48.3333" y="-91.6667" type="curve"/>
      <point x="-58.3333" y="-91.6667" type="line"/>
      <point x="-96.6667" y="-170" type="line"/>
      <point x="-88.3333" y="-176"/>
      <point x="-78" y="-181"/>
      <point x="-67.3333" y="-185" type="curve"/>
      <point x="-49" y="-193"/>
      <point x="-24.3333" y="-200"/>
    </contour>
  </outline>
</glyph>
<glyph name="breve" format="2">
  <advance width="333"/>
  <unicode hex="02D8"/>
  <outline>
    <contour>
      <point x="166.667" y="560" type="curve" smooth="yes"/>
      <point x="274" y="560"/>
      <point x="323.333" y="609.333"/>
      <point x="323.333" y="696.667" type="curve"/>
      <point x="220" y="696.667" type="line"/>
      <point x="220" y="645.667"/>
      <point x="200.667" y="626.667"/>
      <point x="166.667" y="626.667" type="curve" smooth="yes"/>
      <point x="132.667" y="626.667"/>
      <point x="113.333" y="645.667"/>
      <point x="113.333" y="696.667" type="curve"/>
      <point x="10" y="696.667" type="line"/>
      <point x="10" y="609.333"/>
      <point x="59.3333" y="560"/>
    </contour>
  </outline>
</glyph>
<glyph name="dotaccent" format="2">
  <advance width="160"/>
  <unicode hex="02D9"/>
  <outline>
    <contour>
      <point x="80" y="560" type="curve" smooth="yes"/>
      <point x="118.333" y="560"/>
      <point x="150" y="591.667"/>
      <point x="150" y="630" type="curve" smooth="yes"/>
      <point x="150" y="668.333"/>
      <point x="118.333" y="700"/>
      <point x="80" y="700" type="curve" smooth="yes"/>
      <point x="41.6667" y="700"/>
      <point x="10" y="668.333"/>
      <point x="10" y="630" type="curve" smooth="yes"/>
      <point x="10" y="591.667"/>
      <point x="41.6667" y="560"/>
    </contour>
  </outline>
</glyph>
<glyph name="ring" format="2">
  <advance width="233"/>
  <unicode hex="02DA"/>
  <outline>
    <contour>
      <point x="116.667" y="543.333" type="curve" smooth="yes"/>
      <point x="180" y="543.333"/>
      <point x="223.333" y="586.333"/>
      <point x="223.333" y="645" type="curve" smooth="yes"/>
      <point x="223.333" y="703.667"/>
      <point x="180" y="746.667"/>
      <point x="116.667" y="746.667" type="curve" smooth="yes"/>
      <point x="53.3333" y="746.667"/>
      <point x="10" y="703.667"/>
      <point x="10" y="645" type="curve" smooth="yes"/>
      <point x="10" y="586.333"/>
      <point x="53.3333" y="543.333"/>
    </contour>
    <contour>
      <point x="116.667" y="603.333" type="curve" smooth="yes"/>
      <point x="96.6667" y="603.333"/>
      <point x="80" y="618"/>
      <point x="80" y="645" type="curve" smooth="yes"/>
      <point x="80" y="672"/>
      <point x="96.6667" y="686.667"/>
      <point x="116.667" y="686.667" type="curve" smooth="yes"/>
      <point x="136.667" y="686.667"/>
      <point x="153.333" y="672"/>
      <point x="153.333" y="645" type="curve" smooth="yes"/>
      <point x="153.333" y="618"/>
      <point x="136.667" y="603.333"/>
    </contour>
  </outline>
</glyph>
<glyph name="ogonek" format="2">
  <advance width="203"/>
  <unicode hex="02DB"/>
  <outline>
    <contour>
      <point x="113.333" y="-175" type="curve" smooth="yes"/>
      <point x="138.333" y="-175"/>
      <point x="157.333" y="-170"/>
      <point x="172.333" y="-163" type="curve"/>
      <point x="180.333" y="-160"/>
      <point x="187.333" y="-155"/>
      <point x="193.333" y="-150" type="curve"/>
      <point x="193.333" y="-88" type="line"/>
      <point x="184.333" y="-88" type="line"/>
      <point x="185" y="-88"/>
      <point x="161.667" y="-110"/>
      <point x="131.667" y="-110" type="curve" smooth="yes"/>
      <point x="108.333" y="-110"/>
      <point x="93.3333" y="-95"/>
      <point x="93.3333" y="-75" type="curve" smooth="yes"/>
      <point x="93.3333" y="-54"/>
      <point x="108" y="-35.6667"/>
      <point x="125" y="-21.6667" type="curve" smooth="yes"/>
      <point x="134" y="-14"/>
      <point x="145" y="-6.33333"/>
      <point x="156.667" y="0" type="curve"/>
      <point x="64" y="0" type="line"/>
      <point x="53.6667" y="-7.66667"/>
      <point x="44.6667" y="-16.3333"/>
      <point x="37" y="-25.6667" type="curve"/>
      <point x="22.6667" y="-42"/>
      <point x="10" y="-64.3333"/>
      <point x="10" y="-90" type="curve" smooth="yes"/>
      <point x="10" y="-142.333"/>
      <point x="42.6667" y="-175"/>
    </contour>
  </outline>
</glyph>
<glyph name="hungarumlaut" format="2">
  <advance width="318"/>
  <unicode hex="02DD"/>
  <outline>
    <contour>
      <point x="220" y="550" type="line"/>
      <point x="308.333" y="700" type="line"/>
      <point x="203.333" y="700" type="line"/>
      <point x="158.333" y="550" type="line"/>
    </contour>
    <contour>
      <point x="71.6667" y="550" type="line"/>
      <point x="160" y="700" type="line"/>
      <point x="55" y="700" type="line"/>
      <point x="10" y="550" type="line"/>
    </contour>
  </outline>
</glyph>
<glyph name="gravecomb" format="2">
  <advance width="192"/>
  <unicode hex="0300"/>
  <anchor x="146" y="500" name="_top"/>
  <anchor x="96" y="700" name="top"/>
  <outline>
    <contour>
      <point x="181.667" y="550" type="line"/>
      <point x="136.667" y="700" type="line"/>
      <point x="10" y="700" type="line"/>
      <point x="106.667" y="550" type="line"/>
    </contour>
  </outline>
</glyph>
<glyph name="acutecomb" format="2">
  <advance width="192"/>
  <unicode hex="0301"/>
  <anchor x="46.6667" y="500" name="_top"/>
  <anchor x="96" y="700" name="top"/>
  <outline>
    <contour>
      <point x="85" y="550" type="line"/>
      <point x="181.667" y="700" type="line"/>
      <point x="55" y="700" type="line"/>
      <point x="10" y="550" type="line"/>
    </contour>
  </outline>
</glyph>
<glyph name="macroncomb" format="2">
  <advance width="310"/>
  <unicode hex="0304"/>
  <anchor x="155" y="500" name="_top"/>
  <anchor x="155" y="660" name="top"/>
  <outline>
    <contour>
      <point x="296.667" y="576.667" type="line"/>
      <point x="296.667" y="660" type="line"/>
      <point x="13.3333" y="660" type="line"/>
      <point x="13.3333" y="576.667" type="line"/>
    </contour>
  </outline>
</glyph>
<glyph name="hungarumlautcomb" format="2">
  <advance width="318"/>
  <unicode hex="030B"/>
  <anchor x="116.667" y="500" name="_top"/>
  <anchor x="159.333" y="700" name="top"/>
  <outline>
    <contour>
      <point x="220" y="550" type="line"/>
      <point x="308.333" y="700" type="line"/>
      <point x="203.333" y="700" type="line"/>
      <point x="158.333" y="550" type="line"/>
    </contour>
    <contour>
      <point x="71.6667" y="550" type="line"/>
      <point x="160" y="700" type="line"/>
      <point x="55" y="700" type="line"/>
      <point x="10" y="550" type="line"/>
    </contour>
  </outline>
</glyph>
<glyph name="commaaccentcomb" format="2">
  <advance width="143"/>
  <unicode hex="0326"/>
  <anchor x="71.6667" y="0" name="_bottom"/>
  <anchor x="71.6667" y="-245.333" name="bottom"/>
  <outline>
    <contour>
      <point x="50" y="-245.333" type="line"/>
      <point x="65.6667" y="-235.667"/>
      <point x="79.3333" y="-223"/>
      <point x="91.3333" y="-207.333" type="curve" smooth="yes"/>
      <point x="112" y="-181"/>
      <point x="133.333" y="-141.667"/>
      <point x="133.333" y="-84.6667" type="curve" smooth="yes"/>
      <point x="133.333" y="-40.3333"/>
      <point x="107" y="-13.3333"/>
      <point x="66.6667" y="-13.3333" type="curve" smooth="yes"/>
      <point x="37" y="-13.3333"/>
      <point x="10" y="-40"/>
      <point x="10" y="-75" type="curve" smooth="yes"/>
      <point x="10" y="-106.667"/>
      <point x="36.3333" y="-133.333"/>
      <point x="73.3333" y="-133.333" type="curve"/>
      <point x="73.3333" y="-155.333"/>
      <point x="60.3333" y="-174"/>
      <point x="46.3333" y="-189" type="curve"/>
      <point x="38.6667" y="-197.667"/>
      <point x="29.6667" y="-205.333"/>
      <point x="20" y="-212.333" type="curve"/>
    </contour>
  </outline>
</glyph>
<glyph name="Lje-cy" format="2">
  <advance width="900"/>
  <unicode hex="0409"/>
  <outline>
    <contour>
      <point x="71.6667" y="-10" type="curve" smooth="yes"/>
      <point x="163.667" y="-10"/>
      <point x="216.333" y="47.3333"/>
      <point x="223.333" y="160" type="curve"/>
      <point x="248.333" y="616.667" type="line"/>
      <point x="410" y="616.667" type="line"/>
      <point x="410" y="0" type="line"/>
      <point x="613.667" y="0" type="line" smooth="yes"/>
      <point x="795.333" y="0"/>
      <point x="875.333" y="79.6667"/>
      <point x="875.333" y="223.333" type="curve" smooth="yes"/>
      <point x="875.333" y="367"/>
      <point x="795.333" y="446.667"/>
      <point x="613.667" y="446.667" type="curve" smooth="yes"/>
      <point x="537" y="446.667" type="line"/>
      <point x="537" y="700" type="line"/>
      <point x="126.667" y="700" type="line"/>
      <point x="96.6667" y="160" type="line" smooth="yes"/>
      <point x="93.3333" y="95"/>
      <point x="72.6667" y="73.3333"/>
      <point x="48.3333" y="73.3333" type="curve" smooth="yes"/>
      <point x="44.3333" y="73.3333"/>
      <point x="39.3333" y="74.3333"/>
      <point x="33" y="75.3333" type="curve"/>
      <point x="25" y="78.3333" type="line"/>
      <point x="15" y="78.3333" type="line"/>
      <point x="6.66667" y="3.33333" type="line"/>
      <point x="10.6829" y="1.81229"/>
      <point x="22.0128" y="-2.36828"/>
      <point x="26.6667" y="-3.66667" type="curve" smooth="yes"/>
      <point x="39" y="-7.33333"/>
      <point x="54" y="-10"/>
    </contour>
    <contour>
      <point x="537" y="363.333" type="line"/>
      <point x="613.667" y="363.333" type="line" smooth="yes"/>
      <point x="706.667" y="363.333"/>
      <point x="748.667" y="320.667"/>
      <point x="748.667" y="223.333" type="curve" smooth="yes"/>
      <point x="748.667" y="126"/>
      <point x="706.667" y="83.3333"/>
      <point x="613.667" y="83.3333" type="curve" smooth="yes"/>
      <point x="537" y="83.3333" type="line"/>
    </contour>
  </outline>
</glyph>
<glyph name="Tshe-cy" format="2">
  <advance width="663"/>
  <unicode hex="040B"/>
  <outline>
    <contour>
      <point x="260" y="0" type="line"/>
      <point x="260" y="358.333" type="line"/>
      <point x="289" y="365.333" type="line" smooth="yes"/>
      <point x="307.333" y="369.333"/>
      <point x="332" y="373.333"/>
      <point x="361.667" y="373.333" type="curve" smooth="yes"/>
      <point x="441.333" y="373.333"/>
      <point x="483.333" y="331.667"/>
      <point x="483.333" y="255" type="curve" smooth="yes"/>
      <point x="483.333" y="0" type="line"/>
      <point x="610" y="0" type="line"/>
      <point x="610" y="255" type="line" smooth="yes"/>
      <point x="610" y="376.667"/>
      <point x="531" y="456.667"/>
      <point x="386.667" y="456.667" type="curve" smooth="yes"/>
      <point x="350" y="456.667"/>
      <point x="318.333" y="452.667"/>
      <point x="296" y="448.667" type="curve"/>
      <point x="285.625" y="446.251"/>
      <point x="269.48" y="443.376"/>
      <point x="260" y="441.667" type="curve"/>
      <point x="260" y="616.667" type="line"/>
      <point x="433.333" y="616.667" type="line"/>
      <point x="433.333" y="700" type="line"/>
      <point x="0" y="700" type="line"/>
      <point x="0" y="616.667" type="line"/>
      <point x="133.333" y="616.667" type="line"/>
      <point x="133.333" y="0" type="line"/>
    </contour>
  </outline>
</glyph>
<glyph name="Be-cy" format="2">
  <advance width="590"/>
  <unicode hex="0411"/>
  <outline>
    <contour>
      <point x="286.667" y="0" type="line" smooth="yes"/>
      <point x="467.667" y="0"/>
      <point x="548.333" y="79.6667"/>
      <point x="548.333" y="213.333" type="curve" smooth="yes"/>
      <point x="548.333" y="339.667"/>
      <point x="467.667" y="426.667"/>
      <point x="286.667" y="426.667" type="curve" smooth="yes"/>
      <point x="213.333" y="426.667" type="line"/>
      <point x="213.333" y="616.667" type="line"/>
      <point x="496.667" y="616.667" type="line"/>
      <point x="496.667" y="700" type="line"/>
      <point x="86.6667" y="700" type="line"/>
      <point x="86.6667" y="0" type="line"/>
    </contour>
    <contour>
      <point x="213.333" y="343.333" type="line"/>
      <point x="286.667" y="343.333" type="line" smooth="yes"/>
      <point x="379.333" y="343.333"/>
      <point x="421.667" y="300.333"/>
      <point x="421.667" y="213.333" type="curve" smooth="yes"/>
      <point x="421.667" y="126.333"/>
      <point x="379.333" y="83.3333"/>
      <point x="286.667" y="83.3333" type="curve" smooth="yes"/>
      <point x="213.333" y="83.3333" type="line"/>
    </contour>
  </outline>
</glyph>
<glyph name="Ge-cy" format="2">
  <advance width="507"/>
  <unicode hex="0413"/>
  <anchor x="86.6667" y="0" name="bottomright"/>
  <anchor x="175" y="350" name="center"/>
  <anchor x="307" y="700" name="top"/>
  <outline>
    <contour>
      <point x="213.333" y="0" type="line"/>
      <point x="213.333" y="616.667" type="line"/>
      <point x="496.667" y="616.667" type="line"/>
      <point x="496.667" y="700" type="line"/>
      <point x="86.6667" y="700" type="line"/>
      <point x="86.6667" y="0" type="line"/>
    </contour>
  </outline>
</glyph>
<glyph name="De-cy" format="2">
  <advance width="643"/>
  <unicode hex="0414"/>
  <outline>
    <contour>
      <point x="108.333" y="-150" type="line"/>
      <point x="126.667" y="0" type="line"/>
      <point x="488.333" y="0" type="line"/>
      <point x="506.667" y="-150" type="line"/>
      <point x="603.333" y="-150" type="line"/>
      <point x="603.333" y="83.3333" type="line"/>
      <point x="538.333" y="83.3333" type="line"/>
      <point x="538.333" y="700" type="line"/>
      <point x="136.667" y="700" type="line"/>
      <point x="111.667" y="243.333" type="line" smooth="yes"/>
      <point x="108.333" y="184.667"/>
      <point x="94.6667" y="146"/>
      <point x="81.6667" y="120.333" type="curve"/>
      <point x="74.6667" y="105.333"/>
      <point x="65.6667" y="93"/>
      <point x="56.6667" y="83.3333" type="curve"/>
      <point x="6.66667" y="83.3333" type="line"/>
      <point x="6.66667" y="-150" type="line"/>
    </contour>
    <contour>
      <point x="180" y="83.3333" type="line"/>
      <point x="189" y="93"/>
      <point x="198" y="105.333"/>
      <point x="205" y="120.333" type="curve"/>
      <point x="218" y="146"/>
      <point x="231.667" y="184.667"/>
      <point x="235" y="243.333" type="curve" smooth="yes"/>
      <point x="255" y="616.667" type="line"/>
      <point x="411.667" y="616.667" type="line"/>
      <point x="411.667" y="83.3333" type="line"/>
    </contour>
  </outline>
</glyph>
<glyph name="Ka-cy" format="2">
  <advance width="605"/>
  <unicode hex="041A"/>
  <anchor x="398.333" y="0" name="bottomright"/>
  <anchor x="289.667" y="350" name="center"/>
  <anchor x="296.333" y="700" name="top"/>
  <outline>
    <contour>
      <point x="503.333" y="-10" type="curve" smooth="yes"/>
      <point x="527.667" y="-10"/>
      <point x="546.667" y="-7.33333"/>
      <point x="560.333" y="-3.66667" type="curve" smooth="yes"/>
      <point x="565.143" y="-2.3116"/>
      <point x="576.601" y="1.91548"/>
      <point x="580" y="3.33333" type="curve"/>
      <point x="570" y="78.3333" type="line"/>
      <point x="565" y="78.3333" type="line"/>
      <point x="559" y="75.3333" type="line"/>
      <point x="554" y="74.3333"/>
      <point x="549" y="73.3333"/>
      <point x="545.667" y="73.3333" type="curve" smooth="yes"/>
      <point x="526.333" y="73.3333"/>
      <point x="514" y="86.3333"/>
      <point x="508.333" y="111.667" type="curve" smooth="yes"/>
      <point x="476.667" y="258.333" type="line"/>
      <point x="465.667" y="304"/>
      <point x="439.333" y="330.667"/>
      <point x="413.333" y="346.333" type="curve" smooth="yes"/>
      <point x="398.667" y="355"/>
      <point x="382.333" y="361.667"/>
      <point x="365" y="365" type="curve"/>
      <point x="381.333" y="368"/>
      <point x="396.333" y="373.667"/>
      <point x="410" y="382" type="curve" smooth="yes"/>
      <point x="433.667" y="396"/>
      <point x="458.667" y="420.333"/>
      <point x="468.333" y="465" type="curve" smooth="yes"/>
      <point x="493.333" y="588.333" type="line" smooth="yes"/>
      <point x="498.333" y="614"/>
      <point x="510.667" y="626.667"/>
      <point x="530" y="626.667" type="curve" smooth="yes"/>
      <point x="535" y="626.667"/>
      <point x="540" y="624.667"/>
      <point x="544" y="623.667" type="curve"/>
      <point x="547" y="622.667"/>
      <point x="549" y="622.667"/>
      <point x="550" y="621.667" type="curve"/>
      <point x="555" y="621.667" type="line"/>
      <point x="565" y="696.667" type="line"/>
      <point x="544" y="703" type="line"/>
      <point x="530.333" y="706.667"/>
      <point x="511.667" y="710"/>
      <point x="488.333" y="710" type="curve" smooth="yes"/>
      <point x="419.333" y="710"/>
      <point x="378.333" y="667.333"/>
      <point x="366.667" y="610" type="curve" smooth="yes"/>
      <point x="338.333" y="473.333" type="line" smooth="yes"/>
      <point x="328.333" y="424.333"/>
      <point x="306" y="401.667"/>
      <point x="253.333" y="401.667" type="curve" smooth="yes"/>
      <point x="213.333" y="401.667" type="line"/>
      <point x="213.333" y="700" type="line"/>
      <point x="86.6667" y="700" type="line"/>
      <point x="86.6667" y="0" type="line"/>
      <point x="213.333" y="0" type="line"/>
      <point x="213.333" y="318.333" type="line"/>
      <point x="266.667" y="318.333" type="line" smooth="yes"/>
      <point x="313.667" y="318.333"/>
      <point x="335.667" y="295"/>
      <point x="346.667" y="250" type="curve"/>
      <point x="381.667" y="90" type="line" smooth="yes"/>
      <point x="394" y="32.6667"/>
      <point x="434.333" y="-10"/>
    </contour>
  </outline>
</glyph>
<glyph name="El-cy" format="2">
  <advance width="627"/>
  <unicode hex="041B"/>
  <outline>
    <contour>
      <point x="71.6667" y="-10" type="curve" smooth="yes"/>
      <point x="163.667" y="-10"/>
      <point x="216.333" y="47.3333"/>
      <point x="223.333" y="160" type="curve"/>
      <point x="248.333" y="616.667" type="line"/>
      <point x="413.333" y="616.667" type="line"/>
      <point x="413.333" y="0" type="line"/>
      <point x="540" y="0" type="line"/>
      <point x="540" y="700" type="line"/>
      <point x="126.667" y="700" type="line"/>
      <point x="96.6667" y="160" type="line" smooth="yes"/>
      <point x="93.3333" y="95"/>
      <point x="73.3333" y="73.3333"/>
      <point x="48.3333" y="73.3333" type="curve" smooth="yes"/>
      <point x="44.3333" y="73.3333"/>
      <point x="39.3333" y="74.3333"/>
      <point x="33" y="75.3333" type="curve"/>
      <point x="25" y="78.3333" type="line"/>
      <point x="15" y="78.3333" type="line"/>
      <point x="6.66667" y="3.33333" type="line"/>
      <point x="10.6829" y="1.81229"/>
      <point x="22.0128" y="-2.36828"/>
      <point x="26.6667" y="-3.66667" type="curve" smooth="yes"/>
      <point x="39" y="-7.33333"/>
      <point x="54" y="-10"/>
    </contour>
  </outline>
</glyph>
<glyph name="Ef-cy" format="2">
  <advance width="783"/>
  <unicode hex="0424"/>
  <outline>
    <contour>
      <point x="455" y="-30" type="line"/>
      <point x="455" y="40" type="line"/>
      <point x="637.333" y="51"/>
      <point x="745" y="158"/>
      <point x="745" y="350" type="curve" smooth="yes"/>
      <point x="745" y="542"/>
      <point x="637.333" y="649"/>
      <point x="455" y="660" type="curve"/>
      <point x="455" y="730" type="line"/>
      <point x="328.333" y="730" type="line"/>
      <point x="328.333" y="660" type="line"/>
      <point x="146" y="649"/>
      <point x="38.3333" y="542"/>
      <point x="38.3333" y="350" type="curve" smooth="yes"/>
      <point x="38.3333" y="158"/>
      <point x="146" y="51"/>
      <point x="328.333" y="40" type="curve"/>
      <point x="328.333" y="-30" type="line"/>
    </contour>
    <contour>
      <point x="328.333" y="123.333" type="line"/>
      <point x="230" y="133.667"/>
      <point x="165" y="198.333"/>
      <point x="165" y="350" type="curve" smooth="yes"/>
      <point x="165" y="502"/>
      <point x="230" y="565.667"/>
      <point x="328.333" y="576.667" type="curve"/>
    </contour>
    <contour>
      <point x="455" y="576.667" type="line"/>
      <point x="553.333" y="565.667"/>
      <point x="618.333" y="502"/>
      <point x="618.333" y="350" type="curve" smooth="yes"/>
      <point x="618.333" y="198.333"/>
      <point x="553.333" y="133.667"/>
      <point x="455" y="123.333" type="curve"/>
    </contour>
  </outline>
</glyph>
<glyph name="Che-cy" format="2">
  <advance width="620"/>
  <unicode hex="0427"/>
  <anchor x="406.667" y="0" name="bottomright"/>
  <anchor x="303.333" y="293.333" name="center"/>
  <anchor x="290" y="700" name="top"/>
  <outline>
    <contour>
      <point x="533.333" y="0" type="line"/>
      <point x="533.333" y="700" type="line"/>
      <point x="406.667" y="700" type="line"/>
      <point x="406.667" y="345" type="line"/>
      <point x="398" y="342"/>
      <point x="388.333" y="340"/>
      <point x="377.667" y="337" type="curve"/>
      <point x="359.333" y="333"/>
      <point x="333.667" y="330"/>
      <point x="305" y="330" type="curve" smooth="yes"/>
      <point x="225.333" y="330"/>
      <point x="183.333" y="371.667"/>
      <point x="183.333" y="448.333" type="curve" smooth="yes"/>
      <point x="183.333" y="700" type="line"/>
      <point x="56.6667" y="700" type="line"/>
      <point x="56.6667" y="448.333" type="line" smooth="yes"/>
      <point x="56.6667" y="326.667"/>
      <point x="135.667" y="246.667"/>
      <point x="280" y="246.667" type="curve" smooth="yes"/>
      <point x="316.667" y="246.667"/>
      <point x="348.333" y="249.667"/>
      <point x="370.667" y="253.667" type="curve"/>
      <point x="379.915" y="255.666"/>
      <point x="399.231" y="259.858"/>
      <point x="406.667" y="261.667" type="curve"/>
      <point x="406.667" y="0" type="line"/>
    </contour>
  </outline>
</glyph>
<glyph name="Softsign-cy" format="2">
  <advance width="583"/>
  <unicode hex="042C"/>
  <outline>
    <contour>
      <point x="286.667" y="0" type="line" smooth="yes"/>
      <point x="468.333" y="0"/>
      <point x="548.333" y="79.6667"/>
      <point x="548.333" y="223.333" type="curve" smooth="yes"/>
      <point x="548.333" y="367"/>
      <point x="468.333" y="446.667"/>
      <point x="286.667" y="446.667" type="curve" smooth="yes"/>
      <point x="213.333" y="446.667" type="line"/>
      <point x="213.333" y="700" type="line"/>
      <point x="86.6667" y="700" type="line"/>
      <point x="86.6667" y="0" type="line"/>
    </contour>
    <contour>
      <point x="213.333" y="363.333" type="line"/>
      <point x="286.667" y="363.333" type="line" smooth="yes"/>
      <point x="379.667" y="363.333"/>
      <point x="421.667" y="320.667"/>
      <point x="421.667" y="223.333" type="curve" smooth="yes"/>
      <point x="421.667" y="126"/>
      <point x="379.667" y="83.3333"/>
      <point x="286.667" y="83.3333" type="curve" smooth="yes"/>
      <point x="213.333" y="83.3333" type="line"/>
    </contour>
  </outline>
</glyph>
<glyph name="ve-cy" format="2">
  <advance width="523"/>
  <unicode hex="0432"/>
  <outline>
    <contour>
      <point x="268.333" y="0" type="line" smooth="yes"/>
      <point x="425" y="0"/>
      <point x="485" y="60"/>
      <point x="485" y="135" type="curve" smooth="yes"/>
      <point x="485" y="208"/>
      <point x="429" y="248.667"/>
      <point x="363.333" y="260" type="curve"/>
      <point x="417" y="274.667"/>
      <point x="465" y="307"/>
      <point x="465" y="370" type="curve" smooth="yes"/>
      <point x="465" y="439"/>
      <point x="404.667" y="500"/>
      <point x="268.333" y="500" type="curve" smooth="yes"/>
      <point x="71.6667" y="500" type="line"/>
      <point x="71.6667" y="0" type="line"/>
    </contour>
    <contour>
      <point x="198.333" y="213.333" type="line"/>
      <point x="268.333" y="213.333" type="line" smooth="yes"/>
      <point x="332" y="213.333"/>
      <point x="358.333" y="186.667"/>
      <point x="358.333" y="148.333" type="curve" smooth="yes"/>
      <point x="358.333" y="110"/>
      <point x="332" y="83.3333"/>
      <point x="268.333" y="83.3333" type="curve" smooth="yes"/>
      <point x="198.333" y="83.3333" type="line"/>
    </contour>
    <contour>
      <point x="198.333" y="416.667" type="line"/>
      <point x="268.333" y="416.667" type="line" smooth="yes"/>
      <point x="312" y="416.667"/>
      <point x="338.333" y="390.667"/>
      <point x="338.333" y="356.667" type="curve" smooth="yes"/>
      <point x="338.333" y="322.667"/>
      <point x="312" y="296.667"/>
      <point x="268.333" y="296.667" type="curve" smooth="yes"/>
      <point x="198.333" y="296.667" type="line"/>
    </contour>
  </outline>
</glyph>
<glyph name="ii-cy" format="2">
  <advance width="570"/>
  <unicode hex="0438"/>
  <anchor x="371.667" y="0" name="bottomright"/>
  <anchor x="285" y="500" name="top"/>
  <outline>
    <contour>
      <point x="195" y="0" type="line"/>
      <point x="345" y="258.333" type="line" smooth="yes"/>
      <point x="353.333" y="273.333"/>
      <point x="360.667" y="288.667"/>
      <point x="365" y="301" type="curve"/>
      <point x="367.508" y="307.192"/>
      <point x="370.594" y="316.449"/>
      <point x="371.667" y="321.667" type="curve"/>
      <point x="375.667" y="321.667" type="line"/>
      <point x="373.667" y="301" type="line" smooth="yes"/>
      <point x="372.667" y="288.667"/>
      <point x="371.667" y="273.333"/>
      <point x="371.667" y="258.333" type="curve" smooth="yes"/>
      <point x="371.667" y="0" type="line"/>
      <point x="498.333" y="0" type="line"/>
      <point x="498.333" y="500" type="line"/>
      <point x="375" y="500" type="line"/>
      <point x="225" y="241.667" type="line" smooth="yes"/>
      <point x="216" y="226.667"/>
      <point x="209.333" y="211.333"/>
      <point x="205" y="199" type="curve"/>
      <point x="202.492" y="192.808"/>
      <point x="199.406" y="183.551"/>
      <point x="198.333" y="178.333" type="curve"/>
      <point x="194.333" y="178.333" type="line"/>
      <point x="196.333" y="199" type="line" smooth="yes"/>
      <point x="197.333" y="211.333"/>
      <point x="198.333" y="226.667"/>
      <point x="198.333" y="241.667" type="curve" smooth="yes"/>
      <point x="198.333" y="500" type="line"/>
      <point x="71.6667" y="500" type="line"/>
      <point x="71.6667" y="0" type="line"/>
    </contour>
  </outline>
</glyph>
<glyph name="ka-cy" format="2">
  <advance width="530"/>
  <unicode hex="043A"/>
  <anchor x="336.667" y="0" name="bottomright"/>
  <anchor x="251.667" y="250" name="center"/>
  <anchor x="265" y="500" name="top"/>
  <outline>
    <contour>
      <point x="435" y="-10" type="curve" smooth="yes"/>
      <point x="456" y="-10"/>
      <point x="473.333" y="-7.33333"/>
      <point x="487.333" y="-3.66667" type="curve"/>
      <point x="495" y="-1.33333"/>
      <point x="502" y="0.666667"/>
      <point x="508.333" y="3.33333" type="curve"/>
      <point x="495" y="78.3333" type="line"/>
      <point x="490" y="78.3333" type="line"/>
      <point x="484" y="75.3333" type="line"/>
      <point x="479" y="74.3333"/>
      <point x="474" y="73.3333"/>
      <point x="470" y="73.3333" type="curve" smooth="yes"/>
      <point x="457.667" y="73.3333"/>
      <point x="447.667" y="83.3333"/>
      <point x="443.333" y="100" type="curve" smooth="yes"/>
      <point x="421.667" y="185" type="line" smooth="yes"/>
      <point x="413.333" y="217"/>
      <point x="389.333" y="236"/>
      <point x="367.333" y="247" type="curve"/>
      <point x="354.667" y="254"/>
      <point x="340.333" y="258"/>
      <point x="325" y="260" type="curve"/>
      <point x="338.667" y="262.333"/>
      <point x="351" y="266.333"/>
      <point x="362.667" y="271.333" type="curve" smooth="yes"/>
      <point x="382.333" y="280.333"/>
      <point x="404" y="296"/>
      <point x="411.667" y="325" type="curve" smooth="yes"/>
      <point x="431.667" y="400" type="line" smooth="yes"/>
      <point x="436" y="416.667"/>
      <point x="446" y="426.667"/>
      <point x="458.333" y="426.667" type="curve" smooth="yes"/>
      <point x="463.333" y="426.667"/>
      <point x="468.333" y="424.667"/>
      <point x="472.333" y="423.667" type="curve"/>
      <point x="475.333" y="422.667"/>
      <point x="477.333" y="422.667"/>
      <point x="478.333" y="421.667" type="curve"/>
      <point x="483.333" y="421.667" type="line"/>
      <point x="496.667" y="496.667" type="line"/>
      <point x="491.143" y="498.252"/>
      <point x="482.006" y="500.704"/>
      <point x="475.667" y="503" type="curve"/>
      <point x="462" y="506.667"/>
      <point x="444.333" y="510"/>
      <point x="423.333" y="510" type="curve" smooth="yes"/>
      <point x="357" y="510"/>
      <point x="325.667" y="477"/>
      <point x="313.333" y="428.333" type="curve" smooth="yes"/>
      <point x="290" y="340" type="line" smooth="yes"/>
      <point x="283" y="313"/>
      <point x="268.667" y="296.667"/>
      <point x="235" y="296.667" type="curve" smooth="yes"/>
      <point x="198.333" y="296.667" type="line"/>
      <point x="198.333" y="500" type="line"/>
      <point x="71.6667" y="500" type="line"/>
      <point x="71.6667" y="0" type="line"/>
      <point x="198.333" y="0" type="line"/>
      <point x="198.333" y="213.333" type="line"/>
      <point x="245" y="213.333" type="line" smooth="yes"/>
      <point x="277.333" y="213.333"/>
      <point x="292.667" y="197"/>
      <point x="300" y="170" type="curve" smooth="yes"/>
      <point x="325" y="71.6667" type="line" smooth="yes"/>
      <point x="337.333" y="23.3333"/>
      <point x="369" y="-10"/>
    </contour>
  </outline>
</glyph>
<glyph name="em-cy" format="2">
  <advance width="720"/>
  <unicode hex="043C"/>
  <outline>
    <contour>
      <point x="198.333" y="0" type="line"/>
      <point x="198.333" y="235" type="line" smooth="yes"/>
      <point x="198.333" y="250"/>
      <point x="197.333" y="265.333"/>
      <point x="196.333" y="277.667" type="curve" smooth="yes"/>
      <point x="194.333" y="298.333" type="line"/>
      <point x="198.333" y="298.333" type="line"/>
      <point x="199.457" y="293.166"/>
      <point x="202.761" y="284.128"/>
      <point x="205.333" y="278" type="curve"/>
      <point x="209.667" y="265.667"/>
      <point x="216" y="251"/>
      <point x="225" y="235" type="curve" smooth="yes"/>
      <point x="306.667" y="81.6667" type="line"/>
      <point x="413.333" y="81.6667" type="line"/>
      <point x="495" y="235" type="line" smooth="yes"/>
      <point x="503" y="250"/>
      <point x="509" y="265.667"/>
      <point x="514" y="278" type="curve" smooth="yes"/>
      <point x="521.667" y="298.333" type="line"/>
      <point x="525.667" y="298.333" type="line"/>
      <point x="523.667" y="277.667" type="line" smooth="yes"/>
      <point x="522.667" y="265.333"/>
      <point x="521.667" y="250"/>
      <point x="521.667" y="235" type="curve" smooth="yes"/>
      <point x="521.667" y="0" type="line"/>
      <point x="648.333" y="0" type="line"/>
      <point x="648.333" y="500" type="line"/>
      <point x="520" y="500" type="line"/>
      <point x="380" y="240" type="line"/>
      <point x="373.667" y="229.667"/>
      <point x="370" y="219.667"/>
      <point x="367" y="209.333" type="curve"/>
      <point x="365.731" y="205.62"/>
      <point x="362.903" y="196.938"/>
      <point x="362" y="193.333" type="curve"/>
      <point x="358" y="193.333" type="line"/>
      <point x="357.097" y="196.938"/>
      <point x="354.269" y="205.62"/>
      <point x="353" y="209.333" type="curve"/>
      <point x="350" y="219.667"/>
      <point x="345" y="229.667"/>
      <point x="340" y="240" type="curve"/>
      <point x="200" y="500" type="line"/>
      <point x="71.6667" y="500" type="line"/>
      <point x="71.6667" y="0" type="line"/>
    </contour>
  </outline>
</glyph>
<glyph name="te-cy" format="2">
  <advance width="440"/>
  <unicode hex="0442"/>
  <outline>
    <contour>
      <point x="283.333" y="0" type="line"/>
      <point x="283.333" y="416.667" type="line"/>
      <point x="430" y="416.667" type="line"/>
      <point x="430" y="500" type="line"/>
      <point x="10" y="500" type="line"/>
      <point x="10" y="416.667" type="line"/>
      <point x="156.667" y="416.667" type="line"/>
      <point x="156.667" y="0" type="line"/>
    </contour>
  </outline>
</glyph>
<glyph name="tse-cy" format="2">
  <advance width="588"/>
  <unicode hex="0446"/>
  <outline>
    <contour>
      <point x="553.333" y="-140" type="line"/>
      <point x="553.333" y="83.3333" type="line"/>
      <point x="488.333" y="83.3333" type="line"/>
      <point x="488.333" y="500" type="line"/>
      <point x="361.667" y="500" type="line"/>
      <point x="361.667" y="83.3333" type="line"/>
      <point x="198.333" y="83.3333" type="line"/>
      <point x="198.333" y="500" type="line"/>
      <point x="71.6667" y="500" type="line"/>
      <point x="71.6667" y="0" type="line"/>
      <point x="438.333" y="0" type="line"/>
      <point x="456.667" y="-140" type="line"/>
    </contour>
  </outline>
</glyph>
<glyph name="che-cy" format="2">
  <advance width="540"/>
  <unicode hex="0447"/>
  <anchor x="341.667" y="0" name="bottomright"/>
  <anchor x="265.667" y="211" name="center"/>
  <anchor x="270" y="500" name="top"/>
  <outline>
    <contour>
      <point x="468.333" y="0" type="line"/>
      <point x="468.333" y="500" type="line"/>
      <point x="341.667" y="500" type="line"/>
      <point x="341.667" y="261.667" type="line"/>
      <point x="335.667" y="258.667"/>
      <point x="328.667" y="256.667"/>
      <point x="321" y="253.667" type="curve"/>
      <point x="307.667" y="249.667"/>
      <point x="288.667" y="246.667"/>
      <point x="265" y="246.667" type="curve" smooth="yes"/>
      <point x="211" y="246.667"/>
      <point x="178.333" y="279"/>
      <point x="178.333" y="335" type="curve" smooth="yes"/>
      <point x="178.333" y="500" type="line"/>
      <point x="51.6667" y="500" type="line"/>
      <point x="51.6667" y="335" type="line" smooth="yes"/>
      <point x="51.6667" y="229.333"/>
      <point x="117.667" y="163.333"/>
      <point x="240" y="163.333" type="curve" smooth="yes"/>
      <point x="272" y="163.333"/>
      <point x="297.667" y="166.333"/>
      <point x="315.333" y="170.333" type="curve"/>
      <point x="325.333" y="173.333"/>
      <point x="334.333" y="175.333"/>
      <point x="341.667" y="178.333" type="curve"/>
      <point x="341.667" y="0" type="line"/>
    </contour>
  </outline>
</glyph>
<glyph name="shcha-cy" format="2">
  <advance width="838"/>
  <unicode hex="0449"/>
  <outline>
    <contour>
      <point x="803.333" y="-140" type="line"/>
      <point x="803.333" y="83.3333" type="line"/>
      <point x="738.333" y="83.3333" type="line"/>
      <point x="738.333" y="500" type="line"/>
      <point x="611.667" y="500" type="line"/>
      <point x="611.667" y="83.3333" type="line"/>
      <point x="468.333" y="83.3333" type="line"/>
      <point x="468.333" y="500" type="line"/>
      <point x="341.667" y="500" type="line"/>
      <point x="341.667" y="83.3333" type="line"/>
      <point x="198.333" y="83.3333" type="line"/>
      <point x="198.333" y="500" type="line"/>
      <point x="71.6667" y="500" type="line"/>
      <point x="71.6667" y="0" type="line"/>
      <point x="688.333" y="0" type="line"/>
      <point x="706.667" y="-140" type="line"/>
    </contour>
  </outline>
</glyph>
<glyph name="yeru-cy" format="2">
  <advance width="753"/>
  <unicode hex="044B"/>
  <anchor x="377" y="500" name="top"/>
  <outline>
    <contour>
      <point x="261.667" y="0" type="line" smooth="yes"/>
      <point x="418.333" y="0"/>
      <point x="478.333" y="60"/>
      <point x="478.333" y="168.333" type="curve" smooth="yes"/>
      <point x="478.333" y="276.667"/>
      <point x="418.333" y="336.667"/>
      <point x="261.667" y="336.667" type="curve" smooth="yes"/>
      <point x="198.333" y="336.667" type="line"/>
      <point x="198.333" y="500" type="line"/>
      <point x="71.6667" y="500" type="line"/>
      <point x="71.6667" y="0" type="line"/>
    </contour>
    <contour>
      <point x="198.333" y="253.333" type="line"/>
      <point x="261.667" y="253.333" type="line" smooth="yes"/>
      <point x="322.667" y="253.333"/>
      <point x="351.667" y="224"/>
      <point x="351.667" y="168.333" type="curve" smooth="yes"/>
      <point x="351.667" y="112.667"/>
      <point x="322.667" y="83.3333"/>
      <point x="261.667" y="83.3333" type="curve" smooth="yes"/>
      <point x="198.333" y="83.3333" type="line"/>
    </contour>
    <contour>
      <point x="681.667" y="0" type="line"/>
      <point x="681.667" y="500" type="line"/>
      <point x="555" y="500" type="line"/>
      <point x="555" y="0" type="line"/>
    </contour>
  </outline>
</glyph>
<glyph name="ereversed-cy" format="2">
  <advance width="468"/>
  <unicode hex="044D"/>
  <outline>
    <contour>
      <point x="188.333" y="-10" type="curve" smooth="yes"/>
      <point x="340.667" y="-10"/>
      <point x="425" y="74.3333"/>
      <point x="425" y="250" type="curve" smooth="yes"/>
      <point x="425" y="425.667"/>
      <point x="340.667" y="510"/>
      <point x="198.333" y="510" type="curve" smooth="yes"/>
      <point x="147.333" y="510"/>
      <point x="106.667" y="497"/>
      <point x="76.3333" y="484" type="curve" smooth="yes"/>
      <point x="59.3333" y="476.667"/>
      <point x="43.6667" y="467.667"/>
      <point x="30" y="458.333" type="curve"/>
      <point x="71.6667" y="385" type="line"/>
      <point x="81.6667" y="385" type="line"/>
      <point x="90" y="392.333"/>
      <point x="99.6667" y="399.333"/>
      <point x="111" y="405.667" type="curve" smooth="yes"/>
      <point x="130.333" y="416.667"/>
      <point x="156" y="426.667"/>
      <point x="188.333" y="426.667" type="curve" smooth="yes"/>
      <point x="247" y="426.667"/>
      <point x="283.667" y="394.333"/>
      <point x="294.667" y="296.667" type="curve"/>
      <point x="121.333" y="296.667" type="line"/>
      <point x="121.333" y="213.333" type="line"/>
      <point x="298" y="213.333" type="line"/>
      <point x="289" y="108.333"/>
      <point x="246" y="73.3333"/>
      <point x="178.333" y="73.3333" type="curve" smooth="yes"/>
      <point x="146" y="73.3333"/>
      <point x="120.333" y="83"/>
      <point x="101" y="94" type="curve" smooth="yes"/>
      <point x="89.6667" y="100.333"/>
      <point x="80" y="107.333"/>
      <point x="71.6667" y="115" type="curve"/>
      <point x="61.6667" y="115" type="line"/>
      <point x="20" y="41.6667" type="line"/>
      <point x="33.6667" y="32"/>
      <point x="49.3333" y="23"/>
      <point x="66.3333" y="15.6667" type="curve" smooth="yes"/>
      <point x="96.6667" y="2"/>
      <point x="137.333" y="-10"/>
    </contour>
  </outline>
</glyph>
<glyph name="ia-cy" format="2">
  <advance width="533"/>
  <unicode hex="044F"/>
  <outline>
    <contour>
      <point x="98.3333" y="-10" type="curve" smooth="yes"/>
      <point x="164.333" y="-10"/>
      <point x="194" y="23"/>
      <point x="208.333" y="71.6667" type="curve" smooth="yes"/>
      <point x="228.333" y="140" type="line" smooth="yes"/>
      <point x="236" y="168.333"/>
      <point x="254" y="183.333"/>
      <point x="281.667" y="183.333" type="curve" smooth="yes"/>
      <point x="335" y="183.333" type="line"/>
      <point x="335" y="0" type="line"/>
      <point x="461.667" y="0" type="line"/>
      <point x="461.667" y="500" type="line"/>
      <point x="266.667" y="500" type="line" smooth="yes"/>
      <point x="116.667" y="500"/>
      <point x="53.3333" y="437.333"/>
      <point x="53.3333" y="345" type="curve" smooth="yes"/>
      <point x="53.3333" y="286"/>
      <point x="84.3333" y="256"/>
      <point x="116.667" y="237" type="curve" smooth="yes"/>
      <point x="135" y="226"/>
      <point x="155.667" y="219"/>
      <point x="180" y="215" type="curve"/>
      <point x="168.333" y="212.667"/>
      <point x="158" y="209"/>
      <point x="148.333" y="204.667" type="curve"/>
      <point x="131.333" y="196.333"/>
      <point x="113.667" y="182.667"/>
      <point x="106.667" y="158.333" type="curve" smooth="yes"/>
      <point x="90" y="100" type="line" smooth="yes"/>
      <point x="85.3333" y="83.3333"/>
      <point x="75.3333" y="73.3333"/>
      <point x="63.3333" y="73.3333" type="curve" smooth="yes"/>
      <point x="59.3333" y="73.3333"/>
      <point x="54.3333" y="74.3333"/>
      <point x="49.3333" y="75.3333" type="curve"/>
      <point x="43.3333" y="78.3333" type="line"/>
      <point x="38.3333" y="78.3333" type="line"/>
      <point x="25" y="3.33333" type="line"/>
      <point x="31.3333" y="0.666667"/>
      <point x="38.3333" y="-1.33333"/>
      <point x="46" y="-3.66667" type="curve"/>
      <point x="60" y="-7.33333"/>
      <point x="77.3333" y="-10"/>
    </contour>
    <contour>
      <point x="266.667" y="266.667" type="line" smooth="yes"/>
      <point x="207.667" y="266.667"/>
      <point x="180" y="291.667"/>
      <point x="180" y="341.667" type="curve" smooth="yes"/>
      <point x="180" y="391.667"/>
      <point x="207.667" y="416.667"/>
      <point x="266.667" y="416.667" type="curve" smooth="yes"/>
      <point x="335" y="416.667" type="line"/>
      <point x="335" y="266.667" type="line"/>
    </contour>
  </outline>
</glyph>
<glyph name="e-cy" format="2">
  <advance width="468"/>
  <unicode hex="0454"/>
  <outline>
    <contour>
      <point x="280" y="-10" type="curve" smooth="yes"/>
      <point x="331" y="-10"/>
      <point x="371" y="2"/>
      <point x="401.333" y="15.6667" type="curve" smooth="yes"/>
      <point x="418.333" y="23"/>
      <point x="434" y="32"/>
      <point x="448.333" y="41.6667" type="curve"/>
      <point x="406.667" y="115" type="line"/>
      <point x="396.667" y="115" type="line"/>
      <point x="388" y="107.333"/>
      <point x="378.333" y="100.333"/>
      <point x="367" y="94" type="curve" smooth="yes"/>
      <point x="347.667" y="83"/>
      <point x="321.667" y="73.3333"/>
      <point x="290" y="73.3333" type="curve" smooth="yes"/>
      <point x="221.667" y="73.3333"/>
      <point x="179.333" y="108.333"/>
      <point x="170.333" y="213.333" type="curve"/>
      <point x="347" y="213.333" type="line"/>
      <point x="347" y="296.667" type="line"/>
      <point x="173.667" y="296.667" type="line"/>
      <point x="184.667" y="394.333"/>
      <point x="221.333" y="426.667"/>
      <point x="280" y="426.667" type="curve" smooth="yes"/>
      <point x="311.667" y="426.667"/>
      <point x="337.667" y="416.667"/>
      <point x="357" y="405.667" type="curve" smooth="yes"/>
      <point x="368.333" y="399.333"/>
      <point x="378" y="392.333"/>
      <point x="386.667" y="385" type="curve"/>
      <point x="396.667" y="385" type="line"/>
      <point x="438.333" y="458.333" type="line"/>
      <point x="424" y="467.667"/>
      <point x="408.333" y="476.667"/>
      <point x="391.333" y="484" type="curve" smooth="yes"/>
      <point x="361" y="497"/>
      <point x="321" y="510"/>
      <point x="270" y="510" type="curve" smooth="yes"/>
      <point x="127.667" y="510"/>
      <point x="43.3333" y="425.667"/>
      <point x="43.3333" y="250" type="curve" smooth="yes"/>
      <point x="43.3333" y="74.3333"/>
      <point x="127.667" y="-10"/>
    </contour>
  </outline>
</glyph>
<glyph name="nje-cy" format="2">
  <advance width="797"/>
  <unicode hex="045A"/>
  <outline>
    <contour>
      <point x="198.333" y="0" type="line"/>
      <point x="198.333" y="233.333" type="line"/>
      <point x="358.333" y="233.333" type="line"/>
      <point x="358.333" y="0" type="line"/>
      <point x="558.333" y="0" type="line" smooth="yes"/>
      <point x="715" y="0"/>
      <point x="775" y="60"/>
      <point x="775" y="158.333" type="curve" smooth="yes"/>
      <point x="775" y="256.667"/>
      <point x="715" y="316.667"/>
      <point x="558.333" y="316.667" type="curve" smooth="yes"/>
      <point x="485" y="316.667" type="line"/>
      <point x="485" y="500" type="line"/>
      <point x="358.333" y="500" type="line"/>
      <point x="358.333" y="316.667" type="line"/>
      <point x="198.333" y="316.667" type="line"/>
      <point x="198.333" y="500" type="line"/>
      <point x="71.6667" y="500" type="line"/>
      <point x="71.6667" y="0" type="line"/>
    </contour>
    <contour>
      <point x="485" y="233.333" type="line"/>
      <point x="558.333" y="233.333" type="line" smooth="yes"/>
      <point x="619.333" y="233.333"/>
      <point x="648.333" y="203.667"/>
      <point x="648.333" y="158.333" type="curve" smooth="yes"/>
      <point x="648.333" y="113"/>
      <point x="619.333" y="83.3333"/>
      <point x="558.333" y="83.3333" type="curve" smooth="yes"/>
      <point x="485" y="83.3333" type="line"/>
    </contour>
  </outline>
</glyph>
<glyph name="yusbig-cy" format="2">
  <advance width="760"/>
  <unicode hex="046B"/>
  <outline>
    <contour>
      <point x="95" y="-10" type="curve" smooth="yes"/>
      <point x="161" y="-10"/>
      <point x="192.667" y="23.3333"/>
      <point x="205" y="71.6667" type="curve" smooth="yes"/>
      <point x="230" y="170" type="line" smooth="yes"/>
      <point x="236.667" y="197"/>
      <point x="252.667" y="213.333"/>
      <point x="285" y="213.333" type="curve" smooth="yes"/>
      <point x="316.667" y="213.333" type="line"/>
      <point x="316.667" y="0" type="line"/>
      <point x="443.333" y="0" type="line"/>
      <point x="443.333" y="213.333" type="line"/>
      <point x="475" y="213.333" type="line" smooth="yes"/>
      <point x="507.333" y="213.333"/>
      <point x="523.333" y="197"/>
      <point x="530" y="170" type="curve" smooth="yes"/>
      <point x="555" y="71.6667" type="line" smooth="yes"/>
      <point x="567.333" y="23.3333"/>
      <point x="599" y="-10"/>
      <point x="665" y="-10" type="curve" smooth="yes"/>
      <point x="692.667" y="-10"/>
      <point x="720.333" y="-4.33333"/>
      <point x="738.333" y="3.33333" type="curve"/>
      <point x="725" y="78.3333" type="line"/>
      <point x="720" y="78.3333" type="line"/>
      <point x="713.667" y="74.6667"/>
      <point x="707.667" y="73.3333"/>
      <point x="702" y="73.3333" type="curve" smooth="yes"/>
      <point x="688.333" y="73.3333"/>
      <point x="677.667" y="82.6667"/>
      <point x="673.333" y="100" type="curve" smooth="yes"/>
      <point x="651.667" y="185" type="line" smooth="yes"/>
      <point x="637" y="243.333"/>
      <point x="588" y="265.333"/>
      <point x="482" y="268.667" type="curve"/>
      <point x="646" y="500" type="line"/>
      <point x="109" y="500" type="line"/>
      <point x="273" y="269" type="line"/>
      <point x="171.667" y="265"/>
      <point x="123" y="244"/>
      <point x="108.333" y="185" type="curve" smooth="yes"/>
      <point x="86.6667" y="100" type="line" smooth="yes"/>
      <point x="82.3333" y="83.3333"/>
      <point x="72.3333" y="73.3333"/>
      <point x="60" y="73.3333" type="curve" smooth="yes"/>
      <point x="51.6667" y="73.3333"/>
      <point x="46.3333" y="74.6667"/>
      <point x="40" y="78.3333" type="curve"/>
      <point x="35" y="78.3333" type="line"/>
      <point x="21.6667" y="3.33333" type="line"/>
      <point x="37.6667" y="-3"/>
      <point x="65.3333" y="-10"/>
    </contour>
    <contour>
      <point x="271" y="416.667" type="line"/>
      <point x="488.333" y="416.667" type="line"/>
      <point x="382" y="253.333" type="line"/>
      <point x="377.333" y="253.333" type="line"/>
    </contour>
  </outline>
</glyph>
<glyph name="Ghemiddlehook-cy" format="2">
  <advance width="600"/>
  <unicode hex="0494"/>
  <outline>
    <component base="Ge-cy"/>
    <contour>
      <point x="388.333" y="-100" type="curve" smooth="yes"/>
      <point x="496" y="-100"/>
      <point x="563.333" y="-32"/>
      <point x="563.333" y="66.6667" type="curve" smooth="yes"/>
      <point x="563.333" y="208.333" type="line" smooth="yes"/>
      <point x="563.333" y="330"/>
      <point x="484.333" y="410"/>
      <point x="340" y="410" type="curve" smooth="yes"/>
      <point x="303.333" y="410"/>
      <point x="271.667" y="406"/>
      <point x="249.333" y="402" type="curve" smooth="yes"/>
      <point x="213.333" y="395" type="line"/>
      <point x="213.333" y="311.667" type="line"/>
      <point x="242.333" y="318.667" type="line" smooth="yes"/>
      <point x="260.667" y="322.667"/>
      <point x="285.333" y="326.667"/>
      <point x="315" y="326.667" type="curve" smooth="yes"/>
      <point x="394.667" y="326.667"/>
      <point x="436.667" y="285"/>
      <point x="436.667" y="208.333" type="curve" smooth="yes"/>
      <point x="436.667" y="66.6667" type="line" smooth="yes"/>
      <point x="436.667" y="9.33333"/>
      <point x="410.667" y="-16.6667"/>
      <point x="375" y="-16.6667" type="curve" smooth="yes"/>
      <point x="360" y="-16.6667"/>
      <point x="343" y="-14.3333"/>
      <point x="326.667" y="-6.66667" type="curve"/>
      <point x="316.667" y="-6.66667" type="line"/>
      <point x="303.333" y="-81.6667" type="line"/>
      <point x="325.667" y="-93"/>
      <point x="354.667" y="-100"/>
    </contour>
  </outline>
</glyph>
<glyph name="Zhedescender-cy" format="2">
  <advance width="887"/>
  <unicode hex="0496"/>
  <outline>
    <component base="Zhe-cy"/>
    <contour>
      <point x="861.667" y="-150" type="line"/>
      <point x="861.667" y="3.33333" type="line"/>
      <point x="746.667" y="0" type="line"/>
      <point x="765" y="-150" type="line"/>
    </contour>
  </outline>
</glyph>
<glyph name="zedescender-cy" format="2">
  <advance width="460"/>
  <unicode hex="0499"/>
  <outline>
    <component base="ze-cy"/>
    <contour>
      <point x="286.333" y="-140" type="line"/>
      <point x="286.333" y="3.33333" type="line"/>
      <point x="171.333" y="0" type="line"/>
      <point x="189.667" y="-140" type="line"/>
    </contour>
  </outline>
</glyph>
<glyph name="kadescender-cy" format="2">
  <advance width="530"/>
  <unicode hex="049B"/>
  <outline>
    <component base="ka-cy"/>
    <contour>
      <point x="508.333" y="-140" type="line"/>
      <point x="508.333" y="3.33333" type="line"/>
      <point x="393.333" y="0" type="line"/>
      <point x="411.667" y="-140" type="line"/>
    </contour>
  </outline>
</glyph>
<glyph name="Kaverticalstroke-cy" format="2">
  <advance width="635"/>
  <unicode hex="049C"/>
  <outline>
    <component base="verticalbar-cy.case" xScale="1" xOffset="212.667" yOffset="-17"/>
    <contour>
      <point x="533.333" y="-10" type="curve" smooth="yes"/>
      <point x="557.667" y="-10"/>
      <point x="576.667" y="-7.66667"/>
      <point x="590.333" y="-3.66667" type="curve"/>
      <point x="595.259" y="-1.93617"/>
      <point x="606.598" y="1.91443"/>
      <point x="610" y="3.33333" type="curve"/>
      <point x="600" y="78.3333" type="line"/>
      <point x="595" y="78.3333" type="line"/>
      <point x="589" y="75.3333" type="line"/>
      <point x="584" y="74.3333"/>
      <point x="579" y="73.3333"/>
      <point x="575.667" y="73.3333" type="curve" smooth="yes"/>
      <point x="556.333" y="73.3333"/>
      <point x="544" y="86.3333"/>
      <point x="538.333" y="111.667" type="curve" smooth="yes"/>
      <point x="506.667" y="258.333" type="line"/>
      <point x="495.667" y="304"/>
      <point x="469.333" y="330.667"/>
      <point x="443.333" y="346.333" type="curve" smooth="yes"/>
      <point x="428.667" y="355.333"/>
      <point x="412.333" y="361.667"/>
      <point x="395" y="365" type="curve"/>
      <point x="411.333" y="368"/>
      <point x="426.333" y="373.667"/>
      <point x="440" y="382" type="curve" smooth="yes"/>
      <point x="463.667" y="396"/>
      <point x="489.333" y="420.333"/>
      <point x="498.333" y="465" type="curve" smooth="yes"/>
      <point x="523.333" y="588.333" type="line" smooth="yes"/>
      <point x="528.667" y="614"/>
      <point x="540.667" y="626.667"/>
      <point x="560" y="626.667" type="curve" smooth="yes"/>
      <point x="565" y="626.667"/>
      <point x="570" y="624.667"/>
      <point x="574" y="623.667" type="curve"/>
      <point x="577" y="622.667"/>
      <point x="579" y="622.667"/>
      <point x="580" y="621.667" type="curve"/>
      <point x="585" y="621.667" type="line"/>
      <point x="595" y="696.667" type="line"/>
      <point x="574" y="703" type="line" smooth="yes"/>
      <point x="560.333" y="707"/>
      <point x="541.667" y="710"/>
      <point x="518.333" y="710" type="curve" smooth="yes"/>
      <point x="449.333" y="710"/>
      <point x="408.333" y="667.333"/>
      <point x="396.667" y="610" type="curve" smooth="yes"/>
      <point x="368.333" y="473.333" type="line" smooth="yes"/>
      <point x="358.333" y="424.333"/>
      <point x="336" y="401.667"/>
      <point x="263.333" y="401.667" type="curve" smooth="yes"/>
      <point x="213.333" y="401.667" type="line"/>
      <point x="213.333" y="700" type="line"/>
      <point x="86.6667" y="700" type="line"/>
      <point x="86.6667" y="0" type="line"/>
      <point x="213.333" y="0" type="line"/>
      <point x="213.333" y="318.333" type="line"/>
      <point x="276.667" y="318.333" type="line" smooth="yes"/>
      <point x="343.667" y="318.333"/>
      <point x="365.667" y="295"/>
      <point x="376.667" y="250" type="curve"/>
      <point x="411.667" y="90" type="line" smooth="yes"/>
      <point x="424" y="32.6667"/>
      <point x="464.333" y="-10"/>
    </contour>
  </outline>
</glyph>
<glyph name="ustrait-cy" format="2">
  <advance width="490"/>
  <unicode hex="04AF"/>
  <anchor x="244" y="0" name="center"/>
  <outline>
    <contour>
      <point x="271.667" y="-200" type="line"/>
      <point x="308.333" y="-163.333" type="line"/>
      <point x="308.333" y="0" type="line"/>
      <point x="478.333" y="500" type="line"/>
      <point x="351.667" y="500" type="line"/>
      <point x="256.667" y="193.333" type="line" smooth="yes"/>
      <point x="253" y="181"/>
      <point x="251" y="167"/>
      <point x="249.333" y="154.667" type="curve" smooth="yes"/>
      <point x="247" y="133.333" type="line"/>
      <point x="243" y="133.333" type="line"/>
      <point x="240.667" y="154.667" type="line" smooth="yes"/>
      <point x="239" y="167"/>
      <point x="237" y="181"/>
      <point x="233.333" y="193.333" type="curve" smooth="yes"/>
      <point x="138.333" y="500" type="line"/>
      <point x="11.6667" y="500" type="line"/>
      <point x="181.667" y="0" type="line"/>
      <point x="181.667" y="-200" type="line"/>
    </contour>
  </outline>
</glyph>
<glyph name="Chekhakassian-cy" format="2">
  <advance width="620"/>
  <unicode hex="04CB"/>
  <outline>
    <component base="Che-cy"/>
    <contour>
      <point x="438.333" y="-150" type="line"/>
      <point x="456.667" y="0" type="line"/>
      <point x="533.333" y="0" type="line"/>
      <point x="533.333" y="83.3333" type="line"/>
      <point x="341.667" y="83.3333" type="line"/>
      <point x="341.667" y="-150" type="line"/>
    </contour>
  </outline>
</glyph>
<glyph name="obarred-cy" format="2">
  <advance width="537"/>
  <unicode hex="04E9"/>
  <outline>
    <contour>
      <point x="268.333" y="-10" type="curve" smooth="yes"/>
      <point x="408.333" y="-10"/>
      <point x="493.333" y="74.3333"/>
      <point x="493.333" y="250" type="curve" smooth="yes"/>
      <point x="493.333" y="425.667"/>
      <point x="408.333" y="510"/>
      <point x="268.333" y="510" type="curve" smooth="yes"/>
      <point x="128" y="510"/>
      <point x="43.3333" y="425.667"/>
      <point x="43.3333" y="250" type="curve" smooth="yes"/>
      <point x="43.3333" y="74.3333"/>
      <point x="128" y="-10"/>
    </contour>
    <contour>
      <point x="268.333" y="73.3333" type="curve" smooth="yes"/>
      <point x="213" y="73.3333"/>
      <point x="170" y="116.667"/>
      <point x="170" y="250" type="curve" smooth="yes"/>
      <point x="170" y="383.333"/>
      <point x="213" y="426.667"/>
      <point x="268.333" y="426.667" type="curve" smooth="yes"/>
      <point x="323.667" y="426.667"/>
      <point x="366.667" y="383.333"/>
      <point x="366.667" y="250" type="curve" smooth="yes"/>
      <point x="366.667" y="116.667"/>
      <point x="323.667" y="73.3333"/>
    </contour>
    <contour>
      <point x="421.667" y="208.333" type="line"/>
      <point x="421.667" y="291.667" type="line"/>
      <point x="115" y="291.667" type="line"/>
      <point x="115" y="208.333" type="line"/>
    </contour>
  </outline>
</glyph>
<glyph name="endash" format="2">
  <advance width="523"/>
  <unicode hex="2013"/>
  <outline>
    <contour>
      <point x="493.333" y="243.333" type="line"/>
      <point x="493.333" y="336.667" type="line"/>
      <point x="30" y="336.667" type="line"/>
      <point x="30" y="243.333" type="line"/>
    </contour>
  </outline>
</glyph>
<glyph name="quoteright" format="2">
  <advance width="213"/>
  <unicode hex="2019"/>
  <outline>
    <contour>
      <point x="73.3333" y="446.667" type="line"/>
      <point x="92.3333" y="457"/>
      <point x="109.333" y="471"/>
      <point x="125" y="488" type="curve" smooth="yes"/>
      <point x="150.667" y="516.667"/>
      <point x="176.667" y="561.667"/>
      <point x="176.667" y="630" type="curve" smooth="yes"/>
      <point x="176.667" y="679"/>
      <point x="145" y="710"/>
      <point x="101.667" y="710" type="curve" smooth="yes"/>
      <point x="68" y="710"/>
      <point x="36.6667" y="678.333"/>
      <point x="36.6667" y="640" type="curve" smooth="yes"/>
      <point x="36.6667" y="601.667"/>
      <point x="68" y="570"/>
      <point x="105" y="570" type="curve"/>
      <point x="105" y="545.667"/>
      <point x="89.3333" y="525"/>
      <point x="73.6667" y="509.667" type="curve"/>
      <point x="65" y="500.667"/>
      <point x="54.6667" y="492.333"/>
      <point x="43.3333" y="485" type="curve"/>
    </contour>
  </outline>
</glyph>
<glyph name="quotedblleft" format="2">
  <advance width="393"/>
  <unicode hex="201C"/>
  <outline>
    <contour>
      <point x="291.667" y="446.667" type="curve" smooth="yes"/>
      <point x="325.333" y="446.667"/>
      <point x="356.667" y="478.333"/>
      <point x="356.667" y="516.667" type="curve" smooth="yes"/>
      <point x="356.667" y="555"/>
      <point x="325.333" y="586.667"/>
      <point x="288.333" y="586.667" type="curve"/>
      <point x="288.333" y="611"/>
      <point x="303" y="631.667"/>
      <point x="318.667" y="647" type="curve"/>
      <point x="327.333" y="656"/>
      <point x="337.667" y="664.333"/>
      <point x="350" y="671.667" type="curve"/>
      <point x="320" y="710" type="line"/>
      <point x="300.333" y="699.667"/>
      <point x="283.333" y="685.667"/>
      <point x="268.333" y="668.667" type="curve" smooth="yes"/>
      <point x="242" y="640"/>
      <point x="216.667" y="593.667"/>
      <point x="216.667" y="526.667" type="curve" smooth="yes"/>
      <point x="216.667" y="477.667"/>
      <point x="248.333" y="446.667"/>
    </contour>
    <contour>
      <point x="111.667" y="446.667" type="curve" smooth="yes"/>
      <point x="145.333" y="446.667"/>
      <point x="176.667" y="478.333"/>
      <point x="176.667" y="516.667" type="curve" smooth="yes"/>
      <point x="176.667" y="555"/>
      <point x="145.333" y="586.667"/>
      <point x="108.333" y="586.667" type="curve"/>
      <point x="108.333" y="611"/>
      <point x="123" y="631.667"/>
      <point x="138.667" y="647" type="curve"/>
      <point x="147.333" y="656"/>
      <point x="157.667" y="664.333"/>
      <point x="170" y="671.667" type="curve"/>
      <point x="140" y="710" type="line"/>
      <point x="120.333" y="699.667"/>
      <point x="103.333" y="685.667"/>
      <point x="88.3333" y="668.667" type="curve" smooth="yes"/>
      <point x="62" y="640"/>
      <point x="36.6667" y="593.667"/>
      <point x="36.6667" y="526.667" type="curve" smooth="yes"/>
      <point x="36.6667" y="477.667"/>
      <point x="68.3333" y="446.667"/>
    </contour>
  </outline>
</glyph>
<glyph name="quotedblright" format="2">
  <advance width="393"/>
  <unicode hex="201D"/>
  <outline>
    <contour>
      <point x="253.333" y="446.667" type="line"/>
      <point x="272.333" y="457"/>
      <point x="289.333" y="471"/>
      <point x="305" y="488" type="curve" smooth="yes"/>
      <point x="330.667" y="516.667"/>
      <point x="356.667" y="561.667"/>
      <point x="356.667" y="630" type="curve" smooth="yes"/>
      <point x="356.667" y="679"/>
      <point x="325" y="710"/>
      <point x="281.667" y="710" type="curve" smooth="yes"/>
      <point x="248" y="710"/>
      <point x="216.667" y="678.333"/>
      <point x="216.667" y="640" type="curve" smooth="yes"/>
      <point x="216.667" y="601.667"/>
      <point x="248" y="570"/>
      <point x="285" y="570" type="curve"/>
      <point x="285" y="545.667"/>
      <point x="269.333" y="525"/>
      <point x="253.667" y="509.667" type="curve"/>
      <point x="245" y="500.667"/>
      <point x="234.667" y="492.333"/>
      <point x="223.333" y="485" type="curve"/>
    </contour>
    <contour>
      <point x="73.3333" y="446.667" type="line"/>
      <point x="92.3333" y="457"/>
      <point x="109.333" y="471"/>
      <point x="125" y="488" type="curve" smooth="yes"/>
      <point x="150.667" y="516.667"/>
      <point x="176.667" y="561.667"/>
      <point x="176.667" y="630" type="curve" smooth="yes"/>
      <point x="176.667" y="679"/>
      <point x="145" y="710"/>
      <point x="101.667" y="710" type="curve" smooth="yes"/>
      <point x="68" y="710"/>
      <point x="36.6667" y="678.333"/>
      <point x="36.6667" y="640" type="curve" smooth="yes"/>
      <point x="36.6667" y="601.667"/>
      <point x="68" y="570"/>
      <point x="105" y="570" type="curve"/>
      <point x="105" y="545.667"/>
      <point x="89.3333" y="525"/>
      <point x="73.6667" y="509.667" type="curve"/>
      <point x="65" y="500.667"/>
      <point x="54.6667" y="492.333"/>
      <point x="43.3333" y="485" type="curve"/>
    </contour>
  </outline>
</glyph>
<glyph name="quotedblbase" format="2">
  <advance width="393"/>
  <unicode hex="201E"/>
  <outline>
    <contour>
      <point x="253.333" y="-133.333" type="line"/>
      <point x="272.333" y="-123"/>
      <point x="289.333" y="-109"/>
      <point x="305" y="-92" type="curve" smooth="yes"/>
      <point x="330.667" y="-63.3333"/>
      <point x="356.667" y="-18.3333"/>
      <point x="356.667" y="50" type="curve" smooth="yes"/>
      <point x="356.667" y="99"/>
      <point x="325" y="130"/>
      <point x="281.667" y="130" type="curve" smooth="yes"/>
      <point x="248" y="130"/>
      <point x="216.667" y="98.3333"/>
      <point x="216.667" y="60" type="curve" smooth="yes"/>
      <point x="216.667" y="21.6667"/>
      <point x="248" y="-10"/>
      <point x="285" y="-10" type="curve"/>
      <point x="285" y="-34.3333"/>
      <point x="269.333" y="-55"/>
      <point x="253.667" y="-70.3333" type="curve"/>
      <point x="245" y="-79.3333"/>
      <point x="234.667" y="-87.6667"/>
      <point x="223.333" y="-95" type="curve"/>
    </contour>
    <contour>
      <point x="73.3333" y="-133.333" type="line"/>
      <point x="92.3333" y="-123"/>
      <point x="109.333" y="-109"/>
      <point x="125" y="-92" type="curve" smooth="yes"/>
      <point x="150.667" y="-63.3333"/>
      <point x="176.667" y="-18.3333"/>
      <point x="176.667" y="50" type="curve" smooth="yes"/>
      <point x="176.667" y="99"/>
      <point x="145" y="130"/>
      <point x="101.667" y="130" type="curve" smooth="yes"/>
      <point x="68" y="130"/>
      <point x="36.6667" y="98.3333"/>
      <point x="36.6667" y="60" type="curve" smooth="yes"/>
      <point x="36.6667" y="21.6667"/>
      <point x="68" y="-10"/>
      <point x="105" y="-10" type="curve"/>
      <point x="105" y="-34.3333"/>
      <point x="89.3333" y="-55"/>
      <point x="73.6667" y="-70.3333" type="curve"/>
      <point x="65" y="-79.3333"/>
      <point x="54.6667" y="-87.6667"/>
      <point x="43.3333" y="-95" type="curve"/>
    </contour>
  </outline>
</glyph>
<glyph name="daggerdbl" format="2">
  <advance width="460"/>
  <unicode hex="2021"/>
  <outline>
    <contour>
      <point x="293.333" y="-200" type="line"/>
      <point x="293.333" y="13.3333" type="line"/>
      <point x="440" y="13.3333" type="line"/>
      <point x="440" y="96.6667" type="line"/>
      <point x="293.333" y="96.6667" type="line"/>
      <point x="293.333" y="403.333" type="line"/>
      <point x="440" y="403.333" type="line"/>
      <point x="440" y="486.667" type="line"/>
      <point x="293.333" y="486.667" type="line"/>
      <point x="293.333" y="700" type="line"/>
      <point x="166.667" y="700" type="line"/>
      <point x="166.667" y="486.667" type="line"/>
      <point x="20" y="486.667" type="line"/>
      <point x="20" y="403.333" type="line"/>
      <point x="166.667" y="403.333" type="line"/>
      <point x="166.667" y="96.6667" type="line"/>
      <point x="20" y="96.6667" type="line"/>
      <point x="20" y="13.3333" type="line"/>
      <point x="166.667" y="13.3333" type="line"/>
      <point x="166.667" y="-200" type="line"/>
    </contour>
  </outline>
</glyph>
<glyph name="bullet" format="2">
  <advance width="410"/>
  <unicode hex="2022"/>
  <outline>
    <contour>
      <point x="205" y="176.667" type="curve" smooth="yes"/>
      <point x="282" y="176.667"/>
      <point x="338.333" y="233"/>
      <point x="338.333" y="310" type="curve" smooth="yes"/>
      <point x="338.333" y="387"/>
      <point x="282" y="443.333"/>
      <point x="205" y="443.333" type="curve" smooth="yes"/>
      <point x="128" y="443.333"/>
      <point x="71.6667" y="387"/>
      <point x="71.6667" y="310" type="curve" smooth="yes"/>
      <point x="71.6667" y="233"/>
      <point x="128" y="176.667"/>
    </contour>
  </outline>
</glyph>
<glyph name="guilsinglleft" format="2">
  <advance width="337"/>
  <unicode hex="2039"/>
  <outline>
    <contour>
      <point x="333.333" y="50" type="line"/>
      <point x="143.333" y="260" type="line"/>
      <point x="333.333" y="470" type="line"/>
      <point x="193.333" y="470" type="line"/>
      <point x="3.33333" y="260" type="line"/>
      <point x="193.333" y="50" type="line"/>
    </contour>
  </outline>
</glyph>
<glyph name="guilsinglright" format="2">
  <advance width="340"/>
  <unicode hex="203A"/>
  <outline>
    <contour>
      <point x="143.333" y="50" type="line"/>
      <point x="333.333" y="260" type="line"/>
      <point x="143.333" y="470" type="line"/>
      <point x="3.33333" y="470" type="line"/>
      <point x="193.333" y="260" type="line"/>
      <point x="3.33333" y="50" type="line"/>
    </contour>
  </outline>
</glyph>
<glyph name="tugrik" format="2">
  <advance width="500"/>
  <unicode hex="20AE"/>
  <outline>
    <component base="T"/>
    <contour>
      <point x="444.667" y="403.333" type="line"/>
      <point x="444.667" y="473.333" type="line"/>
      <point x="56.3333" y="373.333" type="line"/>
      <point x="56.3333" y="303.333" type="line"/>
    </contour>
    <contour>
      <point x="444.667" y="280" type="line"/>
      <point x="444.667" y="350" type="line"/>
      <point x="56.3333" y="250" type="line"/>
      <point x="56.3333" y="180" type="line"/>
    </contour>
  </outline>
</glyph>
<glyph name="hryvnia" format="2">
  <advance width="538"/>
  <unicode hex="20B4"/>
  <outline>
    <contour>
      <point x="279.333" y="-10" type="curve" smooth="yes"/>
      <point x="358.333" y="-10"/>
      <point x="438.333" y="10.6667"/>
      <point x="503.667" y="45" type="curve"/>
      <point x="462" y="118.333" type="line"/>
      <point x="452" y="118.333" type="line"/>
      <point x="408.667" y="89.3333"/>
      <point x="347.333" y="70.6667"/>
      <point x="287.333" y="70.6667" type="curve" smooth="yes"/>
      <point x="224.333" y="70.6667"/>
      <point x="178.667" y="103.333"/>
      <point x="178.667" y="162.667" type="curve" smooth="yes"/>
      <point x="178.667" y="235"/>
      <point x="217.333" y="277.667"/>
      <point x="321" y="334.667" type="curve" smooth="yes"/>
      <point x="423" y="391.333"/>
      <point x="503.667" y="441"/>
      <point x="503.667" y="536.667" type="curve" smooth="yes"/>
      <point x="503.667" y="656.333"/>
      <point x="416" y="710"/>
      <point x="284.333" y="710" type="curve" smooth="yes"/>
      <point x="188.333" y="710"/>
      <point x="117.667" y="686.333"/>
      <point x="68.6667" y="655" type="curve"/>
      <point x="110.333" y="581.667" type="line"/>
      <point x="120.333" y="581.667" type="line"/>
      <point x="148.667" y="605.333"/>
      <point x="199" y="626.667"/>
      <point x="263.333" y="626.667" type="curve" smooth="yes"/>
      <point x="337.333" y="626.667"/>
      <point x="373.667" y="591.333"/>
      <point x="373.667" y="530" type="curve" smooth="yes"/>
      <point x="373.667" y="469.667"/>
      <point x="345" y="432"/>
      <point x="247.667" y="382.667" type="curve"/>
      <point x="127" y="318"/>
      <point x="42" y="264.667"/>
      <point x="42" y="160" type="curve" smooth="yes"/>
      <point x="42" y="49.3333"/>
      <point x="143" y="-10"/>
    </contour>
    <contour>
      <point x="522.667" y="250" type="line"/>
      <point x="522.667" y="323.333" type="line"/>
      <point x="15" y="323.333" type="line"/>
      <point x="15" y="250" type="line"/>
    </contour>
    <contour>
      <point x="522.667" y="373.333" type="line"/>
      <point x="522.667" y="446.667" type="line"/>
      <point x="15" y="446.667" type="line"/>
      <point x="15" y="373.333" type="line"/>
    </contour>
  </outline>
</glyph>
<glyph name="tenge" format="2">
  <advance width="500"/>
  <unicode hex="20B8"/>
  <outline>
    <contour>
      <point x="313.333" y="0" type="line"/>
      <point x="313.333" y="493.333" type="line"/>
      <point x="490" y="493.333" type="line"/>
      <point x="490" y="576.667" type="line"/>
      <point x="10" y="576.667" type="line"/>
      <point x="10" y="493.333" type="line"/>
      <point x="186.667" y="493.333" type="line"/>
      <point x="186.667" y="0" type="line"/>
    </contour>
    <contour>
      <point x="490" y="626.667" type="line"/>
      <point x="490" y="700" type="line"/>
      <point x="10" y="700" type="line"/>
      <point x="10" y="626.667" type="line"/>
    </contour>
  </outline>
</glyph>
<glyph name="ruble" format="2">
  <advance width="580"/>
  <unicode hex="20BD"/>
  <outline>
    <component base="P" xOffset="10"/>
    <contour>
      <point x="320" y="103.333" type="line"/>
      <point x="320" y="186.667" type="line"/>
      <point x="13.3333" y="186.667" type="line"/>
      <point x="13.3333" y="103.333" type="line"/>
    </contour>
    <contour>
      <point x="216.667" y="233.333" type="line"/>
      <point x="216.667" y="316.667" type="line"/>
      <point x="13.3333" y="316.667" type="line"/>
      <point x="13.3333" y="233.333" type="line"/>
    </contour>
  </outline>
</glyph>
<glyph name="trademark" format="2">
  <advance width="880"/>
  <unicode hex="2122"/>
  <outline>
    <contour>
      <point x="493.333" y="320" type="line"/>
      <point x="493.333" y="476.667" type="line" smooth="yes"/>
      <point x="493.333" y="488.667"/>
      <point x="492.333" y="503.333"/>
      <point x="491.333" y="515" type="curve"/>
      <point x="490.333" y="522"/>
      <point x="490.333" y="528.667"/>
      <point x="490.333" y="535" type="curve"/>
      <point x="495.333" y="535" type="line"/>
      <point x="496.377" y="529.311"/>
      <point x="499.261" y="520.434"/>
      <point x="501.667" y="514.667" type="curve"/>
      <point x="505.667" y="503"/>
      <point x="511.333" y="488.667"/>
      <point x="518.333" y="476.667" type="curve" smooth="yes"/>
      <point x="571.667" y="381.667" type="line"/>
      <point x="651.667" y="381.667" type="line"/>
      <point x="705" y="476.667" type="line" smooth="yes"/>
      <point x="712" y="488.667"/>
      <point x="717.667" y="503"/>
      <point x="721.667" y="514.667" type="curve"/>
      <point x="724.072" y="520.434"/>
      <point x="726.957" y="529.311"/>
      <point x="728" y="535" type="curve"/>
      <point x="733" y="535" type="line"/>
      <point x="731" y="515" type="line" smooth="yes"/>
      <point x="730" y="503.333"/>
      <point x="730" y="488.667"/>
      <point x="730" y="476.667" type="curve" smooth="yes"/>
      <point x="730" y="320" type="line"/>
      <point x="840" y="320" type="line"/>
      <point x="840" y="700" type="line"/>
      <point x="728.333" y="700" type="line"/>
      <point x="627.333" y="520" type="line"/>
      <point x="621.952" y="511.022"/>
      <point x="619.084" y="499.294"/>
      <point x="616.667" y="493.667" type="curve"/>
      <point x="613.667" y="481.667" type="line"/>
      <point x="609.667" y="481.667" type="line"/>
      <point x="606.333" y="493.667" type="line"/>
      <point x="603.667" y="501"/>
      <point x="600.667" y="510.333"/>
      <point x="596" y="520" type="curve"/>
      <point x="495" y="700" type="line"/>
      <point x="383.333" y="700" type="line"/>
      <point x="383.333" y="320" type="line"/>
    </contour>
    <contour>
      <point x="233.333" y="320" type="line"/>
      <point x="233.333" y="625" type="line"/>
      <point x="346.667" y="625" type="line"/>
      <point x="346.667" y="700" type="line"/>
      <point x="10" y="700" type="line"/>
      <point x="10" y="625" type="line"/>
      <point x="123.333" y="625" type="line"/>
      <point x="123.333" y="320" type="line"/>
    </contour>
  </outline>
</glyph>
<glyph name="apple" format="2">
  <advance width="1272"/>
  <unicode hex="F8FF"/>
  <outline>
    <contour>
      <point x="1258.33" y="420" type="line"/>
      <point x="1078.33" y="420" type="line"/>
      <point x="1168.33" y="255" type="line"/>
    </contour>
    <contour>
      <point x="178.333" y="260" type="line"/>
      <point x="178.333" y="425" type="line"/>
      <point x="13.3333" y="260" type="line"/>
    </contour>
    <contour>
      <point x="293.333" y="255" type="curve" smooth="yes"/>
      <point x="338.333" y="255"/>
      <point x="378.333" y="295"/>
      <point x="378.333" y="340" type="curve" smooth="yes"/>
      <point x="378.333" y="385"/>
      <point x="338.333" y="425"/>
      <point x="293.333" y="425" type="curve" smooth="yes"/>
      <point x="248.333" y="425"/>
      <point x="208.333" y="385"/>
      <point x="208.333" y="340" type="curve" smooth="yes"/>
      <point x="208.333" y="295"/>
      <point x="248.333" y="255"/>
    </contour>
    <contour>
      <point x="558.333" y="420" type="line"/>
      <point x="378.333" y="420" type="line"/>
      <point x="468.333" y="255" type="line"/>
    </contour>
    <contour>
      <point x="693.333" y="260" type="line"/>
      <point x="603.333" y="425" type="line"/>
      <point x="513.333" y="260" type="line"/>
    </contour>
    <contour>
      <point x="848.333" y="260" type="line"/>
      <point x="708.333" y="400" type="line"/>
      <point x="708.333" y="260" type="line"/>
    </contour>
    <contour>
      <point x="868.333" y="420" type="line"/>
      <point x="728.333" y="420" type="line"/>
      <point x="868.333" y="280" type="line"/>
    </contour>
    <contour>
      <point x="1044.33" y="260" type="line"/>
      <point x="904.333" y="400" type="line"/>
      <point x="904.333" y="260" type="line"/>
    </contour>
    <contour>
      <point x="1064.33" y="420" type="line"/>
      <point x="924.333" y="420" type="line"/>
      <point x="1064.33" y="280" type="line"/>
    </contour>
  </outline>
</glyph>
<glyph name="Decyr.loclBGR" format="2">
  <advance width="677"/>
  <outline>
    <contour>
      <point x="580" y="69.3333" type="line"/>
      <point x="401.667" y="700" type="line"/>
      <point x="280.667" y="700" type="line"/>
      <point x="101.333" y="69.3333" type="line"/>
      <point x="209.667" y="69.3333" type="line"/>
      <point x="323" y="481.667" type="line" smooth="yes"/>
      <point x="329.667" y="505.333"/>
      <point x="333.667" y="532.333"/>
      <point x="336" y="555" type="curve"/>
      <point x="340" y="555" type="line"/>
      <point x="342.333" y="532.333"/>
      <point x="347" y="505.333"/>
      <point x="353" y="481.667" type="curve" smooth="yes"/>
      <point x="465.333" y="69.3333" type="line"/>
    </contour>
    <contour>
      <point x="40" y="83.3333" type="line"/>
      <point x="40" y="-150" type="line"/>
      <point x="141.667" y="-150" type="line"/>
      <point x="160" y="0" type="line"/>
      <point x="521.667" y="0" type="line"/>
      <point x="540" y="-150" type="line"/>
      <point x="636.667" y="-150" type="line"/>
      <point x="636.667" y="83.3333" type="line"/>
    </contour>
  </outline>
</glyph>
<glyph name="Zhecyr.loclBGR" format="2">
  <advance width="850"/>
  <outline>
    <contour>
      <point x="488.333" y="700" type="line" name="n00"/>
      <point x="361.667" y="700" type="line" name="n01"/>
      <point x="361.667" y="383.333" type="line"/>
      <point x="163.333" y="700" type="line"/>
      <point x="21.6667" y="700" type="line"/>
      <point x="238.333" y="363.333" type="line"/>
      <point x="8.33333" y="0" type="line" name="n06"/>
      <point x="153.333" y="0" type="line"/>
      <point x="361.667" y="336.667" type="line"/>
      <point x="361.667" y="0" type="line"/>
      <point x="488.333" y="0" type="line"/>
      <point x="488.333" y="336.667" type="line"/>
      <point x="696.667" y="0" type="line"/>
      <point x="841.667" y="0" type="line"/>
      <point x="611.667" y="363.333" type="line"/>
      <point x="828.333" y="700" type="line"/>
      <point x="686.667" y="700" type="line"/>
      <point x="488.333" y="383.333" type="line"/>
    </contour>
  </outline>
</glyph>
<glyph name="brevecomb-cy.case" format="2">
  <advance width="413"/>
  <anchor x="206.667" y="700" name="_top"/>
  <outline>
    <contour>
      <point x="206.667" y="750" type="curve" smooth="yes"/>
      <point x="314" y="750"/>
      <point x="363.333" y="799.333"/>
      <point x="363.333" y="886.667" type="curve"/>
      <point x="260" y="886.667" type="line"/>
      <point x="260" y="835.667"/>
      <point x="240.667" y="816.667"/>
      <point x="206.667" y="816.667" type="curve" smooth="yes"/>
      <point x="172.667" y="816.667"/>
      <point x="153.333" y="835.667"/>
      <point x="153.333" y="886.667" type="curve"/>
      <point x="50" y="886.667" type="line"/>
      <point x="50" y="799.333"/>
      <point x="99.3333" y="750"/>
    </contour>
  </outline>
</glyph>
<glyph name="brevecomb-cy" format="2">
  <advance width="413"/>
  <anchor x="206.667" y="500" name="_top"/>
  <outline>
    <contour>
      <point x="206.667" y="550" type="curve" smooth="yes"/>
      <point x="314" y="550"/>
      <point x="363.333" y="599.333"/>
      <point x="363.333" y="686.667" type="curve"/>
      <point x="260" y="686.667" type="line"/>
      <point x="260" y="635.667"/>
      <point x="240.667" y="616.667"/>
      <point x="206.667" y="616.667" type="curve" smooth="yes"/>
      <point x="172.667" y="616.667"/>
      <point x="153.333" y="635.667"/>
      <point x="153.333" y="686.667" type="curve"/>
      <point x="50" y="686.667" type="line"/>
      <point x="50" y="599.333"/>
      <point x="99.3333" y="550"/>
    </contour>
  </outline>
</glyph>
<glyph name="descender-cy" format="2">
  <advance width="242"/>
  <anchor x="104.333" y="0" name="_bottom"/>
  <anchor x="20" y="0" name="_bottomright"/>
  <outline>
    <contour>
      <point x="191.667" y="-140" type="line"/>
      <point x="191.667" y="83.3333" type="line"/>
      <point x="20" y="83.3333" type="line"/>
      <point x="20" y="0" type="line"/>
      <point x="76.6667" y="0" type="line"/>
      <point x="95" y="-140" type="line"/>
    </contour>
  </outline>
</glyph>
<glyph name="hardcyr.loclBGR" format="2">
  <advance width="572"/>
  <outline>
    <component base="softcyr.loclBGR" xScale="1" xOffset="61.6667"/>
    <contour>
      <point x="260" y="500" type="line"/>
      <point x="10" y="500" type="line"/>
      <point x="10" y="416.667" type="line"/>
      <point x="260" y="416.667" type="line"/>
    </contour>
  </outline>
</glyph>
<glyph name="shacyr.loclBGR" format="2">
  <advance width="825"/>
  <outline>
    <contour>
      <point x="66.6667" y="173.333" type="line" smooth="yes"/>
      <point x="66.6667" y="59.3333"/>
      <point x="136" y="-10"/>
      <point x="234.333" y="-10" type="curve" smooth="yes"/>
      <point x="296" y="-10"/>
      <point x="353.333" y="17.6667"/>
      <point x="390" y="60" type="curve"/>
      <point x="415.667" y="12.6667"/>
      <point x="467.667" y="-10"/>
      <point x="516.667" y="-10" type="curve" smooth="yes"/>
      <point x="571.667" y="-10"/>
      <point x="618.333" y="19"/>
      <point x="648.333" y="60" type="curve"/>
      <point x="653.333" y="60" type="line"/>
      <point x="663.333" y="0" type="line"/>
      <point x="753.333" y="0" type="line"/>
      <point x="753.333" y="500" type="line"/>
      <point x="626.667" y="500" type="line"/>
      <point x="626.667" y="138.333" type="line"/>
      <point x="610.333" y="109.667"/>
      <point x="580.667" y="78.3333"/>
      <point x="544.333" y="78.3333" type="curve" smooth="yes"/>
      <point x="506.667" y="78.3333"/>
      <point x="473.333" y="111.333"/>
      <point x="473.333" y="173.333" type="curve" smooth="yes"/>
      <point x="473.333" y="500" type="line"/>
      <point x="346.667" y="500" type="line"/>
      <point x="346.667" y="128.333" type="line"/>
      <point x="325.667" y="104"/>
      <point x="299.667" y="78.3333"/>
      <point x="265" y="78.3333" type="curve" smooth="yes"/>
      <point x="226.667" y="78.3333"/>
      <point x="193.333" y="111.333"/>
      <point x="193.333" y="173.333" type="curve" smooth="yes"/>
      <point x="193.333" y="500" type="line"/>
      <point x="66.6667" y="500" type="line"/>
    </contour>
  </outline>
</glyph>
<glyph name="vecyr.loclBGR" format="2">
  <advance width="530"/>
  <outline>
    <contour>
      <point x="51.6667" y="199.333" type="line" smooth="yes"/>
      <point x="51.6667" y="58"/>
      <point x="142.333" y="-10"/>
      <point x="262" y="-10" type="curve" smooth="yes"/>
      <point x="398" y="-10"/>
      <point x="483.333" y="79"/>
      <point x="483.333" y="206" type="curve" smooth="yes"/>
      <point x="483.333" y="294.667"/>
      <point x="441.333" y="362.333"/>
      <point x="363.667" y="388" type="curve"/>
      <point x="427.667" y="416.333"/>
      <point x="461.667" y="474.333"/>
      <point x="461.667" y="540" type="curve" smooth="yes"/>
      <point x="461.667" y="642.333"/>
      <point x="378" y="715"/>
      <point x="260.333" y="715" type="curve" smooth="yes"/>
      <point x="118.667" y="715"/>
      <point x="51.6667" y="607.667"/>
      <point x="51.6667" y="502.333" type="curve" smooth="yes"/>
    </contour>
    <contour>
      <point x="178.333" y="395" type="curve"/>
      <point x="178.333" y="545" type="line" smooth="yes"/>
      <point x="178.333" y="608.333"/>
      <point x="212.333" y="636.667"/>
      <point x="257" y="636.667" type="curve" smooth="yes"/>
      <point x="302.333" y="636.667"/>
      <point x="336.667" y="606.333"/>
      <point x="336.667" y="540.333" type="curve" smooth="yes"/>
      <point x="336.667" y="484"/>
      <point x="311.667" y="424.333"/>
      <point x="258.667" y="417" type="curve" smooth="yes"/>
      <point x="237.667" y="414.333"/>
      <point x="200.667" y="404.667"/>
    </contour>
    <contour>
      <point x="178.333" y="296.333" type="line"/>
      <point x="197" y="315.333"/>
      <point x="232.667" y="336.667"/>
      <point x="269.333" y="336.667" type="curve" smooth="yes"/>
      <point x="327" y="336.667"/>
      <point x="356.667" y="285"/>
      <point x="356.667" y="207.667" type="curve" smooth="yes"/>
      <point x="356.667" y="129.667"/>
      <point x="325.333" y="68.3333"/>
      <point x="261.333" y="68.3333" type="curve" smooth="yes"/>
      <point x="205.333" y="68.3333"/>
      <point x="178.333" y="115.667"/>
      <point x="178.333" y="174" type="curve" smooth="yes"/>
    </contour>
  </outline>
</glyph>
<glyph name="verticalbar-cy" format="2">
  <advance width="150"/>
  <anchor x="75.3333" y="250.333" name="_center"/>
  <outline>
    <contour>
      <point x="100" y="120.333" type="line"/>
      <point x="100" y="380.333" type="line"/>
      <point x="50" y="380.333" type="line"/>
      <point x="50" y="120.333" type="line"/>
    </contour>
  </outline>
</glyph>
<glyph name="yucyr.loclBGR" format="2">
  <advance width="738"/>
  <outline>
    <contour>
      <point x="71.6667" y="0" type="line"/>
      <point x="198.333" y="0" type="line"/>
      <point x="198.333" y="213.333" type="line"/>
      <point x="265" y="213.333" type="line"/>
      <point x="278.667" y="71.3333"/>
      <point x="351.333" y="-10"/>
      <point x="479.333" y="-10" type="curve" smooth="yes"/>
      <point x="610" y="-10"/>
      <point x="695" y="75"/>
      <point x="695" y="250" type="curve" smooth="yes"/>
      <point x="695" y="425"/>
      <point x="610" y="510"/>
      <point x="478.667" y="510" type="curve" smooth="yes"/>
      <point x="353.333" y="510"/>
      <point x="278.667" y="432.333"/>
      <point x="265" y="296.667" type="curve"/>
      <point x="198.333" y="296.667" type="line"/>
      <point x="198.333" y="700" type="line"/>
      <point x="108.333" y="700" type="line"/>
      <point x="71.6667" y="663.333" type="line"/>
    </contour>
    <contour>
      <point x="391.667" y="250" type="curve" smooth="yes"/>
      <point x="391.667" y="386.667"/>
      <point x="431.333" y="426.667"/>
      <point x="480" y="426.667" type="curve" smooth="yes"/>
      <point x="528.667" y="426.667"/>
      <point x="568.333" y="386.667"/>
      <point x="568.333" y="250" type="curve" smooth="yes"/>
      <point x="568.333" y="113.333"/>
      <point x="528.667" y="73.3333"/>
      <point x="480" y="73.3333" type="curve" smooth="yes"/>
      <point x="431.333" y="73.3333"/>
      <point x="391.667" y="113.333"/>
    </contour>
  </outline>
</glyph>
